<?xml version="1.0" encoding="UTF-8"?>
<svg width="189px" height="244px" viewBox="0 0 189 244" version="1.1" xmlns="http://www.w3.org/2000/svg" xmlns:xlink="http://www.w3.org/1999/xlink">
    <!-- Generator: Sketch 62 (91390) - https://sketch.com -->
    <title>Slice</title>
    <desc>Created with Sketch.</desc>
    <defs>
        <polygon id="path-1" points="0.643959088 4.66646553 8.38294672 1.89679093e-15 13.4848557 11.8773749 21.7151024 7.13059649 28.732563 20.4364756 34.3774484 11.8773749 43.5991701 26.4569736 43.5991701 136.678191 0.320481585 113.063706"></polygon>
        <polygon id="path-3" points="0 3.27611505 7.14360959 0 15.8221888 12.3791092 24.5464733 8.72959687 34.2529341 22.9828864 40.6524605 17.3920946 45.7733938 29.6109629 54.0343299 24.7277071 61.0779575 38.4161513 65.928008 24.7277071 76 47.0012634 76 158 0 115.497733"></polygon>
    </defs>
    <g id="Page-1" stroke="none" stroke-width="1" fill="none" fill-rule="evenodd">
        <g id="Group-8" transform="translate(6.000000, 0.000000)">
            <polygon id="Rectangle-Copy-15" fill="#F87177" transform="translate(65.000000, 137.000000) scale(-1, 1) translate(-65.000000, -137.000000) " points="27 63.1931754 34.1436096 60 42.8221888 72.065714 53.3748012 65.3452161 61.2529341 82.4010412 67.6524605 76.9517884 72.7733938 88.8613182 81.0343299 84.1016892 88.0779575 97.4435905 93.7438918 88.8613182 103 100.967071 103 214 27 172.57374"></polygon>
            <g id="Group-4" transform="translate(27.000000, 35.000000)" fill-rule="nonzero">
                <path d="M34.9721019,16.1790916 L35.0501777,11.2739651 L17.2724703,10.9912983 L17.194394,15.8985138 C17.194394,15.8985138 4.39242337,39.7894505 4.29959926,45.5072239 L4.278512,46.7606636 L4.11816147,56.7275968 L3.09456509,119.888415 C3.06793153,121.603685 4.43208862,123.016105 6.14308267,123.044378 L42.5445591,123.622453 C44.2555834,123.648492 45.6650574,122.280398 45.6939396,120.565158 L46.7171412,57.4043393 L46.8795756,47.4374057 L46.898579,46.1839664 C46.9914035,40.464104 34.9721023,16.1770025 34.9721023,16.1770025 L34.9721019,16.1790916 Z" id="Path_256" fill="#E2E2E2" transform="translate(24.996839, 67.306876) rotate(-3.000000) translate(-24.996839, -67.306876) "></path>
                <path d="M29.2844391,1.87030591 L29.1685189,10.8690999 L27.3694955,10.8322341 L27.4872818,1.55891673 L25.6882585,1.52205093 L25.5704722,10.7953683 L23.7714489,10.7585025 L23.8892351,1.48518513 L22.0884001,1.44831969 L21.9706138,10.721637 L20.1715905,10.6847712 L20.2893767,1.41145388 L18.4885417,1.37458844 L18.3707554,10.6479058 L16.5717321,10.61104 L16.6858313,1.65877569 C15.1625536,2.35425859 14.1347744,4.19021413 14.1068518,6.26569131 L14.0516369,10.6254998 L31.7846085,10.9872295 L31.8416351,6.62742072 C31.8672172,4.50307629 30.840187,2.59250695 29.2844391,1.87030591 L29.2844391,1.87030591 Z" id="Path_257" fill="#58C9BE" transform="translate(22.946870, 6.180909) rotate(-3.000000) translate(-22.946870, -6.180909) "></path>
                <path d="M18.677916,11.387791 L18.8455324,1.78259377 L18.216337,1.78271886 C17.5529651,1.77439883 16.8933619,1.87738137 16.2691371,2.08673132 L16.1067652,11.3593855 L18.6779141,11.3974299 L18.677916,11.387791 Z" id="Path_258" fill="#5BC7E6" transform="translate(17.476149, 6.589841) rotate(-3.000000) translate(-17.476149, -6.589841) "></path>
                <polygon id="Path_259" fill="#5BC7E6" transform="translate(21.143523, 6.246620) rotate(-3.000000) translate(-21.143523, -6.246620) " points="22.3452923 11.0540233 22.512903 1.47714742 19.941754 1.43921666 19.7741433 11.0160925"></polygon>
                <polygon id="Path_260" fill="#5BC7E6" transform="translate(25.000000, 6.181319) rotate(-3.000000) translate(-25.000000, -6.181319) " points="26.2017691 10.988722 26.3693799 1.41184614 23.7982309 1.37391538 23.6306201 10.9507912"></polygon>
                <path d="M29.7657949,10.9791123 L29.929687,1.68574633 C29.3524562,1.48843559 28.7438411,1.38297812 28.1291761,1.37376371 L27.357502,1.37391712 L27.1909815,10.9507927 L29.745215,10.9887269 L29.7657949,10.9791123 Z" id="Path_261" fill="#5BC7E6" transform="translate(28.560334, 6.181245) rotate(-3.000000) translate(-28.560334, -6.181245) "></path>
                <polygon id="Path_262" fill="#4AB4A9" transform="translate(23.631579, 10.989011) rotate(-3.000000) translate(-23.631579, -10.989011) " points="33.159599 12.3607288 14.0523078 12.1219436 14.1035589 9.61729315 33.2108501 9.85607843"></polygon>
                <path d="M35.9474503,12.558682 C35.9425756,12.8763596 35.8189668,13.1789322 35.6039623,13.3994804 C35.3889577,13.6200286 35.1002744,13.7403785 34.8017599,13.7339126 L13.8353735,13.3797293 C13.4231769,13.3911214 13.0383793,13.1611333 12.8331112,12.7806911 C12.6278431,12.4002489 12.6351494,11.9305976 12.8521414,11.557415 C13.0691334,11.1842323 13.460879,10.9675945 13.8725008,10.9931498 L34.8365968,11.3448957 C35.4582262,11.3567851 35.9532105,11.9020576 35.9428675,12.5635584 L35.9474503,12.558682 Z" id="Path_263" fill="#BCBEC0" transform="translate(24.315788, 12.362637) rotate(-3.000000) translate(-24.315788, -12.362637) "></path>
                <polygon id="Path_265" fill="#E6E7E8" transform="translate(25.000000, 78.296703) rotate(-3.000000) translate(-25.000000, -78.296703) " points="44.8437788 100.270551 4.4692492 99.6137001 5.15622124 56.3228554 45.5307508 56.9797065"></polygon>
            </g>
            <g id="Group-7" transform="translate(57.000000, 26.000000)" fill-rule="nonzero">
                <path d="M44.7935302,18.8013496 C46.2874175,13.5077991 49.0437175,9.95548685 54,9.82279891 L53.3289178,1.375 C46.4235791,3.02777962 41.8349329,7.61366108 40.4558104,17.5117159 C34.7603648,17.1183078 30.2689769,17.7887311 29.3683652,21.3969119 C28.3238111,25.5870574 34.3577155,24.7606676 40.9596083,27.1187884 C47.5615011,29.4769092 52.2318443,34.1279707 53.2783435,29.940153 C54.2353651,26.0991863 50.3819916,21.8880901 44.791585,18.8013496 L44.7935302,18.8013496 Z" id="Path_238" fill="#92C023" transform="translate(41.625000, 16.500000) rotate(-3.000000) translate(-41.625000, -16.500000) "></path>
                <path d="M57.7575017,28.021204 C55.4916166,27.364066 53.1522132,26.9600691 50.7870374,26.8174585 C46.7714318,24.6636341 42.2922825,23.3982047 37.6857673,23.1161457 C35.6250695,22.0090603 33.4345823,21.1337437 31.158937,20.5080305 C19.8776484,17.3205615 9.23692404,19.4844373 4.25307451,35.2682433 C-0.730775022,51.0520493 1.43978559,73.4912578 13.3702947,76.8629735 C14.133627,77.0759055 14.9126902,77.2346619 15.7009964,77.3379208 C17.7350456,80.9319545 21.2375647,83.5801161 25.3916947,84.6648003 C29.3423246,85.783303 33.6076588,85.2843162 37.1512424,83.2890912 C38.0503185,83.7358131 38.9923368,84.1004948 39.9645313,84.3781943 C52.4165809,87.8952603 66.7167449,70.1072589 71.6984304,54.3193586 C76.6801158,38.5314582 69.0344622,31.208673 57.7575017,28.021204 Z" id="Path_268" fill="#CDE64C" transform="translate(37.500000, 52.250000) rotate(-3.000000) translate(-37.500000, -52.250000) "></path>
            </g>
            <g id="Group-5" transform="translate(51.000000, 85.000000)" fill-rule="nonzero">
                <path d="M26.7828196,15.7191794 C16.6891288,5.56618807 2.56526892,15.153591 1.46135153,26.6468684 C0.680013139,34.8623395 5.50843944,48.0400322 13.1333596,53.1445691 C16.1757948,55.1813548 19.1306797,53.7412765 23.0919243,54.1348935 C27.0531689,54.5285106 29.6812739,56.5276129 33.0504888,55.1273137 C41.49236,51.6202767 48.7715729,39.6485623 49.5529115,31.4309955 C50.6463659,19.9377191 38.5900189,7.74993241 26.7723571,15.7149889 L26.7828196,15.7191794 Z" id="Path_250" fill="#F4626C" transform="translate(25.500428, 33.523945) rotate(-3.000000) translate(-25.500428, -33.523945) "></path>
                <polygon id="Path_251" fill="#A5A5A5" transform="translate(28.256674, 7.285913) rotate(-3.000000) translate(-28.256674, -7.285913) " points="24.8101309 14.1907819 27.7171318 0.381044996 31.7032162 2.30141123 24.8101309 14.1907819"></polygon>
                <path d="M12.4164972,3.14356069 C12.4164972,3.14356069 11.5341706,17.2717889 25.9472507,16.9461984 C28.3206514,8.31012679 12.4164972,3.14356069 12.4164972,3.14356069 Z" id="Path_252" fill="#92C023" transform="translate(19.297362, 10.047651) rotate(-3.000000) translate(-19.297362, -10.047651) "></path>
            </g>
            <g id="Line-14" transform="translate(50.000000, 169.500000) scale(-1, 1) translate(-50.000000, -169.500000) translate(28.000000, 101.000000)">
                <g id="Mask">
                    <g transform="translate(-0.000000, 0.000000)">
                        <mask id="mask-2" fill="white">
                            <use xlink:href="#path-1"></use>
                        </mask>
                        <use fill="#F3939A" transform="translate(21.959826, 68.339095) scale(-1, 1) translate(-21.959826, -68.339095) " xlink:href="#path-1"></use>
                        <line x1="43.6393443" y1="112.522928" x2="22" y2="107.475559" id="Line-16" stroke="#F87177" stroke-linecap="square" mask="url(#mask-2)"></line>
                        <line x1="0.360655738" y1="136.317664" x2="22" y2="107.475559" id="Line-15" stroke="#F87177" stroke-linecap="square" mask="url(#mask-2)"></line>
                        <line x1="22" y1="7.97029603" x2="22" y2="107.475559" id="Line-14" stroke="#F87177" stroke-linecap="square" mask="url(#mask-2)"></line>
                    </g>
                </g>
            </g>
            <path d="M144.5,85.6971404 L144.5,195.154018 L102.500875,172.034881 L102.820564,63.9590449 L109.776833,59.7274191 L114.979106,71.9456391 L118.623169,66.5631984 L125.901045,82.4125714 L137.445459,77.0368597 L144.5,85.6971404 Z" id="Rectangle-Copy-17" stroke="#F3939A" fill="#F87177"></path>
            <g id="Group-6" transform="translate(87.000000, 16.000000)" fill-rule="nonzero">
                <path d="M50.3506167,2.01123439 C61.9313189,4.15633094 60.4230259,34.5972266 53.598468,71.228721 C46.7739102,107.860215 37.2198996,136.810237 25.6391974,134.665141 C14.0584952,132.520044 -1.00831534,99.0156243 5.81624261,62.3778387 C12.6408006,25.7400532 38.7636058,-0.135959108 50.3506167,2.01123439" id="Path_245" fill="#F2B200" transform="translate(31.500244, 68.331980) rotate(-3.000000) translate(-31.500244, -68.331980) "></path>
                <path d="M11.041938,82.717099 L5.47826087,81.8329781 C5.52763598,81.3931552 5.58299595,80.9526929 5.64434079,80.5115914 C10.8062841,77.8151186 18.1452209,75.1704272 23.5989262,76.033452 C24.7512513,76.2041672 25.8503979,76.5749064 26.8285073,77.122781 L24.5594966,79.6389775 C21.5767911,80.1222713 18.499824,80.4061106 15.5822038,81.0984482 C14.0050637,81.4968979 12.4828333,82.0395884 11.041938,82.717099 M28.5611248,78.7855419 L28.4085108,78.3425226 C28.5297043,78.4652639 28.6464091,78.5937587 28.7608696,78.7260891 L28.5611248,78.7836241" id="Path_246" fill="#FEE884" transform="translate(17.119565, 79.292099) rotate(-3.000000) translate(-17.119565, -79.292099) "></path>
                <path d="M8.05746479,52.0601905 C8.74419737,49.6203148 9.50501192,47.2407602 10.3399084,44.9215269 C15.6503966,43.6163456 23.3158758,41.8576426 27.7651141,42.681502 C30.0025553,43.096625 31.4279224,44.1611146 31.3359961,46.2645942 C22.657608,46.0220292 15.6674041,48.9538146 8.05746479,52.0601905" id="Path_247" fill="#FAC642" transform="translate(19.698829, 47.265053) rotate(-3.000000) translate(-19.698829, -47.265053) "></path>
                <path d="M15.0672896,33.8908863 C16.107747,31.8749846 17.1821761,29.9375541 18.2905769,28.0785947 C18.751337,28.0214475 19.2163438,27.9620146 19.6855967,27.9300087 C20.8685771,27.8794011 22.0529845,27.9783377 23.2145399,28.2247903 C26.8538883,28.953831 31.0070577,30.9467907 31.4953655,34.2265945 C31.6354885,35.1751092 28.5418278,34.695188 25.8218714,34.1512643 C25.2379619,34.0347093 24.6710389,33.9227251 24.1571988,33.8061689 C23.6433587,33.6896127 23.1826011,33.598197 22.8088991,33.522779 C22.5202719,33.4567951 22.2281047,33.4102362 21.9340959,33.3833729 C19.6352072,33.3415404 17.3371975,33.5113297 15.0651663,33.8908863" id="Path_248" fill="#FAC642" transform="translate(23.282561, 31.342068) rotate(-3.000000) translate(-23.282561, -31.342068) "></path>
                <path d="M47.5695795,76.7199937 L44.7240814,67.9027874 L44.4242949,68.2599946 C45.1674976,66.6809889 45.7964653,65.0585462 46.3070883,63.4032672 C49.5980333,53.0380832 48.7284008,41.8645632 49.6619855,31.1923497 C50.454737,22.1599263 53.9773089,13.1023907 47.2619064,4.87223002 C46.2715096,3.64285489 45.0548026,2.58242307 43.6668626,1.73893735 C45.1106183,1.36275543 46.6247857,1.27301561 48.10907,1.47566205 L48.10907,1.47566205 L48.1385938,1.47566156 C55.3423914,2.70590504 57.8562847,13.2903275 57.2837155,29.0155878 C55.7296095,30.1761869 54.6697789,31.8033302 54.2903757,33.6112209 L56.890712,35.6039898 C55.8175247,47.2868253 54.066877,58.9086397 51.6462456,70.419799 C51.3267561,72.0059768 51.0004537,73.5775325 50.6673384,75.134466 L47.5673086,76.7095492" id="Path_249" fill="#FAC642" transform="translate(50.514503, 39.045035) rotate(-3.000000) translate(-50.514503, -39.045035) "></path>
            </g>
            <g id="Line-17" transform="translate(108.000000, 159.000000) scale(-1, 1) translate(-108.000000, -159.000000) translate(70.000000, 80.000000)">
                <mask id="mask-4" fill="white">
                    <use xlink:href="#path-3"></use>
                </mask>
                <use id="Mask" fill="#F3939A" xlink:href="#path-3"></use>
                <line x1="75.3090909" y1="45.7006865" x2="75.3090909" y2="158.686957" stroke="#F87177" stroke-linecap="square" mask="url(#mask-4)"></line>
            </g>
            <g id="Group_433" transform="translate(27.127052, 37.545309) rotate(37.000000) translate(-27.127052, -37.545309) translate(16.127052, 27.045309)" fill="#92C023" fill-rule="nonzero">
                <path d="M21.3575215,20.575977 C18.2052222,20.0940587 15.3408932,18.3041345 13.3535543,15.5742839 L14.5358619,14.4511213 C16.2779597,16.8352169 18.7731244,18.4123289 21.5255113,18.86905 L21.3575215,20.575977 L21.3575215,20.575977 Z" id="Path_269"></path>
                <g id="Group_432" transform="translate(0.000000, 0.000000)">
                    <path d="M16.3327143,17.610454 L16.3624846,17.5730931 C17.7790756,12.9465965 16.6754371,7.83811594 13.5172912,4.40336897 C10.4846202,1.82242586 6.75801415,0.418944828 2.9211784,0.412755747 C2.11669053,0.384578233 1.34031968,0.739308201 0.791486803,1.38582864 C0.242653926,2.03234908 -0.0251562195,2.90765541 0.05684689,3.78691379 C0.366179171,7.82832964 1.8581308,11.6513309 4.30975188,14.684627 C8.86673958,19.436469 15.3269023,18.7826529 16.3348407,17.610454 L16.3327143,17.610454 Z" id="Path_270"></path>
                    <path d="M16.3327143,17.610454 L16.3624846,17.5730931 C9.45364046,14.5375184 3.04238619,4.85637011 0.864898838,1.30241264 C0.257291886,1.94677653 -0.0415646057,2.8656646 0.05684689,3.78691379 C0.366179171,7.82832964 1.8581308,11.6513309 4.30975188,14.684627 C8.86673958,19.436469 15.3269023,18.7826529 16.3348407,17.610454 L16.3327143,17.610454 Z" id="Path_271"></path>
                </g>
            </g>
            <g id="Group_435" transform="translate(70.272908, 14.222700) rotate(37.000000) translate(-70.272908, -14.222700) translate(56.772908, 6.722700)" fill="#92C023" fill-rule="nonzero">
                <path d="M0.825903648,12.3495107 C3.80345937,13.2151945 6.97895014,12.8309215 9.69884712,11.2757767 L9.03635756,9.82293924 C6.65540664,11.1774693 3.88364063,11.5271527 1.27197995,10.802486 L0.830320245,12.3495107 L0.825903648,12.3495107 Z" id="Path_272"></path>
                <g id="Group_434" transform="translate(5.792537, 0.000000)">
                    <path d="M0.540863269,11.8314811 L0.527613478,11.7867422 C0.871390548,7.20694572 3.62879573,3.23463607 7.63612643,1.54623974 C11.2324619,0.547939041 15.0376716,0.848521213 18.4567892,2.40098851 C19.1849175,2.70217355 19.7549607,3.32495389 20.0196493,4.10843554 C20.2843379,4.8919172 20.2177089,5.75924913 19.8369758,6.48635796 C18.1591378,9.8582849 15.5026021,12.5603935 12.2647201,14.1885156 C6.55406015,16.4490082 1.02448065,13.2466437 0.532030075,11.8338358 L0.540863269,11.8314811 Z" id="Path_273"></path>
                    <path d="M0.540863269,11.8314811 L0.527613478,11.7867422 C7.73770816,11.9727619 16.8160234,6.19673235 19.9915567,4.01629885 C20.3104475,4.82140746 20.2564848,5.73942705 19.845809,6.49577668 C18.167971,9.86770362 15.5114353,12.5698122 12.2735533,14.1979343 C6.56289334,16.4584269 1.03331384,13.2560624 0.540863269,11.8432545 L0.540863269,11.8314811 Z" id="Path_274"></path>
                </g>
            </g>
            <g id="Group_437" transform="translate(165.514639, 78.794480) rotate(37.000000) translate(-165.514639, -78.794480) translate(155.014639, 64.294480)" fill="#92C023" fill-rule="nonzero">
                <path d="M20.5758376,28.6772529 C20.615545,24.8454559 19.063745,21.1450693 16.2391504,18.3360878 L14.6930068,19.5620911 C17.158545,22.0223097 18.530509,25.248597 18.5361444,28.5995484 L20.5758376,28.6772529 L20.5758376,28.6772529 Z" id="Path_275"></path>
                <g id="Group_436" transform="translate(0.000000, 0.000000)">
                    <path d="M18.0659857,22.2148342 L18.0168647,22.2428941 C16.613406,23.0091461 7.73886917,22.8451034 3.09108195,16.7237209 C0.136801504,12.8384992 0.0759849624,7.15528325 0.443223308,3.46432266 C0.56491321,2.50188747 1.13140966,1.63494022 1.99702709,1.08643322 C2.86264453,0.537926223 3.9429132,0.361384564 4.96002105,0.60220936 C9.64874971,1.62119695 13.8532477,4.01511467 16.9432188,7.42509031 C21.6518226,13.6198604 19.6378594,21.2046765 18.0659857,22.2148342 L18.0659857,22.2148342 Z" id="Path_276"></path>
                    <path d="M18.0659857,22.2148342 L18.0168647,22.2428941 C15.7853654,13.5292053 5.6406985,4.32770525 1.87709023,1.16124959 C2.75015283,0.539077517 3.88947173,0.33200892 4.95300376,0.60220936 C9.64173242,1.62119695 13.8462304,4.01511467 16.9362015,7.42509031 C21.6448053,13.6198604 19.6308421,21.2046765 18.0589684,22.2148342 L18.0659857,22.2148342 Z" id="Path_277"></path>
                </g>
            </g>
            <g id="Group_438" transform="translate(12.472618, 70.760848) rotate(37.000000) translate(-12.472618, -70.760848) translate(5.472618, 59.760848)" fill="#92C023" fill-rule="nonzero">
                <path d="M0.945074114,21.2951747 C0.700831595,18.6110738 1.50627491,15.936519 3.19532546,13.8229908 L4.2756348,14.6029 C2.80220076,16.4558951 2.08727726,18.790024 2.27305263,21.1410609 L0.945074114,21.2998448 L0.945074114,21.2951747 Z" id="Path_278"></path>
                <path d="M2.21880129,16.6344 L2.2541826,16.6507454 C6.03946066,17.0153044 9.70431977,15.2153249 11.7009925,12.0109862 C13.0728937,9.05878595 13.418759,5.73997748 12.6845929,2.57268391 C12.5503419,1.90383798 12.1307662,1.32501158 11.5336874,0.984950151 C10.9366086,0.644888722 10.2202423,0.576748584 9.56867884,0.79804023 C6.56049144,1.75498563 3.94628586,3.65068028 2.11737487,6.20136322 C-0.609344791,10.7897511 1.13613319,16.0086046 2.21880129,16.6344 L2.21880129,16.6344 Z" id="Path_279"></path>
                <path d="M2.21880129,16.6344 L2.2541826,16.6507454 C3.22127175,10.4231471 9.33044468,3.4459954 11.6113598,1.03154598 C11.0048453,0.641690873 10.2489843,0.555285852 9.56867884,0.79804023 C6.56049144,1.75498563 3.94628586,3.65068028 2.11737487,6.20136322 C-0.609344791,10.7897511 1.13613319,16.0086046 2.21880129,16.6344 L2.21880129,16.6344 Z" id="Path_280"></path>
            </g>
        </g>
    </g>
</svg>