<?xml version="1.0" encoding="UTF-8"?>
<svg width="593px" height="434px" viewBox="0 0 593 434" version="1.1" xmlns="http://www.w3.org/2000/svg" xmlns:xlink="http://www.w3.org/1999/xlink">
    <!-- Generator: Sketch 62 (91390) - https://sketch.com -->
    <title>Slice</title>
    <desc>Created with Sketch.</desc>
    <defs>
        <polygon id="path-1" points="95.9080006 212.672347 478.589287 109.942433 431.639983 309.066289 44.3834492 412.580419"></polygon>
    </defs>
    <g id="Page-1" stroke="none" stroke-width="1" fill="none" fill-rule="evenodd">
        <g id="Group-10" transform="translate(0.000000, -54.000000)">
            <path d="M120.833683,250.808426 L509.226774,136.487545 C520.882607,133.056729 533.112751,139.724423 536.543567,151.380256 C537.625522,155.056084 537.728654,158.950761 536.842752,162.678699 L490.986287,355.645905 C489.104906,363.562887 483.007057,369.794768 475.132845,371.847809 L84.4861754,473.701012 C72.7289679,476.766466 60.7128268,469.720407 57.6473731,457.9632 C56.9762867,455.389322 56.7775263,452.715079 57.0607395,450.070274 C57.295599,447.877024 57.4369778,446.634719 57.4848762,446.343358 C57.7998617,444.427331 60.7293112,442.543639 60.848247,442.053781 C69.9074789,404.74174 84.8787232,346.172218 105.76198,266.345215 C107.714401,258.882011 113.433243,252.986696 120.833683,250.808426 Z" id="Rectangle-Copy-14" fill="#E4E4E4" transform="translate(299.713261, 303.737915) rotate(45.000000) translate(-299.713261, -303.737915) "></path>
            <path d="M121.519955,242.169387 L504.166708,132.380804 C515.845754,129.029865 528.029965,135.78113 531.380905,147.460177 C532.4598,151.220458 532.516521,155.200414 531.545221,158.989913 L484.860897,341.127461 C482.89685,348.790134 476.970183,354.808471 469.338556,356.889892 L90.6002405,460.185546 C78.8781315,463.38259 66.7837687,456.471659 63.5867251,444.74955 C62.606786,441.156558 62.5550052,437.373604 63.4362344,433.755136 L106.212121,258.110518 C108.081781,250.433393 113.924884,244.348556 121.519955,242.169387 Z" id="Rectangle" fill="#FAFAFA" transform="translate(297.844514, 295.895667) rotate(45.000000) translate(-297.844514, -295.895667) "></path>
            <path d="M107.96939,186.858872 L127.355054,186.554754 C130.179315,186.510448 132.708918,188.295184 133.614161,190.970804 L133.748551,191.368018 C134.390364,193.26502 133.372833,195.323136 131.475831,195.96495 C131.0791,196.099176 130.662115,196.163656 130.243372,196.15553 L111.584662,195.793446 C109.279859,195.74872 107.171161,194.486589 106.04275,192.476414 L105.398964,191.32956 C104.587471,189.883949 105.101525,188.054204 106.547136,187.242711 C106.981978,186.998613 107.470782,186.866694 107.96939,186.858872 Z" id="Rectangle" fill="#474747" opacity="0.853864397" transform="translate(119.167936, 191.368018) rotate(-30.000000) translate(-119.167936, -191.368018) "></path>
            <g id="Group-2" transform="translate(39.000000, 37.000000)">
                <mask id="mask-2" fill="white">
                    <use xlink:href="#path-1"></use>
                </mask>
                <use id="Mask" fill="#58C9BE" opacity="0.423711868" transform="translate(261.486368, 261.261426) rotate(45.000000) translate(-261.486368, -261.261426) " xlink:href="#path-1"></use>
                <g mask="url(#mask-2)" stroke="#FFFFFF">
                    <g transform="translate(28.000000, 148.000000)">
                        <path d="M103.5,54.2776857 C318.166667,147.611019 427.166667,195.611019 430.5,198.277686 C427.166667,195.611019 359.31484,248.051764 226.94452,355.599921 L103.5,54.2776857 Z M52,18.7776857 C80.718807,18.7776857 104,38.2532991 104,62.2776857 C104,86.3020723 80.718807,105.777686 52,105.777686 C23.281193,105.777686 0,86.3020723 0,62.2776857 C0,38.2532991 23.281193,18.7776857 52,18.7776857 Z" id="Combined-Shape" stroke-opacity="0.37" stroke-width="8"></path>
                        <line x1="395.5" y1="106.277686" x2="313.5" y2="142.277686" id="Line-9" stroke-opacity="0.372377622" stroke-width="11" stroke-linecap="square"></line>
                        <path d="M121.5,156.277686 L242.5,75.2776857 M87.5,1.27768573 L245.5,72.2776857 M252,72.7776857 L314,54.7776857 M164.5,132.277686 L366.968511,241" id="Combined-Shape" stroke-opacity="0.372377622" stroke-width="11" stroke-linecap="square"></path>
                    </g>
                </g>
            </g>
            <path d="M403.5,394.777686 C420.518375,394.777686 437.216253,390.19909 447.57467,382.193316 C456.208957,375.520082 460,366.318519 460,356.777686 C460,335.790865 434.704088,318.777686 403.5,318.777686 C372.295912,318.777686 345.232076,335.790865 345.232076,356.777686 C345.232076,367.150681 350.671687,377.920645 360.69004,384.777686 C370.940989,391.793926 387.718918,394.777686 403.5,394.777686 Z" id="Oval-Copy-3" fill="#709E00"></path>
            <ellipse id="Oval" fill="#92C023" cx="403.5" cy="351.777686" rx="56.5" ry="33"></ellipse>
            <path d="M137.786586,198 C162.373028,153.687871 175.574876,124.359297 177.39213,110.014277 C180.385734,86.3833952 172.01486,66.9516306 159.044479,62.0030782 C129.72421,50.8166001 94,88.6586558 94,121.539977 C94,143.460858 108.595529,168.947532 137.786586,198 Z" id="Oval" fill="#F4626C"></path>
            <path d="M123.476001,134.350312 C133.455422,139.422036 148.271816,132.407617 156.569341,118.683168 C164.866867,104.95872 163.503421,89.7214121 153.523999,84.6496882 C143.544578,79.5779643 128.728184,86.5923833 120.430659,100.316832 C112.133133,114.04128 113.496579,129.278588 123.476001,134.350312 Z" id="Oval" fill="#FFFFFF"></path>
            <g id="Group-3" transform="translate(380.000000, 328.777686)" fill="#FFFFFF">
                <path d="M3,26 L37,26 L37,26 L37,29 C37,30.6568542 35.6568542,32 34,32 L3,32 C1.34314575,32 2.02906125e-16,30.6568542 0,29 C-2.02906125e-16,27.3431458 1.34314575,26 3,26 Z" id="Rectangle"></path>
                <path d="M31.4535368,-1.91846539e-13 L31.5,-1.91846539e-13 C34.5375661,-1.9240453e-13 37,2.46243388 37,5.5 L37,26.0206672 C37,29.0582333 34.5375661,31.5206672 31.5,31.5206672 L31.2794428,31.5206672 C28.2418767,31.5206672 25.7794428,29.0582333 25.7794428,26.0206672 C25.7794428,26.0051138 25.7795088,25.9895606 25.7796407,25.9740078 L25.9537347,5.45334057 C25.9793496,2.43408899 28.4341766,-1.91291891e-13 31.4535368,-1.91846539e-13 Z" id="Rectangle"></path>
            </g>
            <g id="logo" transform="translate(221.500000, 253.500000) rotate(-3.000000) translate(-221.500000, -253.500000) translate(83.000000, 172.000000)" fill-rule="nonzero">
                <path d="M93.5093083,84.3082687 L92.2217043,89.4174404 C92.2217043,89.4174404 85.1775161,93.8068635 89.8224816,98.9374795 C89.8224816,98.9374795 114.614267,108.674883 193.939802,84.6548383 C193.939802,84.6548383 258.007246,61.4332901 259.284956,59.7323266 C259.284956,59.7323266 272.439718,54.2371194 269.916,48.6878473 C267.227047,46.6254419 263.982312,45.4263472 260.605394,45.2471045 L263.071223,38.8896321 C224.318914,44.7659511 195.403577,50.2592639 176.325211,55.3695705 C157.246845,60.4798771 129.641544,70.1261098 93.5093083,84.3082687 Z" id="Path_291" fill="#FFFFFF"></path>
                <path d="M127.673345,74.6029891 C128.69945,71.103121 130.592666,68.7544848 133.996981,68.6667572 L133.536036,63.0814357 C128.792975,64.1741825 125.641177,67.2061703 124.693901,73.7503387 C120.781878,73.4902342 117.696884,73.9334893 117.078282,76.3190634 C116.360811,79.0894075 120.505311,78.5430341 125.039944,80.1021222 C129.574578,81.6612103 132.78249,84.7362923 133.501298,81.9674872 C134.158646,79.4280051 131.511884,76.6438093 127.672009,74.6029891 L127.673345,74.6029891 Z" id="Path_238" fill="#92C023"></path>
                <path d="M197.89634,54.0179423 C206.933364,46.9586383 216.798558,56.5477513 216.299498,66.0856995 C215.943412,72.9076563 210.643939,83.0894268 204.114352,86.3241713 C201.51115,87.6146581 199.381379,86.0711904 196.254839,85.897799 C193.128298,85.7244076 190.850159,87.0347918 188.395325,85.4714267 C182.239358,81.5601715 177.981166,70.8639118 178.338601,64.0462187 C178.836311,54.5082704 189.642974,46.0220405 197.89634,54.0051511 L197.89634,54.0179423 Z" id="Path_239" fill="#F9D408"></path>
                <polygon id="Path_240" fill="#664031" points="197.388512 53.9396274 202.388512 44.2794958 198.695629 42.9410187 197.388512 53.9410187"></polygon>
                <path d="M186.399476,42.5223311 C186.399476,42.5223311 198.651735,43.1570218 197.294503,53.470376 C189.665456,54.4009598 186.399476,42.5223311 186.399476,42.5223311 Z" id="Path_241" fill="#0D9D59"></path>
                <path d="M197.89634,54.0179423 C206.933364,46.9586383 216.798558,56.5477513 216.299498,66.0856995 C215.943412,72.9076563 210.643939,83.0894268 204.114352,86.3241713 C201.51115,87.6146581 199.381379,86.0711904 196.254839,85.897799 C193.128298,85.7244076 190.850159,87.0347918 188.395325,85.4714267 C182.239358,81.5601715 177.981166,70.8639118 178.338601,64.0462187 C178.836311,54.5082704 189.642974,46.0220405 197.89634,54.0051511 L197.89634,54.0179423 Z" id="Path_242" fill="#E3FF69"></path>
                <polygon id="Path_243" fill="#A5A5A5" points="197.388512 53.9396274 202.388512 44.2794958 198.695629 42.9410187 197.388512 53.9410187"></polygon>
                <path d="M186.399476,42.5223311 C186.399476,42.5223311 198.651735,43.1570218 197.294503,53.470376 C189.665456,54.4009598 186.399476,42.5223311 186.399476,42.5223311 Z" id="Path_244" fill="#92C023"></path>
                <path d="M250.016032,20.0198319 C257.626224,21.4404472 256.635393,41.5984647 252.151087,65.8558531 C247.66678,90.1132415 241.388752,109.283911 233.778559,107.863295 C226.168367,106.44268 216.266963,84.2558071 220.751269,59.9942527 C225.235576,35.7326983 242.401694,18.5978279 250.016032,20.0198319" id="Path_245" fill="#F2B200"></path>
                <path d="M224.832785,73.4823176 L221.248343,72.8369739 C221.280153,72.5159353 221.315819,72.19443 221.355341,71.872458 C224.680963,69.9042297 229.409129,67.9737981 232.922721,68.6037431 C233.665115,68.7283528 234.373249,68.9989653 235.003403,69.3988738 L233.541576,71.2355136 C231.619945,71.5882828 229.637585,71.7954648 227.757886,72.3008207 C226.741801,72.5916599 225.761093,72.9877844 224.832785,73.4823176 M236.119656,70.6125679 L236.021333,70.2891961 C236.099413,70.3787883 236.174601,70.4725801 236.248343,70.5691717 L236.119656,70.611168" id="Path_246" fill="#FEE884"></path>
                <path d="M222.32123,53.5104122 C222.763636,51.9839055 223.253771,50.4951398 223.791634,49.0441148 C227.21294,48.2275803 232.151461,47.1273234 235.017923,47.642819 C236.459415,47.9025649 237.37773,48.5685801 237.318528,49.8846259 C231.727412,49.7327745 227.223954,51.5669801 222.32123,53.5104122" id="Path_247" fill="#FAC642"></path>
                <path d="M227.920403,41.0435094 C228.616771,39.5720597 229.335877,38.1578886 230.077722,36.8009961 C230.386114,36.7592884 230.697347,36.7159123 231.011423,36.692556 C231.803205,36.6556304 232.595944,36.7278613 233.373389,36.907768 C235.809255,37.439959 238.589042,38.8947256 238.915908,41.288751 C239.009705,41.9810998 236.939077,41.6307546 235.118572,41.2336968 C234.727754,41.148613 234.348304,41.0668657 234.004384,40.9817819 C233.660463,40.8966981 233.352072,40.8299657 233.101948,40.7749114 C232.908766,40.7267445 232.713214,40.6927563 232.516431,40.6731445 C230.977757,40.642582 229.439675,40.7664881 227.918982,41.0435094" id="Path_248" fill="#FAC642"></path>
                <path d="M250.222889,69.6713965 L248.352896,63.8205265 L248.155897,64.0575553 C248.64427,63.0097818 249.057573,61.9331834 249.393107,60.8347946 C251.555614,53.9567996 250.984019,46.5423709 251.597401,39.4606142 C252.118253,33.4669725 254.432985,27.4566971 250.019921,21.9953306 C249.369076,21.1795425 248.569515,20.4758578 247.657431,19.9161302 C248.60618,19.6665228 249.601203,19.6069908 250.576591,19.7414774 L250.576591,19.7414774 L250.595992,19.7414774 C255.329926,20.5579101 256.982027,27.5814491 256.605938,38.016263 C255.584682,38.7863853 254.888241,39.866098 254.638938,41.065757 L256.347751,42.3881284 C255.642642,50.1405026 254.492344,57.8523774 252.90177,65.4908175 C252.691837,66.5433549 252.477427,67.5861895 252.25854,68.619321 L250.221397,69.6644658" id="Path_249" fill="#FAC642"></path>
                <path d="M216.116585,58.5915307 C209.420764,51.9279495 200.053,58.2188103 199.321513,65.7612415 C198.80378,71.1526219 202.007336,79.8008362 207.06529,83.1511941 C209.083475,84.4880363 211.043363,83.5431694 213.67089,83.8017356 C216.298416,84.0603018 218.041772,85.3723878 220.276489,84.4536525 C225.875772,82.1526884 230.703314,74.2966769 231.221046,68.9039211 C231.945594,61.3614899 223.947808,53.3624418 216.109645,58.58878 L216.116585,58.5915307 Z" id="Path_250" fill="#F4626C"></path>
                <polygon id="Path_251" fill="#A5A5A5" points="215.206836 56.8789545 217.314849 47.8789545 220.206836 49.1307635 215.206836 56.8789545"></polygon>
                <path d="M208.115841,49.6145338 C208.115841,49.6145338 207.540635,58.8222322 216.95146,58.6109526 C218.500594,52.9827385 208.115841,49.6145338 208.115841,49.6145338 Z" id="Path_252" fill="#92C023"></path>
                <path d="M221.628075,22.5247632 C220.149152,29.830845 213.027084,34.5548752 205.720327,33.076289 C198.41357,31.5977027 193.688927,24.4763869 195.167433,17.1702205 C196.645938,9.86405409 203.767736,5.13961657 211.074577,6.6177849 C214.583893,7.32734921 217.667471,9.40205016 219.646723,12.3853186 C221.625975,15.368587 222.338709,19.0159546 221.628075,22.5247632 L221.628075,22.5247632 Z" id="Path_253" fill="#F2B200"></path>
                <polygon id="Path_254" fill="#92C023" points="208.216573 5.52056735 209.02271 7.94596232 207.520581 8.67006999 210.098623 9.1484199 209.828847 10.374283 212.173827 9.35029234 214.068648 10.5205674 214.319269 9.38393775 216.038496 9.24789327 214.860418 8.35994711 216.520581 7.06094184 213.501958 7.22916887 212.92569 5.93894067 210.97819 7.24233447 208.214977 5.5220302"></polygon>
                <path d="M220.970673,11.4446572 C221.380085,12.7044779 221.411578,14.1802678 221.041069,14.7421879 C220.670561,15.3041079 220.037917,14.7421879 219.628504,13.4743683 C219.219092,12.2065487 219.187599,10.7367579 219.558108,10.1768376 C219.928617,9.61691726 220.56126,10.1768376 220.970673,11.4446572 Z" id="Path_255" fill="#EF8690"></path>
                <path d="M164.155175,39.1695281 L164.206237,35.9469563 L152.432865,35.7589272 L152.381802,38.9828715 C152.381802,38.9828715 143.906796,54.6771256 143.846073,58.4335903 L143.832272,59.2570754 L143.727387,65.8051547 L143.057798,107.300571 C143.040378,108.427469 143.94398,109.355582 145.077095,109.374381 L169.184148,109.758927 C170.317282,109.776251 171.25053,108.877621 171.269433,107.750742 L171.938767,66.2553266 L172.045032,59.7072473 L172.057453,58.8837622 C172.118176,55.125925 164.155175,39.1681556 164.155175,39.1681556 L164.155175,39.1695281 Z" id="Path_256" fill="#E2E2E2"></path>
                <path d="M161.481103,28.9949466 L161.404112,34.6102381 L160.190577,34.5870105 L160.268791,28.8004148 L159.055256,28.7771871 L158.977042,34.5637828 L157.763508,34.5405551 L157.841721,28.7539594 L156.626965,28.7307317 L156.548751,34.5173274 L155.335216,34.4940997 L155.41343,28.707504 L154.198673,28.6842764 L154.120459,34.4708721 L152.906925,34.4476444 L152.982694,28.8613874 C151.955261,29.2951843 151.262219,30.440705 151.243661,31.7358128 L151.206998,34.4563548 L163.168809,34.6842764 L163.206694,31.9637344 C163.223666,30.6381328 162.530628,29.4457977 161.481103,28.9949466 L161.481103,28.9949466 Z" id="Path_257" fill="#58C9BE"></path>
                <path d="M154.091383,34.4689178 L154.21248,28.4752331 L153.752688,28.4752331 C153.26792,28.469959 152.785923,28.534139 152.329793,28.6646973 L152.21248,34.4508736 L154.091383,34.4749325 L154.091383,34.4689178 Z" id="Path_258" fill="#5BC7E6"></path>
                <polygon id="Path_259" fill="#5BC7E6" points="157.087271 34.6319404 157.208369 28.6559284 155.329466 28.6319404 155.208369 34.6079524"></polygon>
                <polygon id="Path_260" fill="#5BC7E6" points="159.08453 34.7366123 159.205628 28.7606003 157.326725 28.7366123 157.205628 34.7126243"></polygon>
                <path d="M163.081725,34.9399591 L163.200146,29.1408587 C162.778299,29.0176639 162.333532,28.9517823 161.884357,28.9459561 L161.320447,28.9459561 L161.200146,34.9219681 L163.066687,34.9459561 L163.081725,34.9399591 Z" id="Path_261" fill="#5BC7E6"></path>
                <polygon id="Path_262" fill="#4AB4A9" points="163.018199 35.680165 151.049991 35.503562 151.081782 33.680165 163.049991 33.8567679"></polygon>
                <path d="M165.943263,36.9003333 C165.94016,37.1316044 165.860497,37.3518616 165.721893,37.5123913 C165.583288,37.6729209 165.397164,37.7604948 165.204684,37.7557443 L151.685729,37.4948617 C151.41995,37.5030956 151.171807,37.3356068 151.039404,37.0586123 C150.907,36.7816177 150.911651,36.4397091 151.051518,36.1680607 C151.191385,35.8964123 151.44395,35.7387551 151.709363,35.7574191 L165.226841,36.016527 C165.627663,36.0252725 165.946893,36.4223067 165.940309,36.9038828 L165.943263,36.9003333 Z" id="Path_263" fill="#BCBEC0"></path>
                <path d="M232.57533,68.1801099 C232.03015,69.8053496 232.613073,71.3918336 233.879567,71.7343841 C235.14606,72.0769346 236.619443,71.0392816 237.16602,69.4190426 C237.712597,67.7988036 237.128277,66.2060687 235.860385,65.8647684 C234.592494,65.5234681 233.120509,66.5598709 232.57533,68.1801099 Z" id="Path_264" fill="#67387F"></path>
                <polygon id="Path_265" fill="#E6E7E8" points="169.220476 94.6963127 142.666649 94.257655 143.112821 65.6963127 169.666649 66.1349705"></polygon>
                <path d="M110.071629,43.5180272 C113.965229,50.6007479 111.830468,59.3236413 105.047424,64.0475409 L105.03607,64.0556319 C98.4080238,69.1040473 88.8331485,68.5632133 82.881311,62.8042269 C78.4475207,58.7803128 79.5105517,50.532907 83.5682362,47.7779283 C84.8555115,46.9014054 87.2455572,46.061292 88.8862299,45.1524052 L88.9245501,45.1308292 C91.2762756,43.8767273 92.3506608,41.4265088 94.073651,40.2034223 C97.8900601,37.4969895 107.004593,37.6493696 110.071629,43.5180272 Z" id="Path_266" fill="#F4626C"></path>
                <path d="M91.4961176,37.0793916 C91.4530943,38.7270837 91.2992077,40.3693486 91.0356461,41.993505 C90.9099906,42.54567 90.8250635,43.1074921 90.7816441,43.6738148 C90.5086922,43.1428926 90.1161193,42.6928886 89.6393776,42.3644413 C89.5368856,42.2820111 86.2630816,39.5380335 86.1784142,39.6046118 C86.0209627,39.7298425 87.2939436,41.3229663 88.1747811,43.7784378 C88.4050169,44.412517 88.6842705,44.9197803 88.8818277,45.4064361 C88.2917864,45.2587157 87.6900225,45.1706126 87.0845034,45.1432932 C85.5518947,44.9489739 84.0340246,44.6396223 82.5421746,44.2175377 C82.5080106,44.2952124 87.6118175,48.0521313 88.6322818,48.0774945 C89.6572023,48.1599248 93.979693,45.5411779 93.505853,43.1443587 C93.4909991,43.0635136 91.5837557,37.0698804 91.497603,37.0841472 L91.4961176,37.0793916 Z" id="Path_267" fill="#92C023"></path>
                <path d="M134.561149,80.7390059 C133.071687,80.300914 131.533897,80.0315827 129.979166,79.9365089 C127.339537,78.500626 124.395201,77.6570064 121.367142,77.4689671 C120.012558,76.7309102 118.572657,76.1473657 117.076778,75.7302236 C109.661106,73.6052443 102.666504,75.0478282 99.3904071,85.5703655 C96.1143102,96.0929028 97.5411123,111.052375 105.383545,113.300186 C105.885316,113.44214 106.397427,113.547978 106.915614,113.616817 C108.252682,116.01284 110.555037,117.778281 113.285724,118.501404 C115.882641,119.247072 118.686428,118.914414 121.015776,117.584264 C121.606777,117.882079 122.226006,118.1252 122.865071,118.310333 C131.050334,120.655043 140.450442,108.796376 143.725117,98.271109 C146.999791,87.7458421 141.973977,82.8639853 134.561149,80.7390059 Z" id="Path_268" fill="#CDE64C"></path>
                <g id="Group_433" transform="translate(58.101131, 43.915666)" fill="#92C023">
                    <path d="M14.3372727,13.1 C12.3157886,12.7904241 10.478972,11.6406082 9.20454545,9.887 L9.96272727,9.1655 C11.0798874,10.6970013 12.6799689,11.7101104 14.445,12.0035 L14.3372727,13.1 L14.3372727,13.1 Z" id="Path_269"></path>
                    <g id="Group_432" transform="translate(-0.000000, 0.000000)">
                        <path d="M11.115,11.195 L11.1340909,11.171 C12.0425123,8.19901967 11.3347788,4.91742126 9.30954545,2.711 C7.36477572,1.05304738 4.97500425,0.151475757 2.51454545,0.1475 C1.99864919,0.129399258 1.50078359,0.357271574 1.14883194,0.772584975 C0.79688029,1.18789838 0.625140901,1.75017982 0.677727273,2.315 C0.876093683,4.91113472 1.83284183,7.36696371 3.405,9.3155 C6.32727273,12.368 10.47,11.948 11.1163636,11.195 L11.115,11.195 Z" id="Path_270"></path>
                        <path d="M11.115,11.195 L11.1340909,11.171 C6.70363636,9.221 2.59227273,3.002 1.19590909,0.719 C0.806267217,1.13292807 0.614618647,1.72320566 0.677727273,2.315 C0.876093683,4.91113472 1.83284183,7.36696371 3.405,9.3155 C6.32727273,12.368 10.47,11.948 11.1163636,11.195 L11.115,11.195 Z" id="Path_271"></path>
                    </g>
                </g>
                <g id="Group_435" transform="translate(69.707785, 15.560014)" fill="#92C023">
                    <path d="M0.540222222,8.15828571 C2.48783654,8.73601195 4.56491985,8.479562 6.344,7.44171429 L5.91066667,6.47214286 C4.35329057,7.37610745 2.54028297,7.60947362 0.832,7.12585714 L0.543111111,8.15828571 L0.540222222,8.15828571 Z" id="Path_272"></path>
                    <g id="Group_434" transform="translate(3.888889, 0.000000)">
                        <path d="M0.253777778,7.81257143 L0.245111111,7.78271429 C0.469975129,4.72632291 2.27358934,2.07534639 4.89477778,0.948571429 C7.2471349,0.282341466 9.73611633,0.482939191 11.9725556,1.519 C12.4488231,1.72000006 12.8216874,2.13562125 12.9948198,2.65848871 C13.1679522,3.18135618 13.1243703,3.7601823 12.8753333,4.24542857 C11.7778623,6.49573127 10.0402266,8.29902129 7.92233333,9.38557143 C4.187,10.8941429 0.570111111,8.757 0.248,7.81414286 L0.253777778,7.81257143 Z" id="Path_273"></path>
                        <path d="M0.253777778,7.81257143 L0.245111111,7.78271429 C4.96122222,7.90685714 10.8993333,4.05214286 12.9764444,2.597 C13.1850304,3.13430052 13.1497335,3.74695376 12.8811111,4.25171429 C11.78364,6.50201699 10.0460044,8.30530701 7.92811111,9.39185714 C4.19277778,10.9004286 0.575888889,8.76328571 0.253777778,7.82042857 L0.253777778,7.81257143 Z" id="Path_274"></path>
                    </g>
                </g>
                <g id="Group_437" transform="translate(157.349481, 0.054610)" fill="#92C023">
                    <path d="M13.836,18.98 C13.8614633,16.4439305 12.866336,13.9948348 11.055,12.1357143 L10.0635,12.9471429 C11.6445828,14.5754351 12.5243862,16.7107489 12.528,18.9285714 L13.836,18.98 L13.836,18.98 Z" id="Path_275"></path>
                    <g id="Group_436">
                        <path d="M12.2265,14.7028571 L12.195,14.7214286 C11.295,15.2285714 5.604,15.12 2.6235,11.0685714 C0.729,8.49714286 0.69,4.73571429 0.9255,2.29285714 C1.00353644,1.65587075 1.36681526,1.08208291 1.92191226,0.71905432 C2.47700927,0.356025724 3.1697563,0.239181872 3.822,0.398571429 C6.82875464,1.07298695 9.52498528,2.65739807 11.5065,4.91428571 C14.526,9.01428571 13.2345,14.0342857 12.2265,14.7028571 L12.2265,14.7028571 Z" id="Path_276"></path>
                        <path d="M12.2265,14.7028571 L12.195,14.7214286 C10.764,8.95428571 4.2585,2.86428571 1.845,0.768571429 C2.40487139,0.356787706 3.13548573,0.219739643 3.8175,0.398571429 C6.82425464,1.07298695 9.52048528,2.65739807 11.502,4.91428571 C14.5215,9.01428571 13.23,14.0342857 12.222,14.7028571 L12.2265,14.7028571 Z" id="Path_277"></path>
                    </g>
                </g>
                <g id="Group_438" transform="translate(65.889181, 67.198161)" fill="#92C023">
                    <path d="M0.546285714,13.562 C0.38356859,11.8377806 0.920164021,10.1196935 2.04542857,8.762 L2.76514286,9.263 C1.78352446,10.4533316 1.30723435,11.9527351 1.431,13.463 L0.546285714,13.565 L0.546285714,13.562 Z" id="Path_278"></path>
                    <path d="M1.39485714,10.568 L1.41842857,10.5785 C3.94022357,10.8126863 6.38179409,9.65641104 7.712,7.598 C8.62597607,5.70155829 8.85639546,3.56961389 8.36728571,1.535 C8.2778462,1.1053451 7.99832013,0.733517161 7.60053946,0.515067658 C7.2027588,0.296618155 6.72550753,0.252846124 6.29142857,0.395 C4.28734015,1.00972496 2.54572687,2.22748598 1.32728571,3.866 C-0.489285714,6.8135 0.673571429,10.166 1.39485714,10.568 L1.39485714,10.568 Z" id="Path_279"></path>
                    <path d="M1.39485714,10.568 L1.41842857,10.5785 C2.06271429,6.578 6.13271429,2.096 7.65228571,0.545 C7.24821889,0.294563913 6.74465573,0.239058841 6.29142857,0.395 C4.28734015,1.00972496 2.54572687,2.22748598 1.32728571,3.866 C-0.489285714,6.8135 0.673571429,10.166 1.39485714,10.568 L1.39485714,10.568 Z" id="Path_280"></path>
                </g>
                <path d="M157.652124,62.7187251 C159.521159,60.9505212 161.769274,59.7171293 164.191437,59.1310367 C166.727601,58.7789938 169.891529,59.8565883 169.63778,60.7052119 C169.313986,61.7799443 166.020541,63.8235099 163.411688,64.0625353 C161.425449,64.0672655 159.461388,63.6104912 157.652124,62.7230183 L157.652124,62.7187251 Z" id="Path_281" fill="#92C023"></path>
                <path d="M169.794712,62.2669881 L169.794712,62.2669881 C169.61886,62.3828206 169.39691,62.430347 169.180307,62.3985516 C168.963703,62.3667562 168.771252,62.2583995 168.647559,62.0985967 C168.615057,62.0564988 165.609519,57.9174371 171.502056,53.5914609 C171.668784,53.4597929 171.889709,53.3943938 172.112883,53.4106411 C172.336058,53.4268883 172.541792,53.5233485 172.681711,53.6773405 C172.962502,54.0158434 172.889943,54.4891912 172.517286,54.749994 C167.917206,58.1178229 169.97252,61.069725 170.064292,61.1926507 C170.305367,61.5512981 170.194931,62.0127639 169.810007,62.2552007 L169.794712,62.2669881 Z" id="Path_282" fill="#A5A5A5"></path>
                <path d="M182.577389,66.2774086 C182.30414,65.597184 181.959161,64.9465583 181.548022,64.3360355 C178.595364,59.9785255 173.104504,58.6494519 169.28772,61.3750446 C165.470935,64.1006373 164.76934,69.8387969 167.721998,74.1936619 C168.132606,74.7957387 168.605532,75.3549952 169.133315,75.8626081 C167.704549,79.7518055 168.208568,84.0685104 170.497226,87.5439087 C172.489007,90.3840653 175.596337,92.2921727 179.080854,92.8148281 C182.565371,93.3374834 186.115996,92.4280269 188.889035,90.302563 C195.015801,86.0589187 196.716609,77.9002611 192.776249,71.6558587 C190.516528,68.3047487 186.686606,66.2830222 182.577389,66.2721188 L182.577389,66.2774086 Z" id="Path_283" fill="#7CA810"></path>
                <path d="M234.491179,118.868372 C226.48305,118.868372 219.991179,125.360244 219.991179,133.368372 C219.991179,141.376501 226.48305,147.868372 234.491179,147.868372 C242.499308,147.868372 248.991179,141.376501 248.991179,133.368372 C248.990436,125.360551 242.499,118.869115 234.491179,118.868372 L234.491179,118.868372 Z M233.220949,141.252142 C229.705306,141.252142 226.855245,138.402281 226.854997,134.886638 C226.85475,131.370995 229.704409,128.520733 233.220052,128.520238 C236.735695,128.519742 239.586158,131.369201 239.586901,134.884844 C239.586901,138.40088 236.736985,141.251399 233.220949,141.252142 L233.220949,141.252142 Z" id="Path_284" fill="#92C023"></path>
                <path d="M139.573496,133.921383 C133.708879,133.921383 128.42173,137.454143 126.177438,142.872343 C123.933147,148.290542 125.173687,154.527159 129.320597,158.67407 C133.467508,162.82098 139.704125,164.06152 145.122324,161.817229 C150.540524,159.572937 154.073284,154.285788 154.073284,148.421171 C154.073284,140.413159 147.581508,133.921383 139.573496,133.921383 Z M138.301939,156.304826 C134.786522,156.304082 131.937178,153.453935 131.937425,149.938518 C131.937673,146.423102 134.787419,143.573355 138.302836,143.573108 C141.818252,143.57286 144.6684,146.422204 144.669143,149.937621 C144.669143,153.454131 141.818449,156.304826 138.301939,156.304826 L138.301939,156.304826 Z" id="Path_285" fill="#92C023"></path>
                <path d="M249.929244,117.50934 C249.929244,117.50934 260.191203,107.246862 260.676123,103.045117 C260.676123,103.045117 271.94724,116.583434 257.792814,127.804834 L255.154586,129.045117 C255.154586,129.045117 253.765356,120.363138 249.929244,117.50934 Z" id="Path_286" fill="#92C023"></path>
                <polygon id="Path_287" fill="#92C023" points="73.3265105 99.8741313 73.3265105 105.874131 15.3265105 102.874916"></polygon>
                <polygon id="Path_288" fill="#92C023" points="88.2260849 120.897687 88.2260849 126.897687 0.226084937 123.896903"></polygon>
                <polygon id="Path_289" fill="#92C023" points="101.212515 140.604352 101.212515 146.604352 13.2125153 143.605137"></polygon>
                <path d="M94.7351127,89.2943208 C94.7351127,89.2943208 84.1242421,96.0176947 94.7351127,99.9398935 C94.7351127,99.9398935 153.931439,100.493485 196.932154,82.569563 C196.932154,82.569563 255.012636,63.517697 265.069032,55.1127876 C265.069032,55.1127876 273.445455,44.465831 258.925679,45.5854707 L259.415327,39.2745228 C263.336622,38.5704175 267.365492,38.75961 271.20411,39.8281147 C275.922658,41.4072357 276.326789,45.3723378 275.859211,52.7793977 C275.859211,52.7793977 273.617866,86.2800128 246.957588,115.279926 C246.957588,115.279926 240.230796,107.114445 225.779984,113.949921 C225.779984,113.949921 211.573307,122.530596 216.062893,137.530169 C216.062893,137.530169 202.588619,147.857426 161.305119,147.857426 C161.305119,147.857426 162.473376,127.928117 147.674984,125.975322 C147.674984,125.975322 128.98148,122.068347 122.751231,138.479579 C115.849749,134.542462 109.320306,129.982295 103.243947,124.855682 C96.0081964,118.871353 88.5517599,112.22133 83.3559782,104.324341 C81.2277352,101.088597 78.9905284,97.1843897 80.5036084,93.2787987 C82.696678,87.6183213 89.2510595,82.5764829 95.3833785,83.6310755 L94.7351127,89.2943208 Z" id="Path_290" fill="#92C023"></path>
            </g>
        </g>
    </g>
</svg>