<?xml version="1.0" encoding="UTF-8"?>
<svg width="593px" height="434px" viewBox="0 0 593 434" version="1.1" xmlns="http://www.w3.org/2000/svg" xmlns:xlink="http://www.w3.org/1999/xlink">
    <!-- Generator: Sketch 62 (91390) - https://sketch.com -->
    <title>Slice</title>
    <desc>Created with Sketch.</desc>
    <defs>
        <polygon id="path-1" points="95.9080006 212.672347 478.589287 109.942433 431.639983 309.066289 44.3834492 412.580419"></polygon>
        <polygon id="path-3" points="0.731771691 5.31363958 9.52607582 2.15984953e-15 15.3236996 13.5246021 24.6762528 8.11951133 32.6506398 23.2707314 39.0652823 13.5246021 49.5445115 30.1261889 49.5445115 155.63356 0.364183619 128.744073"></polygon>
        <polygon id="path-5" points="0 3.73228296 8.08355822 0 17.9040558 14.1027826 27.7762724 9.94511036 38.7598991 26.1830352 46.0014685 19.8137787 51.7962087 33.7340083 61.1441101 28.1708055 69.1145309 43.7652357 74.6027459 28.1708055 86 53.5457431 86 180 0 131.579696"></polygon>
    </defs>
    <g id="Page-1" stroke="none" stroke-width="1" fill="none" fill-rule="evenodd">
        <g id="Group-9" transform="translate(-7.000000, -57.000000)">
            <path d="M120.833683,250.808426 L509.226774,136.487545 C520.882607,133.056729 533.112751,139.724423 536.543567,151.380256 C537.625522,155.056084 537.728654,158.950761 536.842752,162.678699 L490.986287,355.645905 C489.104906,363.562887 483.007057,369.794768 475.132845,371.847809 L84.4861754,473.701012 C72.7289679,476.766466 60.7128268,469.720407 57.6473731,457.9632 C56.9762867,455.389322 56.7775263,452.715079 57.0607395,450.070274 C57.295599,447.877024 57.4369778,446.634719 57.4848762,446.343358 C57.7998617,444.427331 60.7293112,442.543639 60.848247,442.053781 C69.9074789,404.74174 84.8787232,346.172218 105.76198,266.345215 C107.714401,258.882011 113.433243,252.986696 120.833683,250.808426 Z" id="Rectangle-Copy-19" fill="#E4E4E4" transform="translate(299.713261, 303.737915) rotate(45.000000) translate(-299.713261, -303.737915) "></path>
            <path d="M121.519955,242.169387 L504.166708,132.380804 C515.845754,129.029865 528.029965,135.78113 531.380905,147.460177 C532.4598,151.220458 532.516521,155.200414 531.545221,158.989913 L484.860897,341.127461 C482.89685,348.790134 476.970183,354.808471 469.338556,356.889892 L90.6002405,460.185546 C78.8781315,463.38259 66.7837687,456.471659 63.5867251,444.74955 C62.606786,441.156558 62.5550052,437.373604 63.4362344,433.755136 L106.212121,258.110518 C108.081781,250.433393 113.924884,244.348556 121.519955,242.169387 Z" id="Rectangle-Copy-18" fill="#FAFAFA" transform="translate(297.844514, 295.895667) rotate(45.000000) translate(-297.844514, -295.895667) "></path>
            <path d="M107.96939,186.858872 L127.355054,186.554754 C130.179315,186.510448 132.708918,188.295184 133.614161,190.970804 L133.748551,191.368018 C134.390364,193.26502 133.372833,195.323136 131.475831,195.96495 C131.0791,196.099176 130.662115,196.163656 130.243372,196.15553 L111.584662,195.793446 C109.279859,195.74872 107.171161,194.486589 106.04275,192.476414 L105.398964,191.32956 C104.587471,189.883949 105.101525,188.054204 106.547136,187.242711 C106.981978,186.998613 107.470782,186.866694 107.96939,186.858872 Z" id="Rectangle-Copy-16" fill="#474747" opacity="0.853864397" transform="translate(119.167936, 191.368018) rotate(-30.000000) translate(-119.167936, -191.368018) "></path>
            <g id="Group-2-Copy" transform="translate(39.000000, 37.000000)">
                <mask id="mask-2" fill="white">
                    <use xlink:href="#path-1"></use>
                </mask>
                <use id="Mask" fill="#58C9BE" opacity="0.423711868" transform="translate(261.486368, 261.261426) rotate(45.000000) translate(-261.486368, -261.261426) " xlink:href="#path-1"></use>
                <g id="Group-2" mask="url(#mask-2)" stroke="#FFFFFF">
                    <g transform="translate(28.000000, 148.000000)">
                        <path d="M103.5,54.2776857 C318.166667,147.611019 427.166667,195.611019 430.5,198.277686 C427.166667,195.611019 359.31484,248.051764 226.94452,355.599921 L103.5,54.2776857 Z M52,18.7776857 C80.718807,18.7776857 104,38.2532991 104,62.2776857 C104,86.3020723 80.718807,105.777686 52,105.777686 C23.281193,105.777686 0,86.3020723 0,62.2776857 C0,38.2532991 23.281193,18.7776857 52,18.7776857 Z" id="Combined-Shape" stroke-opacity="0.37" stroke-width="8"></path>
                        <line x1="395.5" y1="106.277686" x2="313.5" y2="142.277686" id="Line-9" stroke-opacity="0.372377622" stroke-width="11" stroke-linecap="square"></line>
                        <path d="M121.5,156.277686 L242.5,75.2776857 M87.5,1.27768573 L245.5,72.2776857 M252,72.7776857 L314,54.7776857 M164.5,132.277686 L366.968511,241" id="Combined-Shape" stroke-opacity="0.372377622" stroke-width="11" stroke-linecap="square"></path>
                    </g>
                </g>
            </g>
            <path d="M403.5,394.777686 C420.518375,394.777686 437.216253,390.19909 447.57467,382.193316 C456.208957,375.520082 460,366.318519 460,356.777686 C460,335.790865 434.704088,318.777686 403.5,318.777686 C372.295912,318.777686 345.232076,335.790865 345.232076,356.777686 C345.232076,367.150681 350.671687,377.920645 360.69004,384.777686 C370.940989,391.793926 387.718918,394.777686 403.5,394.777686 Z" id="Oval-Copy-7" fill="#709E00"></path>
            <ellipse id="Oval-Copy-6" fill="#92C023" cx="403.5" cy="351.777686" rx="56.5" ry="33"></ellipse>
            <g id="Group-3-Copy" transform="translate(380.000000, 328.777686)" fill="#FFFFFF">
                <path d="M3,26 L37,26 L37,26 L37,29 C37,30.6568542 35.6568542,32 34,32 L3,32 C1.34314575,32 2.02906125e-16,30.6568542 0,29 C-2.02906125e-16,27.3431458 1.34314575,26 3,26 Z" id="Rectangle"></path>
                <path d="M31.4535368,-1.91846539e-13 L31.5,-1.91846539e-13 C34.5375661,-1.9240453e-13 37,2.46243388 37,5.5 L37,26.0206672 C37,29.0582333 34.5375661,31.5206672 31.5,31.5206672 L31.2794428,31.5206672 C28.2418767,31.5206672 25.7794428,29.0582333 25.7794428,26.0206672 C25.7794428,26.0051138 25.7795088,25.9895606 25.7796407,25.9740078 L25.9537347,5.45334057 C25.9793496,2.43408899 28.4341766,-1.91291891e-13 31.4535368,-1.91846539e-13 Z" id="Rectangle"></path>
            </g>
            <g id="Group-8-Copy" transform="translate(139.000000, 55.777686)">
                <polygon id="Rectangle-Copy-15" fill="#F87177" transform="translate(74.000000, 155.500000) scale(-1, 1) translate(-74.000000, -155.500000) " points="31 71.6286084 39.0835582 68 48.9040558 81.7110386 60.8451698 74.0741092 69.7598991 93.4557287 77.0014685 87.2633959 82.7962087 100.796953 92.1441101 95.3882831 100.114531 110.549535 106.525983 100.796953 117 114.55349 117 243 31 195.924705"></polygon>
                <g id="Group-4" transform="translate(31.000000, 41.000000)" fill-rule="nonzero">
                    <path d="M39.8574477,17.3807998 L39.9454279,11.8085388 L19.6789771,11.4837096 L19.5909969,17.0583439 C19.5909969,17.0583439 5.00188518,44.1960334 4.89726206,50.6914672 L4.87348485,52.115384 L4.69277066,63.4378958 L3.53909661,135.189063 C3.50908283,137.137623 5.06450224,138.742432 7.01502263,138.774909 L48.5124277,139.439229 C50.4629822,139.469157 52.0694811,137.915282 52.1020479,135.966756 L53.2552823,64.2155883 L53.4383721,52.8930765 L53.4597737,51.4691597 C53.5643969,44.9713527 39.8574477,17.3784266 39.8574477,17.3784266 L39.8574477,17.3807998 Z" id="Path_256" fill="#E2E2E2" transform="translate(28.499733, 75.461470) rotate(-3.000000) translate(-28.499733, -75.461470) "></path>
                    <path d="M33.383316,1.12601974 L33.2530495,11.3486238 L31.2021749,11.3063681 L31.3345113,0.771905991 L29.2836367,0.729650348 L29.1513003,11.2641125 L27.1004257,11.2218568 L27.2327621,0.687394705 L25.1798222,0.645139093 L25.0474858,11.1796012 L22.9966112,11.1373456 L23.1289476,0.60288345 L21.0760076,0.560627837 L20.9436712,11.09509 L18.8927966,11.0528343 L19.020997,0.883087635 C17.2846225,1.67283762 16.1133493,3.75826792 16.0819517,6.11600376 L16.0199188,11.0687338 L36.2353878,11.483366 L36.299486,6.53063588 C36.3282052,4.11738636 35.1570026,1.94676523 33.383316,1.12601974 L33.383316,1.12601974 Z" id="Path_257" fill="#58C9BE" transform="translate(26.159961, 6.021997) rotate(-3.000000) translate(-26.159961, -6.021997) "></path>
                    <path d="M21.2938244,11.9368343 L21.4828972,1.02526007 L20.7656213,1.02527064 C20.0093828,1.01568031 19.257464,1.13253171 18.5458983,1.37022505 L18.3627346,11.9040278 L21.2938242,11.9477842 L21.2938244,11.9368343 Z" id="Path_258" fill="#5BC7E6" transform="translate(19.922816, 6.486254) rotate(-3.000000) translate(-19.922816, -6.486254) "></path>
                    <polygon id="Path_259" fill="#5BC7E6" transform="translate(24.103616, 6.096160) rotate(-3.000000) translate(-24.103616, -6.096160) " points="25.474625 11.5576743 25.6636974 0.678273488 22.7326078 0.634646214 22.5435354 11.5140471"></polygon>
                    <polygon id="Path_260" fill="#5BC7E6" transform="translate(28.500000, 6.021978) rotate(-3.000000) translate(-28.500000, -6.021978) " points="29.8710086 11.4834921 30.060081 0.60409124 27.1289914 0.560463966 26.939919 11.4398648"></polygon>
                    <path d="M33.934,11.4725745 L34.1188925,0.915243245 C33.4608144,0.690975402 32.7669778,0.571047327 32.0662645,0.560451158 L31.1865646,0.560451158 L30.9987351,11.4398649 L33.9105412,11.4834925 L33.934,11.4725745 Z" id="Path_261" fill="#5BC7E6" transform="translate(32.558814, 6.021972) rotate(-3.000000) translate(-32.558814, -6.021972) "></path>
                    <polygon id="Path_262" fill="#4AB4A9" transform="translate(26.940000, 11.483516) rotate(-3.000000) translate(-26.940000, -11.483516) " points="37.8021252 13.0437949 16.0199727 12.7685377 16.0778748 9.92323809 37.8600273 10.1984953"></polygon>
                    <path d="M40.9800069,13.2690964 C40.9745162,13.6299807 40.8336668,13.9736807 40.5886101,14.2241809 C40.3435533,14.4746811 40.0144827,14.6113396 39.6741781,14.6039318 L15.7726532,14.1971925 C15.302756,14.2100479 14.8640429,13.9486984 14.62996,13.516469 C14.3958771,13.0842396 14.4041079,12.5507122 14.6513984,12.1268179 C14.8986889,11.7029237 15.3452294,11.4569027 15.814479,11.4860198 L39.7133923,11.8899897 C40.4220455,11.9036262 40.9864362,12.5231652 40.9747836,13.2746352 L40.9800069,13.2690964 Z" id="Path_263" fill="#BCBEC0" transform="translate(27.720000, 13.043956) rotate(-3.000000) translate(-27.720000, -13.043956) "></path>
                    <polygon id="Path_265" fill="#E6E7E8" transform="translate(28.500000, 87.945055) rotate(-3.000000) translate(-28.500000, -87.945055) " points="51.1262842 112.911735 5.09962549 112.157105 5.87371584 62.9783745 51.9003745 63.7330052"></polygon>
                </g>
                <g id="Group-7" transform="translate(65.000000, 30.000000)" fill-rule="nonzero">
                    <path d="M50.7655731,21.3646476 C52.4594962,15.3490567 55.5838884,11.3119312 61.2010707,11.1603656 L60.4418432,1.56077051 C52.6154737,3.44000909 47.4142436,8.6519267 45.849659,19.8998525 C39.3948357,19.4537032 34.3044527,20.2162536 33.2831804,24.3165718 C32.0986802,29.0782314 38.9372861,28.1382033 46.4191126,30.8168208 C53.9009391,33.4954384 59.1932968,38.7799573 60.3800012,34.0209426 C61.4652419,29.656088 57.0987203,24.8713966 50.7633686,21.364648 L50.7655731,21.3646476 Z" id="Path_238" fill="#92C023" transform="translate(47.174982, 18.748290) rotate(-3.000000) translate(-47.174982, -18.748290) "></path>
                    <path d="M65.4625997,31.8392382 C62.8946819,31.0928548 60.2434026,30.6341412 57.562873,30.4724595 C53.0121611,28.0255856 47.9359551,26.5883176 42.7152443,26.268528 C40.3799451,25.0108119 37.8975134,24.0164881 35.3185288,23.3058159 C22.5334796,19.6855052 10.473561,22.1461224 4.82265705,40.0829238 C-0.828246903,58.0197253 1.62818596,83.5182959 15.1489946,87.3478735 C16.0140772,87.589719 16.8969968,87.7699993 17.7904007,87.8872132 C20.0951041,91.9709905 24.0642354,94.9796884 28.7721121,96.2116171 C33.2493483,97.4820079 38.0835082,96.9143061 42.099915,94.6464603 C43.1188047,95.1539527 44.1863755,95.5682115 45.28816,95.8836228 C59.4000292,99.8782874 75.6098176,79.6625324 81.2582696,61.7210785 C86.9067216,43.7796247 78.2427437,35.4595496 65.4625997,31.8392382 Z" id="Path_268" fill="#CDE64C" transform="translate(42.500655, 59.376748) rotate(-3.000000) translate(-42.500655, -59.376748) "></path>
                </g>
                <g id="Group-5" transform="translate(58.000000, 97.000000)" fill-rule="nonzero">
                    <path d="M30.4617975,17.9252867 C18.9842554,6.34903342 2.92015537,17.2842408 1.66285083,30.390691 C0.772933957,39.7592674 6.26199411,54.7855678 14.9327106,60.6052539 C18.3924312,62.9273946 21.7531466,61.2847342 26.2580614,61.7329514 C30.7629761,62.1811686 33.7515002,64.4604045 37.5834116,62.8630388 C47.18461,58.8624498 55.4649294,45.2094186 56.3548468,35.8384523 C57.6002522,22.732005 43.8909823,8.83570592 30.4498995,17.9205098 L30.4617975,17.9252867 Z" id="Path_250" fill="#F4626C" transform="translate(29.001196, 38.229285) rotate(-3.000000) translate(-29.001196, -38.229285) "></path>
                    <polygon id="Path_251" fill="#A5A5A5" transform="translate(32.134902, 8.308828) rotate(-3.000000) translate(-32.134902, -8.308828) " points="28.2143135 16.1829774 31.5225738 0.43467854 36.0554908 2.62390859 28.2143135 16.1829774"></polygon>
                    <path d="M14.121784,3.58592859 C14.121784,3.58592859 13.1160601,19.697089 29.5075811,19.3234722 C32.2081603,9.47500953 14.121784,3.58592859 14.121784,3.58592859 Z" id="Path_252" fill="#92C023" transform="translate(21.946126, 11.457900) rotate(-3.000000) translate(-21.946126, -11.457900) "></path>
                </g>
                <g id="Line-14" transform="translate(57.000000, 193.000000) scale(-1, 1) translate(-57.000000, -193.000000) translate(32.000000, 115.000000)">
                    <g id="Mask">
                        <g transform="translate(-0.000000, 0.000000)">
                            <mask id="mask-4" fill="white">
                                <use xlink:href="#path-3"></use>
                            </mask>
                            <use fill="#F3939A" transform="translate(24.954348, 77.816780) scale(-1, 1) translate(-24.954348, -77.816780) " xlink:href="#path-3"></use>
                            <line x1="49.5901639" y1="128.128297" x2="25" y2="122.380929" id="Line-16" stroke="#F87177" stroke-linecap="square" mask="url(#mask-4)"></line>
                            <line x1="0.409836066" y1="155.223034" x2="25" y2="122.380929" id="Line-15" stroke="#F87177" stroke-linecap="square" mask="url(#mask-4)"></line>
                            <line x1="25" y1="9.07566556" x2="25" y2="122.380929" id="Line-14" stroke="#F87177" stroke-linecap="square" mask="url(#mask-4)"></line>
                        </g>
                    </g>
                </g>
                <path d="M164.5,97.3750976 L164.5,222.154322 L116.500876,195.752063 L116.865409,72.6078517 L124.894642,67.72716 L130.804184,81.5961544 L134.95439,75.4706823 L143.270276,93.5670901 L156.411186,87.4525206 L164.5,97.3750976 Z" id="Rectangle-Copy-17" stroke="#F3939A" fill="#F87177"></path>
                <g id="Group-6" transform="translate(99.000000, 18.000000)" fill-rule="nonzero">
                    <path d="M57.5289664,2.29368649 C70.7643899,4.73882722 69.0472797,39.4014719 61.2558485,81.1121773 C53.4644172,122.822883 42.5519681,155.786119 29.3165446,153.340979 C16.081121,150.895838 -1.14522268,112.741152 6.64620731,71.0232831 C14.4376373,29.3054139 44.2863325,-0.153843412 57.5289664,2.29368649" id="Path_245" fill="#F2B200" transform="translate(35.997068, 77.810242) rotate(-3.000000) translate(-35.997068, -77.810242) "></path>
                    <path d="M12.6193578,94.1888135 L6.26086957,93.1820773 C6.31729826,92.681257 6.3805668,92.1797087 6.45067518,91.6774325 C12.350039,88.6069963 20.7373953,85.595523 26.9702014,86.5782373 C28.2871443,86.7726283 29.5433119,87.1947839 30.6611512,87.8186411 L28.0679961,90.6837992 C24.6591898,91.2341192 21.142656,91.557323 17.808233,92.3456783 C16.005787,92.7993874 14.2660952,93.4173416 12.6193578,94.1888135 M32.6412855,89.712004 L32.4668695,89.2075439 C32.6053763,89.3473078 32.7387532,89.493623 32.8695652,89.6443059 L32.6412855,89.7098201" id="Path_246" fill="#FEE884" transform="translate(19.565217, 90.288814) rotate(-3.000000) translate(-19.565217, -90.288814) "></path>
                    <path d="M9.20967342,59.2777143 C9.99397093,56.4995835 10.8629459,53.7901564 11.8165982,51.1494331 C17.8853823,49.664384 26.645459,47.6634242 31.7304316,48.6025208 C34.2875721,49.0757081 35.9167789,50.2881505 35.8121799,52.6833576 C25.8940683,52.4052576 17.9059828,55.7421506 9.20967342,59.2777143" id="Path_247" fill="#FAC642" transform="translate(22.513304, 53.819362) rotate(-3.000000) translate(-22.513304, -53.819362) "></path>
                    <path d="M17.220431,38.5892885 C18.4090737,36.294013 19.6365581,34.0880998 20.902884,31.9715489 C21.4294492,31.906576 21.9608673,31.8390013 22.497144,31.8026585 C23.8490971,31.7452897 25.2027135,31.8582067 26.5302459,32.1390949 C30.6896185,32.9700451 35.4364848,35.2403288 35.9952603,38.9751398 C36.1556061,40.0552417 32.6199245,39.5080823 29.5113155,38.8881248 C28.8439716,38.7552766 28.1960417,38.6276369 27.6087763,38.4948026 C27.021511,38.3619683 26.4949161,38.257773 26.0678159,38.1718132 C25.7379452,38.0966146 25.404033,38.0435344 25.0680205,38.0128812 C22.4407363,37.9647455 19.8145027,38.1575832 17.2180043,38.5892881" id="Path_248" fill="#FAC642" transform="translate(26.609262, 35.689181) rotate(-3.000000) translate(-26.609262, -35.689181) "></path>
                    <path d="M54.3734486,87.3600759 L51.1195612,77.3193244 L50.7770293,77.7260099 C51.6260512,75.928162 52.3445105,74.0808276 52.927713,72.1960768 C56.6864958,60.3939845 55.6902042,47.670535 56.754821,35.5183151 C57.6588446,25.2332894 61.6826264,14.9202637 54.0061633,5.54713594 C52.8740245,4.14703359 51.483285,2.93925722 49.8968998,1.97847953 C51.5468079,1.55043683 53.277248,1.4485804 54.9736001,1.67965697 L54.9736001,1.67965697 L55.0073413,1.67966285 C63.2404387,3.08210849 66.1157382,15.1351125 65.464808,33.0413032 C63.6889577,34.3625357 62.4780895,36.2151287 62.0448843,38.2736868 L65.0171019,40.5434148 C63.7931612,53.846397 61.7949745,67.079747 59.0310756,80.1869483 C58.6662942,81.9930555 58.2937235,83.782511 57.9133635,85.5553147 L54.3708511,87.3481823" id="Path_249" fill="#FAC642" transform="translate(57.725218, 44.459582) rotate(-3.000000) translate(-57.725218, -44.459582) "></path>
                </g>
                <g id="Line-17" transform="translate(123.000000, 181.000000) scale(-1, 1) translate(-123.000000, -181.000000) translate(80.000000, 91.000000)">
                    <mask id="mask-6" fill="white">
                        <use xlink:href="#path-5"></use>
                    </mask>
                    <use id="Mask" fill="#F3939A" xlink:href="#path-5"></use>
                    <line x1="85.2181818" y1="52.0640732" x2="85.2181818" y2="180.782609" stroke="#F87177" stroke-linecap="square" mask="url(#mask-6)"></line>
                </g>
                <g id="Group_433" transform="translate(30.800534, 42.767844) rotate(37.000000) translate(-30.800534, -42.767844) translate(18.300534, 30.767844)" fill="#92C023" fill-rule="nonzero">
                    <path d="M24.2752157,23.4170115 C20.6922744,22.8685521 17.4366437,20.8314836 15.1778104,17.724708 L16.5216354,16.4464644 C18.5017247,19.1597448 21.3377589,20.954617 24.4661549,21.4744 L24.2752157,23.4170115 L24.2752157,23.4170115 Z" id="Path_269"></path>
                    <g id="Group_432" transform="translate(0.000000, 0.000000)">
                        <path d="M18.5639594,20.042023 L18.5977967,19.9995034 C20.2079111,14.7342019 18.9535022,8.92036626 15.3639157,5.01136552 C11.9169453,2.07405788 7.68124012,0.476790767 3.32024649,0.469747126 C2.40585591,0.437678993 1.52342346,0.841388413 0.899613416,1.57717737 C0.27580337,2.31296632 -0.0285928615,3.30913084 0.0646128585,4.3097931 C0.416203648,8.90922871 2.1119738,13.260092 4.8985158,16.7122115 C10.0780428,22.1201655 17.4207414,21.3760736 18.5663764,20.042023 L18.5639594,20.042023 Z" id="Path_270"></path>
                        <path d="M18.5639594,20.042023 L18.5977967,19.9995034 C10.7451214,16.5447908 3.45801272,5.52691494 0.983054417,1.48224368 C0.292441051,2.21557831 -0.0472428306,3.26134214 0.0646128585,4.3097931 C0.416203648,8.90922871 2.1119738,13.260092 4.8985158,16.7122115 C10.0780428,22.1201655 17.4207414,21.3760736 18.5663764,20.042023 L18.5639594,20.042023 Z" id="Path_271"></path>
                    </g>
                </g>
                <g id="Group_435" transform="translate(79.017680, 16.749554) rotate(37.000000) translate(-79.017680, -16.749554) translate(64.017680, 8.249554)" fill="#92C023" fill-rule="nonzero">
                    <path d="M0.938732015,13.0546732 C4.32305764,14.0398866 7.93235863,13.602555 11.0238262,11.8326831 L10.2708326,10.1792447 C7.5646152,11.7208018 4.41419263,12.118768 1.4457477,11.2940427 L0.943751973,13.0546732 L0.938732015,13.0546732 Z" id="Path_272"></path>
                    <g id="Group_434" transform="translate(6.583867, 0.000000)">
                        <path d="M0.614751694,12.4651166 L0.599691822,12.4142003 C0.990432973,7.20204701 4.12453286,2.68125946 8.6793131,0.759737274 C12.7669512,-0.376404104 17.0919983,-0.0343189546 20.9782085,1.73250575 C21.8058078,2.07527701 22.4537258,2.78404794 22.7545741,3.67570907 C23.0554224,4.5673702 22.979691,5.55445926 22.5469451,6.38196388 C20.6398943,10.2194707 17.6204439,13.2946737 13.9402283,15.1475993 C7.44942356,17.7202102 1.16443702,14.0756782 0.604711779,12.4677964 L0.614751694,12.4651166 Z" id="Path_273"></path>
                        <path d="M0.614751694,12.4651166 L0.599691822,12.4142003 C8.79477212,12.6259048 19.1132943,6.05234811 22.7226436,3.57085057 C23.0850988,4.48712481 23.0237641,5.53190024 22.5569851,6.39268309 C20.6499343,10.2301899 17.6304838,13.3053929 13.9502683,15.1583186 C7.45946347,17.7309294 1.17447693,14.0863974 0.614751694,12.4785156 L0.614751694,12.4651166 Z" id="Path_274"></path>
                    </g>
                </g>
                <g id="Group_437" transform="translate(188.179557, 89.711846) rotate(37.000000) translate(-188.179557, -89.711846) translate(176.179557, 73.211846)" fill="#92C023" fill-rule="nonzero">
                    <path d="M23.3867444,32.6368736 C23.4318762,28.276 21.6680818,24.0646814 18.4576135,20.8678489 L16.7002481,22.263133 C19.5026085,25.063047 21.0619993,28.7348049 21.0684045,32.5484401 L23.3867444,32.6368736 L23.3867444,32.6368736 Z" id="Path_275"></path>
                    <g id="Group_436" transform="translate(0.000000, 0.000000)">
                        <path d="M20.5340165,25.2821544 L20.478185,25.3140887 C18.882997,26.1861412 8.79609174,25.9994483 3.51336091,19.0328539 C0.155490234,14.611179 0.0863654218,8.14325123 0.503772941,3.9426601 C0.642087146,2.84733637 1.28597382,1.8606851 2.269845,1.23644283 C3.25371618,0.612200555 4.48156254,0.411282852 5.63761956,0.685359606 C10.9668849,1.84504422 15.7457679,4.56950288 19.2578662,8.45031199 C24.6097218,15.5004269 22.3206271,24.1325189 20.5340165,25.2821544 L20.5340165,25.2821544 Z" id="Path_276"></path>
                        <path d="M20.5340165,25.2821544 L20.478185,25.3140887 C17.9418361,15.3972545 6.41128572,4.92525452 2.13352332,1.32158949 C3.12585677,0.613510814 4.42082033,0.377851156 5.62964362,0.685359606 C10.958909,1.84504422 15.737792,4.56950288 19.2498902,8.45031199 C24.6017459,15.5004269 22.3126511,24.1325189 20.5260406,25.2821544 L20.5340165,25.2821544 Z" id="Path_277"></path>
                    </g>
                </g>
                <g id="Group_438" transform="translate(13.823454, 80.241539) rotate(37.000000) translate(-13.823454, -80.241539) translate(6.323454, 67.741539)" fill="#92C023" fill-rule="nonzero">
                    <path d="M1.0741826,24.2355126 C0.796573616,21.1808037 1.71205017,18.1369588 3.63184533,15.7316046 L4.85973792,16.6192 C3.18501507,18.728048 2.37242443,21.3844625 2.58357895,24.0601195 L1.0741826,24.2408276 L1.0741826,24.2355126 Z" id="Path_278"></path>
                    <path d="M2.52191622,18.9312 L2.56213104,18.9498023 C6.86452359,19.3646979 11.0300465,17.3161857 13.2994887,13.6694069 C14.8588081,10.3095807 15.2519228,6.53252667 14.4174608,2.92790805 C14.2648695,2.16671101 13.7879747,1.50796297 13.1093278,1.12094745 C12.4306808,0.733931934 11.6164503,0.656383325 10.8758754,0.908229885 C7.45673344,1.99730582 4.48539595,4.15474911 2.40663373,7.05761839 C-0.692588614,12.2795494 1.29134264,18.2189977 2.52191622,18.9312 L2.52191622,18.9312 Z" id="Path_279"></path>
                    <path d="M2.52191622,18.9312 L2.56213104,18.9498023 C3.6613362,11.8623264 10.6050956,3.9218023 13.1976112,1.17397701 C12.5082395,0.730292542 11.6491187,0.63195712 10.8758754,0.908229885 C7.45673344,1.99730582 4.48539595,4.15474911 2.40663373,7.05761839 C-0.692588614,12.2795494 1.29134264,18.2189977 2.52191622,18.9312 L2.52191622,18.9312 Z" id="Path_280"></path>
                </g>
            </g>
        </g>
    </g>
</svg>