<?xml version="1.0" encoding="UTF-8"?>
<svg width="570px" height="615px" viewBox="0 0 570 615" version="1.1" xmlns="http://www.w3.org/2000/svg" xmlns:xlink="http://www.w3.org/1999/xlink">
    <!-- Generator: Sketch 62 (91390) - https://sketch.com -->
    <title>Slice</title>
    <desc>Created with Sketch.</desc>
    <g id="Page-1" stroke="none" stroke-width="1" fill="none" fill-rule="evenodd">
        <g id="findHome" transform="translate(17.000000, 9.000000)">
            <circle id="Oval" fill="#FFFFFF" fill-rule="nonzero" cx="239" cy="241" r="222"></circle>
            <g id="Group-9">
                <g id="Rectangle" transform="translate(449.297617, 497.748727) rotate(51.000000) translate(-449.297617, -497.748727) translate(327.797617, 461.748727)">
                    <g id="path-1-link" fill="#000000" fill-rule="nonzero">
                        <rect id="path-1" x="0.662211" y="0.162211" width="242" height="71" rx="29"></rect>
                    </g>
                    <g id="path-1-link" fill="#92C022">
                        <rect id="path-1" x="0.662211" y="0.162211" width="242" height="71" rx="29"></rect>
                    </g>
                </g>
                <g id="Rectangle-Copy-19" transform="translate(469.000000, 521.500000) rotate(51.000000) translate(-469.000000, -521.500000) translate(379.000000, 486.000000)">
                    <g id="path-3-link" fill="#000000" fill-rule="nonzero">
                        <path d="M0,0 L151,0 C167.016258,0 180,12.983742 180,29 L180,42 C180,58.016258 167.016258,71 151,71 L0,71 L0,71 L0,0 Z" id="path-3"></path>
                    </g>
                    <g id="path-3-link" fill="#F87177">
                        <path d="M0,0 L151,0 C167.016258,0 180,12.983742 180,29 L180,42 C180,58.016258 167.016258,71 151,71 L0,71 L0,71 L0,0 Z" id="path-3"></path>
                    </g>
                </g>
                <g id="Combined-Shape">
                    <g id="path-5-link" fill="#000000" fill-rule="nonzero">
                        <path d="M240,0 C372.54834,0 480,107.45166 480,240 C480,372.54834 372.54834,480 240,480 C107.45166,480 0,372.54834 0,240 C0,107.45166 107.45166,0 240,0 Z M240,30 C124.020203,30 30,124.020203 30,240 C30,355.979797 124.020203,450 240,450 C355.979797,450 450,355.979797 450,240 C450,124.020203 355.979797,30 240,30 Z" id="path-5"></path>
                    </g>
                    <g id="path-5-link" fill="#F87177">
                        <path d="M240,0 C372.54834,0 480,107.45166 480,240 C480,372.54834 372.54834,480 240,480 C107.45166,480 0,372.54834 0,240 C0,107.45166 107.45166,0 240,0 Z M240,30 C124.020203,30 30,124.020203 30,240 C30,355.979797 124.020203,450 240,450 C355.979797,450 450,355.979797 450,240 C450,124.020203 355.979797,30 240,30 Z" id="path-5"></path>
                    </g>
                </g>
                <g id="shoppingBasket" transform="translate(106.000000, 123.000000)" fill-rule="nonzero">
                    <g id="Group_428" transform="translate(172.000000, 0.000000)" fill="#92C023">
                        <g id="Group_413" transform="translate(9.577557, 26.656642)">
                            <polygon id="Rectangle_222" transform="translate(18.167742, 31.585465) rotate(-63.447000) translate(-18.167742, -31.585465) " points="-14.150596 27.7743241 50.4804227 27.8226603 50.4860808 35.3966069 -14.144938 35.3482707"></polygon>
                        </g>
                        <g id="Group_414" transform="translate(8.492903, 36.623092)">
                            <path d="M6.68129032,55.1896441 L0,51.6143979 C8.40258065,35.9714077 17.2567742,11.3980293 10.6322581,5.74924324 L15.5535484,0 C29.12,11.5680338 10.5393548,47.9979384 6.68129032,55.1896441 Z" id="Path_208"></path>
                        </g>
                        <g id="Group_415" transform="translate(0.000000, 11.671067)">
                            <path d="M4.46451613,22.9300015 C10.1858065,30.4230788 19.2077419,33.1611817 24.6167742,29.045012 C30.0258065,24.9288423 29.7780645,15.5219264 24.0464516,8.0288491 C18.3148387,0.535771772 9.30064516,-2.20233108 3.89419355,1.91383859 C-1.51225806,6.03000826 -1.26967742,15.4369242 4.46451613,22.9300015 Z" id="Path_209"></path>
                        </g>
                        <g id="Group_416" transform="translate(8.446452, 47.956725)">
                            <path d="M0,40.5022853 C3.44,33.1045135 21.4787097,-3.59585285 38.8929032,0.288492492 L37.2412903,7.66823348 C28.7251613,5.76984985 14.3587097,27.5870946 6.87483871,43.6885818 L0,40.5022853 Z" id="Path_210"></path>
                        </g>
                        <g id="Group_417" transform="translate(43.716129, 38.081009)">
                            <path d="M17.0090323,24.5811059 C7.56903226,24.5089827 -0.0412903226,18.9529264 0.0100615983,12.1630495 C0.0619354839,5.37317267 7.75225806,-0.0695472973 17.1922581,2.16840434e-19 C26.6322581,0.0695472973 34.2425806,5.63075526 34.1886747,12.4180563 C34.1341935,19.2053574 26.436129,24.6506532 17.0090323,24.5811059 Z" id="Path_211"></path>
                        </g>
                        <g id="Group_418" transform="translate(35.378065, 0.000000)">
                            <path d="M24.4283871,21.7142117 C20.2090323,30.1423138 11.8554839,34.5134902 5.77548387,31.4817432 C-0.304516129,28.4499962 -1.81677419,19.1564167 2.40258065,10.7257387 C6.62193548,2.29506081 14.9729032,-2.07353979 21.0554839,0.960783033 C27.1380645,3.99510586 28.6374194,13.2886854 24.4283871,21.7142117 Z" id="Path_212"></path>
                        </g>
                    </g>
                    <g id="Group_429" transform="translate(149.000000, 73.000000)" fill="#58C9BE">
                        <path d="M109.805201,55.8009861 C109.781939,55.8241683 109.756093,55.8241683 109.732832,55.8473504 C108.505718,56.7255243 107.035785,57.2033355 105.52511,57.2150976 C105.473231,57.4071515 105.411112,57.5963117 105.339019,57.7817725 C107.991965,60.6242893 108.017967,65.0182307 105.398849,67.8917349 C102.77973,70.765239 98.3885667,71.1604295 95.295279,68.8010235 C94.917928,68.9658743 94.540577,69.1281494 94.1373801,69.2723939 C93.9047108,71.3381614 92.8062353,73.2095033 91.1134028,74.4239839 C89.5056194,75.5890966 87.4992635,76.0699689 85.5357169,75.7608129 C83.5721702,75.451657 81.8122789,74.3777977 80.6432045,72.7754751 C79.7152273,71.4847499 79.2187569,69.9355213 79.2242614,68.3476835 C79.1053699,68.2781371 78.9658018,68.229197 78.8469104,68.1596505 C78.6814962,68.3245014 78.4928207,68.4893523 78.3041452,68.6542031 C78.204077,68.7457399 78.092943,68.8244801 77.9733169,68.8886005 C74.9793095,71.1360588 70.7773875,70.8230898 68.1518523,68.1570747 C68.058625,68.0692868 67.9722233,67.9745685 67.8933927,67.8737373 C66.7032794,66.5241775 66.0335915,64.7967699 66.004053,63.0003331 C66.0010927,62.5820896 66.0322101,62.164297 66.0970985,61.7510726 C66.3875374,59.9568461 67.3294406,58.3315455 68.7437247,57.184188 C65.8956735,57.47883 63.1280249,56.1306329 61.6117163,53.7099919 C60.0954076,51.289351 60.0954076,48.2192636 61.6117163,45.7986227 C63.1280249,43.3779818 65.8956735,42.0297847 68.7437247,42.3244267 C66.1294578,40.1869905 65.279964,36.5670384 66.6719242,33.495853 C68.0638844,30.4246677 71.3508118,28.6667291 74.6882955,29.2084785 C76.4903695,29.4979784 78.1268826,30.4264163 79.2966301,31.8229105 C79.0508958,29.2782406 80.1330306,26.785998 82.1625277,25.2225199 C84.1920249,23.6590418 86.8847411,23.2432257 89.2938472,24.1212834 C89.3764103,24.1519706 89.4552942,24.1917102 89.5290455,24.23977 C90.8345888,24.7417168 91.9671203,25.6083461 92.7908056,26.7357153 C93.8713615,28.2009687 94.3677816,30.0137535 94.1839028,31.8229105 C96.3411276,29.2490542 99.9551445,28.4234691 103.021884,29.8039645 C106.088623,31.1844598 107.85629,34.4326143 107.344665,37.747239 C107.063505,39.5392484 106.129539,41.1651425 104.721301,42.3141235 C106.509339,42.1457117 108.297832,42.630906 109.753509,43.6792948 C110.42354,44.1296643 111.007369,44.6958036 111.477434,45.3509858 C112.649563,46.9565805 113.132033,48.9611874 112.818262,50.9219774 C112.504492,52.8827674 111.420304,54.6383784 109.805201,55.8009861 L109.805201,55.8009861 Z" id="Path_213"></path>
                        <polygon id="Path_214" points="79.0872778 63.0054847 79.0407551 63.1935178 78.0224242 68.6516274 77.9759015 68.8860247 71.3825972 101.456952 43.122625 101.456952 36.7205808 69.87513 35.7978801 65.0712723 35.7978801 65.0455144 35.420529 62.9848784"></polygon>
                        <path d="M83.6025669,43.3908058 C96.7840063,46.9222207 86.2000859,65.1974863 76.5595429,55.5871951 C78.7303623,57.3931247 79.7135333,60.2521831 79.1105391,63.0054847 C79.0993568,63.07198 79.075681,63.1357744 79.0407551,63.1935178 C78.3392359,65.2841794 76.8100665,66.9978308 74.8085361,67.9363198 C72.8070056,68.8748088 70.5073635,68.9564325 68.4439116,68.1622263 C68.2526515,68.0694977 68.0872374,67.9767691 67.8985619,67.8788889 C66.1642879,66.7550786 64.9291564,65.0105758 64.4481263,63.0054847 C64.3954886,62.8848138 64.3564799,62.7586833 64.3318194,62.6294186 C64.3550808,62.7710874 64.4016035,62.8869981 64.4248649,63.0054847 C65.2164539,65.1677819 64.8965136,67.5792477 63.5682223,69.4622028 C62.2399311,71.3451578 60.07133,72.4613908 57.7617765,72.450925 L57.6092854,72.450925 C57.2303738,72.4710395 56.8503986,72.4546501 56.4746477,72.4019849 L56.4255404,72.4019849 C54.189477,72.299943 52.1349905,71.1454419 50.8901704,69.2914309 C49.6453502,67.43742 49.3582132,65.1043526 50.1165417,63.0054847 C50.1373424,62.8778364 50.1684588,62.7520718 50.2095871,62.6294186 C50.185289,62.7587727 50.146268,62.8849432 50.0932803,63.0054847 C49.522007,65.7146252 47.4788461,67.8780915 44.8000278,68.6104146 C41.5296598,69.1961557 38.2207691,67.8019399 36.3639066,65.0558175 C35.951302,64.4209338 35.6408469,63.7256575 35.4437904,62.9951815 C34.8322678,60.2413957 35.8169335,57.3779906 37.9947866,55.5768919 C28.3309823,65.1871831 17.7677386,46.9119176 30.9310859,43.3805026 C17.7677386,46.9119176 17.7677386,25.8110049 30.9310859,29.3192377 C28.0327005,28.8356761 25.6852566,26.7087199 24.9270694,23.8791587 C23.5804949,17.8028583 31.0241313,10.2274452 37.9947866,17.1434548 C28.3309823,7.53573943 46.691952,-3.03789904 50.2121717,10.1012312 C48.5580303,3.97856653 52.2927715,0.68412473 56.415202,0.32866502 L56.4643093,0.32866502 C56.8394971,0.270077611 57.219383,0.246792889 57.598947,0.259118555 L57.7410997,0.259118555 C61.9927601,0.4935159 66.0350682,3.76735134 64.3085581,10.1012312 C67.8520391,-3.03532325 86.1897475,7.52543625 76.5492045,17.1434548 C83.5922285,10.1244134 91.1521717,17.9908913 89.544553,24.113556 C89.544553,24.1624961 89.5212917,24.1856783 89.4954457,24.2320426 C88.6265085,26.8885127 86.3529076,28.8469685 83.5896439,29.3192377 C96.7840063,25.8213081 96.7840063,46.9222207 83.6025669,43.3908058 Z" id="Path_215"></path>
                        <path d="M51.2098258,45.3793195 C49.6535779,43.2451459 47.0810226,42.0901155 44.4459381,42.3424572 C37.9800578,39.6191166 33.4433435,33.6887521 32.5206124,26.7537459 C30.6588932,29.7442671 27.5561449,31.7517657 24.0574753,32.2294512 C20.5588058,32.7071368 17.0286171,31.6052563 14.4284407,29.2239333 C11.1011415,28.7121039 7.83965858,30.4740337 6.45400101,33.5319134 C5.06834344,36.5897931 5.89854382,40.193236 8.48386995,42.3424572 C5.62618588,42.0281601 2.83992784,43.3705983 1.31217293,45.79783 C-0.21558198,48.2250616 -0.21558198,51.309311 1.31217293,53.7365427 C2.83992784,56.1637743 5.62618588,57.5062125 8.48386995,57.1919154 C6.27598645,58.927971 5.2290398,61.7496774 5.77246888,64.4996209 C6.31589795,67.2495644 8.35824411,69.4649319 11.0617733,70.2370191 C13.7653026,71.0091063 16.6750133,70.2079717 18.5973939,68.1622263 C18.7240391,68.229197 18.8558535,68.2884403 18.9876679,68.3528351 C19.0551614,72.2494741 22.117271,75.4395894 26.0203871,75.6795439 C29.9235032,75.9194985 33.3558258,73.1286459 33.9033712,69.2698182 C34.2936452,69.1255736 34.67875,68.9761775 35.0638548,68.8061751 C38.1577595,71.1450334 42.5317715,70.7416004 45.1424164,67.8765882 C47.7530614,65.011576 47.7357057,60.6338635 45.1024255,57.7894998 C45.1644558,57.598891 45.2316553,57.4160096 45.2885164,57.2254007 C48.0814117,57.1782047 50.6162663,55.5871605 51.8654666,53.0972674 C53.1146669,50.6073743 52.8709384,47.6317694 51.2330871,45.3767437 L51.2098258,45.3793195 Z" id="Path_216"></path>
                    </g>
                    <g id="Group_430" transform="translate(59.000000, 38.000000)" fill="#92C023">
                        <path d="M9.28248276,54.1069048 L0,54.1069048 L0,14.9442857 C0.00866676113,6.69437492 6.69857202,0.00866133082 14.9536552,7.44378104e-14 L22.1710345,7.44378104e-14 C30.4261176,0.00866133082 37.1160229,6.69437492 37.1246897,14.9442857 L27.8422069,14.9442857 C27.8378763,11.8159406 25.301341,9.28099457 22.1710345,9.27666667 L14.9536552,9.27666667 C11.8227508,9.27955448 9.28537238,11.8153431 9.28248276,14.9442857 L9.28248276,54.1069048 Z" id="Path_217"></path>
                    </g>
                    <path d="M75.2829077,144.722292 L75.2829077,144.722292 C68.5388422,143.488005 63.4691832,138.34471 64.0445186,133.031798 L70.5692858,78.6422961 C71.194088,74.2673038 73.5894395,70.3521102 77.1816681,67.8343803 C80.7738966,65.3166504 85.2394708,64.4231418 89.5089126,65.3678445 L89.5089126,65.3678445 C93.835465,65.9990685 97.7075307,68.4219231 100.197415,72.0559253 C102.6873,75.6899275 103.570657,80.2076418 102.635846,84.5266854 L89.8623697,137.760185 C88.5569003,142.947842 82.0243931,145.961797 75.2829077,144.722292 Z" id="Path_232" fill="#FFD453"></path>
                    <path d="M49.7163459,144.722294 L49.7163459,144.722294 C56.4608575,143.488016 61.5308519,138.344756 60.9554785,133.031881 L54.4354399,78.6427553 C53.810671,74.2672292 51.4147862,70.3515752 47.8217162,67.8337826 C44.2286462,65.31599 39.7620811,64.4228799 35.4919799,65.3683956 L35.4919799,65.3683956 C31.1651413,65.9996152 27.2928194,68.422453 24.8027699,72.05643 C22.3127204,75.6904071 21.4293049,80.2080902 22.3641777,84.5271039 L35.1384994,137.760235 C36.4440552,142.947856 42.9744144,145.961791 49.7163459,144.722294 Z" id="Path_233" fill="#FFD453"></path>
                    <path d="M63.501307,145 L63.501307,145 C56.5650384,145 50.5998996,140.892593 50.2239784,135.599809 L47.0103741,81.3571842 C46.8508431,76.9747127 48.5370812,72.723907 51.6650658,69.6232598 C54.7930503,66.5226126 59.080922,64.8515199 63.501307,65.0103755 L63.501307,65.0103755 C67.9212473,64.8522566 72.2084219,66.5236749 75.3358256,69.6242372 C78.4632294,72.7247995 80.149117,76.9751787 79.9896293,81.3571842 L76.776025,135.599809 C76.3974932,140.892593 70.4245228,145 63.501307,145 Z" id="Path_234" fill="#FFD453"></path>
                    <rect id="Rectangle_230" fill="#F4626C" x="124" y="18" width="21" height="142" rx="3.946"></rect>
                    <path d="M258,120 L234.448213,230.446847 C233.882849,233.101634 231.536918,235 228.820978,235 L38.2254854,235 C35.4901586,235 33.1333955,233.074492 32.5905062,230.395253 L9,121.890913 L258,120 Z" id="Path_235" fill="#EF8690"></path>
                    <rect id="Rectangle_231" fill="#F4626C" transform="translate(134.500000, 117.000000) rotate(180.000000) translate(-134.500000, -117.000000) " x="0" y="102" width="269" height="30" rx="3.536"></rect>
                    <circle id="Ellipse_66" fill="#F0707D" cx="133.5" cy="116.5" r="25.5"></circle>
                    <path d="M126,116 C126,120.417922 129.581166,123.999496 133.999088,124 C138.41701,124.000504 141.998992,120.419746 142,116.001824 C142.001007,111.583903 138.420658,108.001511 134.002737,108 C129.584016,108 126.001511,111.581279 126,116 Z" id="Path_236" fill="#8AE3DA"></path>
                </g>
                <circle id="Oval-Copy-5" stroke="#757575" stroke-width="11" fill="#E0E4EF" fill-rule="nonzero" opacity="0.233235677" cx="240.5" cy="240.5" r="205.5"></circle>
                <path d="M96.6713893,139.016323 C128.295478,94.5253555 180.258082,65.5 239,65.5 C255.527472,65.5 271.518307,67.7975958 286.670475,72.0909676 C323.702642,82.5840441 355.725089,104.998067 378.329302,134.923606 C400.341158,164.064928 413.421606,200.329564 413.499617,239.644661 C412.249106,238.470695 410.735892,236.659122 408.60239,234.108933 C394.895179,217.724614 355.868636,171.07626 281.201131,138.268884 C231.936337,116.62294 161.519155,129.729117 123.141052,136.889779 C112.696541,138.838537 104.637232,140.345058 100.045359,140.574125 C98.3051988,140.660933 97.0855764,140.591254 96.4912788,140.224838 C96.2758837,139.650012 96.4248954,139.363108 96.6713893,139.016323 Z" id="Oval-Copy-6" stroke="#E0E4EF" fill="#E0E4EF" fill-rule="nonzero" opacity="0.288457961"></path>
            </g>
        </g>
    </g>
</svg>