<?xml version="1.0" encoding="UTF-8"?>
<svg width="189px" height="244px" viewBox="0 0 189 244" version="1.1" xmlns="http://www.w3.org/2000/svg" xmlns:xlink="http://www.w3.org/1999/xlink">
    <!-- Generator: Sketch 62 (91390) - https://sketch.com -->
    <title>Slice</title>
    <desc>Created with Sketch.</desc>
    <g id="Page-1" stroke="none" stroke-width="1" fill="none" fill-rule="evenodd">
        <g id="Group" transform="translate(10.000000, 9.000000)">
            <ellipse id="Oval" fill="#E1E1E1" cx="65.4584278" cy="211.5" rx="47" ry="13.5"></ellipse>
            <path d="M93.0624278,66 L108.506428,66 C110.052804,70.9693397 111.923282,74.1777414 114.117862,75.6252049 C120.684415,79.9562606 128.204209,82.2200607 134.873428,85.0259306 C139.795561,87.0967676 140.994333,94.93704 133.383158,95.1943594 C130.728757,95.2840997 126.284944,93.7106341 121.825428,92.7049261 C113.497822,90.8268882 104.931369,89.4536862 102.709237,86.98 C101.03234,85.1132728 97.8167374,78.1199395 93.0624278,66 Z" id="Rectangle" fill="#F8E0CC"></path>
            <polygon id="Rectangle" fill="#F8E0CC" points="42.9479432 194 56.0113277 194.23903 53.7474278 205.586 42.2661879 205.528"></polygon>
            <polygon id="Rectangle-Copy-12" fill="#F8E0CC" points="69.1401832 194 82.2035676 194.23903 79.9396678 205.586 68.4584278 205.528"></polygon>
            <path d="M42.5661775,113 L68.7289278,111.56051 C67.026286,129.74263 65.4535831,143.68646 64.0108192,153.392 C62.5680553,163.09754 59.9055915,177.643873 56.0234278,197.031 L41.8254278,197.221 C42.6367703,181.901769 43.0874369,169.126308 43.1774278,158.894616 C43.2674187,148.662923 43.0636686,133.364718 42.5661775,113 Z" id="Rectangle" fill="#F4626C"></path>
            <path d="M68.1504278,111.56051 L96.9624278,107.387728 C93.5261193,128.644696 91.0865831,144.12595 89.6438192,153.83149 C88.2010553,163.53703 85.7232581,178.0002 82.2104278,197.221 L67.4584278,197.66049 C68.2697703,182.341259 68.7204369,169.565798 68.8104278,159.334105 C68.9004187,149.102413 68.6804187,133.177881 68.1504278,111.56051 Z" id="Rectangle-Copy-7" fill="#F4626C"></path>
            <path d="M61.8754278,36.4569533 C62.4305786,36.4569533 66.734365,36.0064832 67.7714278,33.7040928 C69.303632,30.3024355 67.6517671,24.579882 68.3855688,24.3152748 C73.0843579,22.620902 76.4584278,17.970897 76.4584278,12.5 C76.4584278,5.59644063 71.0858448,0 64.4584278,0 C57.8310108,0 52.4584278,5.59644063 52.4584278,12.5 C52.4584278,15.5086528 53.9456105,16.7019714 54.8479278,19.775 C54.8992196,19.9496848 54.2022035,30.3278843 55.1788583,33.7040928 C56.026712,36.6350472 60.2991504,36.4569533 61.8754278,36.4569533 Z" id="Oval" fill="#F8E0CC"></path>
            <path d="M9.94420341,63.2366958 L27.9446818,63.2635026 L24.7374061,70.2145514 C22.599166,91.7931832 21.1589193,105.424702 20.4166661,111.109107 C20.0947545,113.574405 20.4688649,115.101565 20.0243708,116.298788 C18.9315148,119.242342 16.8010168,119.224136 15.7145637,119.20073 C14.2846985,119.169926 11.4233005,118.864602 10.8292164,111.709616 C9.98541978,101.547163 7.35237602,87.7395231 8.1479087,70.7634486 C8.23802775,68.8403752 8.83679265,66.3314576 9.94420341,63.2366958 Z" id="Rectangle" fill="#F8E0CC" transform="translate(17.972341, 91.220735) rotate(16.000000) translate(-17.972341, -91.220735) "></path>
            <path d="M32.3528232,42.9068359 C39.5692263,36.2962801 47.1774278,32.2687398 55.1774278,30.8242151 C63.1774278,29.3796905 71.9421861,29.8034905 81.4717028,32.0956153 C88.2945268,34.1396896 92.9629185,36.7273625 95.4768778,39.8586338 C101.346297,47.1693103 106.064147,56.2481884 109.630428,67.0952681 L92.7624278,67.0952681 L104.458428,107 L41.8254278,119 L36.0320153,68.593519 L16.8194278,62.9976186 C19.4499815,58.1180593 21.6355996,54.5525866 23.376282,52.3012004 C25.1169644,50.0498142 28.1091448,46.9183594 32.3528232,42.9068359 Z" id="Rectangle" fill="#92C023"></path>
            <text id="grocereasy" transform="translate(65.458428, 59.000000) rotate(-9.000000) translate(-65.458428, -59.000000) " font-family="Lato-Heavy, Lato" font-size="10" font-weight="600" letter-spacing="-0.110497251" fill="#FFFFFF">
                <tspan x="41.4584278" y="63">grocereasy</tspan>
            </text>
            <path d="M42.2661879,205 L53.9301887,205 L53.2194278,208.353 C56.9542606,208.434602 59.2786213,209.099335 60.1925099,210.3472 C61.1063985,211.595066 60.5853268,212.836742 58.6292949,214.072229 L41.8264278,213.051 L42.2661879,205 Z" id="Rectangle" fill="#222222"></path>
            <path d="M68.3981879,205 L80.0621887,205 L79.3514278,208.353 C83.0862606,208.434602 85.4106213,209.099335 86.3245099,210.3472 C87.2383985,211.595066 86.7173268,212.836742 84.7612949,214.072229 L67.9584278,213.051 L68.3981879,205 Z" id="Rectangle-Copy-13" fill="#222222"></path>
            <path d="M65.9604278,8.38294999 C64.3624237,5.37591793 60.1813674,4.75795146 57.1651049,4.75795146 C53.2991117,4.75795146 52.0203364,9.16084918 52.2129601,13.020898 C52.344619,15.6592537 54.146478,19.8641531 55.2423293,19.775 C56.8320364,19.6456692 58.7244285,16.8510809 60.7362419,14.6049026 C58.1025044,13.7507363 58.5173707,11.1293665 59.6000999,10.424115 C61.2077625,9.37694042 63.8654278,10.0673443 63.4138003,13.186706 C63.2504401,14.3150238 65.6237396,13.8838642 65.7381183,13.7507363 C66.5212467,12.8392349 66.0486648,8.54898919 65.9604278,8.38294999 Z" id="Oval" fill="#222222"></path>
            <path d="M75.4584278,9 C76.1797173,9 79.9832704,8.98760492 83.5891774,9 C86.1965813,9.00896279 88.7203518,9.22031264 90.0332778,8.663 C90.629539,8.40989824 90.9644278,7.83194932 90.9644278,7.2965 C90.9644278,6.72671523 90.5403993,6.16313322 89.7680383,5.93 C88.3092251,5.48966468 85.7116051,5.72046731 83.1112419,5.74673482 C79.0059615,5.78820421 74.794419,5.8398205 74.7178047,5.74673482 C71.987376,2.42928814 69.1314131,0 64.4584278,0 C58.3832956,0 53.0314278,3.95943725 53.0314278,8.93 C59.5880869,8.93 71.3754278,9 75.4584278,9 Z" id="Oval" fill="#92C023"></path>
            <path d="" id="Path" stroke="#979797"></path>
            <g id="shoppingBasket-Copy" transform="translate(102.458428, 91.000000)" fill-rule="nonzero">
                <g id="Group_428" transform="translate(43.000000, 0.000000)" fill="#92C023">
                    <g id="Group_413" transform="translate(2.319276, 6.348336)">
                        <polygon id="Rectangle_222" transform="translate(4.399453, 7.522146) rotate(-63.447000) translate(-4.399453, -7.522146) " points="-3.32919875 6.55053901 12.1146229 6.66571853 12.1281053 8.4937528 -3.31571629 8.37857329"></polygon>
                    </g>
                    <g id="Group_414" transform="translate(2.056619, 8.721867)">
                        <path d="M1.61792391,13.1435313 L0,12.2920788 C2.0347471,8.56666738 4.17885561,2.71446496 2.57467999,1.36919453 L3.76640687,0 C7.05162356,2.75495189 2.55218279,11.4308113 1.61792391,13.1435313 Z" id="Path_208"></path>
                    </g>
                    <g id="Group_415" transform="translate(0.000000, 2.779489)">
                        <path d="M1.08111563,5.46082871 C2.46656843,7.24532104 4.65129689,7.89740607 5.96113409,6.91713149 C7.27097129,5.93685692 7.21097875,3.69657985 5.82302626,1.91208752 C4.43507377,0.127595189 2.25222007,-0.524489839 0.943007794,0.455784738 C-0.366204485,1.43605931 -0.307461786,3.67633638 1.08111563,5.46082871 Z" id="Path_209"></path>
                    </g>
                    <g id="Group_416" transform="translate(2.045371, 11.420996)">
                        <path d="M0,9.64570554 C0.833021464,7.88391043 5.20122854,-0.856360018 9.41820441,0.0687051018 L9.01825412,1.82620614 C6.95601044,1.37410204 3.47706784,6.56992536 1.66479308,10.4045288 L0,9.64570554 Z" id="Path_210"></path>
                    </g>
                    <g id="Group_417" transform="translate(10.586184, 9.069073)">
                        <path d="M4.11886307,5.85404273 C1.83289719,5.83686646 -0.00999875726,4.51367981 0.00243649052,2.89665617 C0.0149981359,1.27963252 1.87726667,-0.016562837 4.16323255,1.08420217e-19 C6.44919843,0.016562837 8.29209438,1.34097636 8.27904066,2.95738657 C8.26584764,4.57379677 6.40170433,5.87060557 4.11886307,5.85404273 Z" id="Path_211"></path>
                    </g>
                    <g id="Group_418" transform="translate(8.567060, 0.000000)">
                        <path d="M5.91551476,5.17128578 C4.89376675,7.17845626 2.87089318,8.21946124 1.39857617,7.49744423 C-0.0737408348,6.77542722 -0.439945319,4.56214144 0.581802688,2.55435753 C1.6035507,0.546573622 3.62579935,-0.493817919 5.09874128,0.228812526 C6.57168321,0.951442972 6.93476308,3.16472875 5.91551476,5.17128578 Z" id="Path_212"></path>
                    </g>
                </g>
                <g id="Group_429" transform="translate(36.000000, 17.000000)">
                    <path d="M27.2083683,13.6767123 C27.2026045,13.6823942 27.1962001,13.6823942 27.1904363,13.6880761 C26.8863725,13.9033148 26.5221413,14.0204254 26.1478148,14.0233082 C26.1349599,14.0703803 26.1195677,14.1167431 26.1017038,14.1621991 C26.7590709,14.8588944 26.7655141,15.9358409 26.1165289,16.6401311 C25.4675436,17.3444213 24.3794678,17.4412817 23.6129895,16.8629959 C23.5194866,16.9034006 23.4259837,16.9431739 23.3260765,16.9785279 C23.2684239,17.4848435 22.9962353,17.9435057 22.5767724,18.2411725 C22.1783836,18.5267394 21.6812334,18.6446002 21.1946909,18.5688267 C20.7081484,18.4930532 20.2720691,18.2298524 19.982387,17.8371263 C19.7524457,17.520772 19.6294265,17.1410591 19.6307904,16.7518832 C19.6013306,16.7348375 19.5667473,16.7228424 19.5372875,16.7057967 C19.4962999,16.7462013 19.4495485,16.7866059 19.402797,16.8270106 C19.3780014,16.849446 19.3504638,16.8687451 19.3208219,16.8844609 C18.5789439,17.4353085 17.5377597,17.3586004 16.8871846,16.7051654 C16.8640841,16.6836487 16.8426748,16.6604335 16.8231415,16.6357199 C16.5282462,16.3049455 16.3623059,15.8815612 16.3549866,15.4412581 C16.3542531,15.3387475 16.3619636,15.2363473 16.3780421,15.1350668 C16.4500093,14.6953054 16.6834012,14.2969474 17.0338433,14.0157324 C16.3281315,14.0879485 15.6423425,13.7575081 15.26662,13.1642137 C14.8908975,12.5709194 14.8908975,11.818447 15.26662,11.2251526 C15.6423425,10.6318583 16.3281315,10.3014178 17.0338433,10.373634 C16.3860603,9.84975258 16.1755663,8.96250941 16.5204768,8.2097679 C16.8653873,7.4570264 17.6798472,7.02615909 18.5068343,7.15894082 C18.9533659,7.22989668 19.3588736,7.45745497 19.6487225,7.79973296 C19.5878326,7.17603936 19.8559722,6.56519558 20.3588564,6.18199016 C20.8617407,5.79878474 21.5289624,5.69686904 22.125909,5.91207927 C22.1463672,5.91960063 22.1659136,5.92934072 22.1841883,5.9411201 C22.5076857,6.06414628 22.788313,6.27655542 22.992412,6.55287141 C23.2601604,6.91200213 23.3831671,7.35631214 23.3376042,7.79973296 C23.8721378,7.16888582 24.7676464,6.96653655 25.5275465,7.30489326 C26.2874465,7.64324996 26.7254524,8.43936625 26.5986782,9.25177426 C26.5290101,9.69099225 26.297585,10.0894957 25.9486408,10.3711087 C26.3916947,10.3298313 26.834861,10.4487515 27.1955597,10.7057095 C27.3615852,10.8160942 27.5062508,10.9548538 27.6227271,11.1154377 C27.9131661,11.5089658 28.0327161,12.000291 27.9549677,12.4808768 C27.8772193,12.9614626 27.6085709,13.3917594 27.2083683,13.6767123 L27.2083683,13.6767123 Z" id="Path_213" fill="#FFD453"></path>
                    <polygon id="Path_214" fill="#58C9BE" points="19.5968476 15.4425208 19.5853198 15.4886073 19.3329901 16.8263793 19.3214623 16.8838296 17.6877232 24.8669001 10.6852522 24.8669001 9.09890498 17.1262573 8.87027116 15.9488413 8.87027116 15.942528 8.77676826 15.4374702"></polygon>
                    <path d="M20.7156803,10.6350014 C23.9818777,11.5005443 21.3593133,15.979776 18.9705062,13.6243125 C19.5084084,14.0669423 19.752026,14.7676919 19.6026115,15.4425208 C19.5998406,15.4588186 19.5939741,15.4744545 19.5853198,15.4886073 C19.4114921,16.0010244 19.0325828,16.421037 18.5366284,16.6510588 C18.040674,16.8810806 17.4708511,16.9010864 16.9595533,16.706428 C16.9121614,16.6837004 16.8711739,16.6609728 16.8244224,16.6369826 C16.3946908,16.3615389 16.0886405,15.9339647 15.9694472,15.4425208 C15.9564042,15.4129446 15.9467384,15.3820302 15.9406278,15.3503477 C15.9463917,15.3850704 15.9579195,15.4134799 15.9636833,15.4425208 C16.1598293,15.9724956 16.080552,16.5635411 15.7514179,17.0250497 C15.4222838,17.4865583 14.8849313,17.7601448 14.3126526,17.7575797 L14.2748672,17.7575797 C14.1809776,17.7625097 14.0868244,17.7584927 13.993718,17.7455845 L13.9815498,17.7455845 C13.427481,17.7205743 12.9184047,17.4376083 12.6099537,16.9831939 C12.3015027,16.5287794 12.2303537,15.9569492 12.4182581,15.4425208 C12.4234123,15.4112344 12.4311225,15.3804097 12.4413136,15.3503477 C12.4352929,15.3820521 12.4256239,15.4129763 12.4124942,15.4425208 C12.2709398,16.1065258 11.7646698,16.6367871 11.1008918,16.8162781 C10.2905352,16.9598421 9.47063305,16.6181225 9.01052552,15.9450533 C8.90828722,15.7894446 8.83136029,15.6190337 8.78253214,15.4399955 C8.63100441,14.765048 8.87499237,14.063233 9.41463739,13.6217872 C7.02006642,15.9772508 4.4026255,11.498019 7.66433986,10.6324761 C4.4026255,11.498019 4.4026255,6.3262267 7.66433986,7.18608768 C6.94615587,7.06756768 6.36448836,6.54625487 6.17661898,5.85273497 C5.8429545,4.36344566 7.68739537,2.50672676 9.41463739,4.20182715 C7.02006642,1.84699496 11.5696872,-0.744583099 12.4419541,2.47579197 C12.0320783,0.975138856 12.9575009,0.16767763 13.9789881,0.080555152 L13.9911563,0.080555152 C14.0841232,0.0661954928 14.1782542,0.0604884531 14.2723054,0.0635094498 L14.3075291,0.0635094498 C15.3610379,0.120959779 16.3626718,0.923370427 15.9348639,2.47579197 C16.8128947,-0.743951776 21.3567516,1.84446967 18.9679445,4.20182715 C20.7131186,2.48147387 22.5863788,4.40953219 22.1880308,5.9101853 C22.1880308,5.92218043 22.182267,5.92786233 22.1758627,5.93922613 C21.9605508,6.59032175 21.3971807,7.07033541 20.7124781,7.18608768 C23.9818777,6.32875199 23.9818777,11.5005443 20.7156803,10.6350014 Z" id="Path_215" fill="#FFD453"></path>
                    <path d="M12.6891604,11.1223822 C12.3035414,10.5993005 11.6660941,10.3162048 11.0131528,10.3780532 C9.41098777,9.7105678 8.28684618,8.25704707 8.05820484,6.55729066 C7.59689388,7.29026156 6.82807131,7.78229551 5.96114433,7.89937531 C5.09421736,8.01645511 4.21948034,7.74638636 3.57518884,7.16272875 C2.75072532,7.03728036 1.94257027,7.46912591 1.59922149,8.21860622 C1.25587271,8.96808654 1.46158608,9.85128333 2.10219786,10.3780532 C1.39409916,10.3010196 0.703698935,10.6300486 0.325140196,11.2249583 C-0.0534185437,11.819868 -0.0534185437,12.5758115 0.325140196,13.1707212 C0.703698935,13.765631 1.39409916,14.0946599 2.10219786,14.0176263 C1.55511169,14.4431302 1.29569128,15.1347249 1.43034627,15.8087306 C1.56500126,16.4827364 2.07106934,17.0257186 2.74097038,17.2149557 C3.41087143,17.4041927 4.13186169,17.2078362 4.60820381,16.706428 C4.63958492,16.7228424 4.67224689,16.7373628 4.70490887,16.7531459 C4.72163292,17.7082044 5.48038572,18.4900954 6.44752954,18.5489078 C7.41467335,18.6077202 8.26516036,17.9236877 8.40083534,16.9778966 C8.4975404,16.9425426 8.5929646,16.9059259 8.6883888,16.8642586 C9.45502005,17.4375082 10.538846,17.3386275 11.1857315,16.6364187 C11.832617,15.9342098 11.8283164,14.861241 11.1758222,14.1640931 C11.1911926,14.1173752 11.2078438,14.0725514 11.2219333,14.0258335 C11.9139781,14.0142658 12.5420837,13.6243041 12.85162,13.0140361 C13.1611564,12.4037682 13.1007635,11.6744533 12.6949242,11.1217509 L12.6891604,11.1223822 Z" id="Path_216" fill="#FFD453"></path>
                </g>
                <g id="Group_430" transform="translate(15.000000, 9.000000)" fill="#92C023">
                    <path d="M2.44275862,12.7889048 L0,12.7889048 L0,3.53228571 C0.00228072661,1.5823068 1.76278211,0.00204722365 3.93517241,1.75943916e-14 L5.83448276,1.75943916e-14 C8.00687306,0.00204722365 9.76737445,1.5823068 9.76965517,3.53228571 L7.32689655,3.53228571 C7.32575692,2.79285868 6.65824762,2.19368962 5.83448276,2.19266667 L3.93517241,2.19266667 C3.11125022,2.19334924 2.44351905,2.79271746 2.44275862,3.53228571 L2.44275862,12.7889048 Z" id="Path_217"></path>
                </g>
                <path d="M17.8930532,34.9340443 L17.8930532,34.9340443 C16.1638057,34.6409013 14.8638931,33.4193686 15.011415,32.157552 L16.6844323,19.2400453 C16.8446379,18.2009847 17.4588306,17.2711262 18.3799149,16.6731653 C19.3009991,16.0752045 20.4460182,15.8629962 21.5407468,16.0873631 L21.5407468,16.0873631 C22.6501192,16.2372788 23.6429566,16.8127067 24.2813886,17.6757822 C24.9198206,18.5388578 25.1463224,19.6118149 24.9066273,20.6375878 L21.6313769,33.280544 C21.2966411,34.5126125 19.6216393,35.2284269 17.8930532,34.9340443 Z" id="Path_232" fill="#FFD453"></path>
                <path d="M12.1067554,34.9340448 L12.1067554,34.9340448 C13.8361173,34.6409038 15.1361159,33.4193795 14.9885842,32.1575717 L13.3167795,19.2401544 C13.1565823,18.2009669 12.5422529,17.2709991 11.6209529,16.6730234 C10.6996529,16.0750476 9.55437976,15.862934 8.45948204,16.0874939 L8.45948204,16.0874939 C7.35003623,16.2374086 6.35713319,16.8128326 5.71865895,17.6759021 C5.08018472,18.5389717 4.85366792,19.6119214 5.09337889,20.6376872 L8.36884601,33.2805559 C8.7036039,34.5126158 10.378055,35.2284253 12.1067554,34.9340448 Z" id="Path_233" fill="#FFD453"></path>
                <path d="M15.0003168,35 L15.0003168,35 C13.3187972,35 11.8727029,34.0244907 11.7815705,32.7674545 L11.0025149,19.8848312 C10.9638408,18.8439943 11.3726257,17.8344279 12.130925,17.0980242 C12.8892243,16.3616205 13.9287084,15.964736 15.0003168,16.0024642 L15.0003168,16.0024642 C16.0718175,15.9649109 17.1111326,16.3618728 17.8692911,17.0982563 C18.6274495,17.8346399 19.0361496,18.844105 18.9974859,19.8848312 L18.2184303,32.7674545 C18.126665,34.0244907 16.6786722,35 15.0003168,35 Z" id="Path_234" fill="#FFD453"></path>
                <rect id="Rectangle_230" fill="#0AAA9B" x="30" y="4" width="5" height="35" rx="2.5"></rect>
                <path d="M63,29 L57.2302852,55.8914063 C57.0917824,56.5377891 56.5170764,57 55.8517255,57 L9.15965707,57 C8.48955692,57 7.91219729,56.5311806 7.77920032,55.8788443 L2,29.4603962 L63,29 Z" id="Path_235" fill="#58C9BE"></path>
                <rect id="Rectangle_231" fill="#0AAA9B" transform="translate(33.000000, 28.500000) rotate(180.000000) translate(-33.000000, -28.500000) " x="0" y="25" width="66" height="7" rx="3.5"></rect>
                <circle id="Ellipse_66" fill="#58C9BE" cx="33" cy="29" r="6"></circle>
                <path d="M31,28.5 C31,29.3283604 31.8952916,29.9999056 32.999772,30 C34.1042524,30.0000944 34.9997481,29.3287024 35,28.500342 C35.0002518,27.6719817 34.1051646,27.0002834 33.0006842,27 C31.896004,27 31.0003778,27.6714899 31,28.5 Z" id="Path_236" fill="#8AE3DA"></path>
            </g>
        </g>
    </g>
</svg>