<?xml version="1.0" standalone="no"?>
<!DOCTYPE svg PUBLIC "-//W3C//DTD SVG 20010904//EN"
 "http://www.w3.org/TR/2001/REC-SVG-20010904/DTD/svg10.dtd">
<svg version="1.0" xmlns="http://www.w3.org/2000/svg"
 width="1592.000000pt" height="1592.000000pt" viewBox="0 0 1592.000000 1592.000000"
 preserveAspectRatio="xMidYMid meet">
<metadata>
Created by potrace 1.11, written by Peter Selinger 2001-2013
</metadata>
<g transform="translate(0.000000,1592.000000) scale(0.100000,-0.100000)"
fill="#000000" stroke="none">
<path d="M9198 12652 c-25 -15 -66 -72 -52 -72 3 0 2 -6 -3 -12 -11 -15 -10
-200 1 -268 26 -160 96 -276 218 -358 26 -18 49 -32 51 -32 3 0 21 -7 41 -15
20 -8 38 -16 41 -16 2 0 26 -6 52 -13 27 -7 73 -14 103 -15 30 -2 58 -8 62
-14 13 -20 39 -116 43 -159 5 -49 8 -52 46 -54 l29 -1 -4 57 c-2 31 -9 67 -15
79 -7 11 -9 21 -6 21 2 0 -5 24 -16 53 -17 42 -19 58 -10 82 22 63 36 233 22
260 -3 6 -6 18 -7 28 -1 9 -3 19 -4 22 -1 3 -3 8 -4 13 -25 106 -102 215 -216
304 -72 56 -252 129 -314 127 -17 0 -43 -8 -58 -17z"/>
<path d="M12101 12343 c5 -21 9 -40 9 -43 0 -3 -30 -6 -68 -8 -74 -3 -85 -5
-157 -16 -27 -5 -54 -12 -60 -16 -5 -3 -28 -12 -50 -18 -68 -20 -190 -98 -269
-174 -42 -40 -76 -78 -76 -85 0 -7 -4 -13 -10 -13 -5 0 -17 -15 -26 -32 -9
-18 -20 -35 -23 -38 -17 -14 -74 -154 -85 -212 -4 -16 -9 -40 -13 -55 -8 -37
-8 -218 0 -267 17 -95 25 -119 71 -216 50 -107 135 -210 237 -287 51 -39 139
-90 169 -98 3 -1 17 -7 31 -13 83 -34 152 -45 284 -45 137 0 246 26 362 88 94
50 92 48 183 135 65 61 120 130 120 150 0 4 4 10 9 12 16 6 72 139 92 221 21
83 29 237 16 307 -21 115 -65 226 -126 320 -36 55 -174 200 -191 200 -4 0 -28
18 -52 40 -23 22 -47 40 -53 40 -5 0 10 18 35 40 l45 40 -77 -5 c-73 -5 -77
-4 -83 17 -14 43 -26 51 -49 30 -12 -10 -33 -26 -49 -35 -26 -17 -28 -17 -47
1 -11 10 -33 25 -48 33 -15 8 -31 20 -35 26 -16 26 -25 12 -16 -24z"/>
<path d="M4729 11646 c-2 -2 -28 -6 -57 -9 -72 -8 -137 -41 -197 -102 -73 -75
-97 -115 -110 -187 -7 -35 -10 -37 -52 -44 -24 -3 -66 -4 -92 0 -44 6 -49 4
-59 -19 -11 -23 -9 -25 21 -33 18 -5 68 -7 111 -5 44 1 82 -1 85 -5 3 -4 35
-21 71 -37 54 -24 81 -29 157 -32 108 -3 163 11 238 61 113 75 218 205 218
270 0 38 -27 79 -63 93 -52 21 -86 32 -124 38 -51 9 -142 15 -147 11z"/>
<path d="M14367 11499 c-80 -19 -187 -67 -260 -117 -25 -18 -48 -32 -52 -32
-4 0 -12 -6 -19 -12 -7 -7 -28 -24 -46 -38 -111 -84 -370 -343 -370 -370 0 -6
-4 -10 -8 -10 -5 0 -21 -18 -38 -40 -16 -23 -37 -51 -48 -63 -10 -12 -26 -33
-34 -47 -9 -14 -22 -29 -29 -33 -7 -4 -13 -14 -13 -21 0 -7 -10 -25 -23 -39
-28 -34 -139 -210 -185 -297 -47 -87 -135 -263 -138 -275 -2 -5 -26 -64 -54
-130 -48 -112 -147 -392 -156 -442 -2 -12 -9 -35 -15 -50 -6 -16 -10 -29 -10
-30 7 -24 -4 -29 -66 -29 -113 -1 -197 -24 -275 -76 -30 -21 -38 -22 -38 -7 0
5 5 7 12 3 8 -5 9 -2 5 9 -3 9 -2 16 3 14 9 -2 90 108 90 123 0 6 4 10 9 10 5
0 20 17 32 38 13 20 40 61 61 89 21 29 38 55 38 58 0 5 11 20 38 50 16 18 8
35 -17 35 -10 0 -21 3 -24 6 -4 4 -31 17 -61 29 l-55 22 -20 -76 c-11 -42 -37
-143 -58 -226 l-37 -150 -8 55 c-5 30 -20 80 -35 110 -28 57 -137 175 -185
199 -16 8 -28 18 -28 23 0 4 -6 8 -14 8 -8 0 -16 3 -18 8 -4 9 -149 84 -154
79 -12 -12 0 -135 21 -203 11 -37 11 -44 0 -44 -8 0 -16 4 -19 9 -3 4 -20 12
-38 16 -18 4 -37 9 -43 10 -102 29 -229 25 -335 -12 -25 -8 -51 -16 -57 -17
-7 -1 -42 -21 -77 -43 l-64 -41 70 136 c38 76 80 153 91 172 12 19 20 35 18
35 -1 0 3 12 10 28 7 15 17 27 22 27 6 0 8 3 5 6 -3 3 11 36 32 74 l38 70 -31
14 c-37 17 -175 66 -185 66 -4 0 -8 -17 -8 -38 -1 -20 -4 -57 -8 -82 -3 -25
-8 -70 -11 -100 -2 -30 -7 -71 -11 -90 -3 -19 -8 -53 -10 -75 -15 -159 -23
-202 -25 -137 -1 18 -2 35 -4 40 -1 4 -5 25 -10 47 -29 143 -138 263 -297 329
-24 10 -52 22 -63 27 -11 5 -32 11 -47 13 -15 3 -32 7 -37 10 -5 4 -39 9 -75
12 l-67 6 22 -58 c34 -94 96 -218 143 -289 25 -36 41 -65 38 -66 -4 0 -32 -2
-62 -4 -80 -5 -125 -13 -173 -31 -54 -20 -117 -53 -139 -72 -10 -8 -18 -12
-18 -7 0 22 -142 -110 -209 -195 -42 -54 -131 -221 -131 -247 0 -11 -8 -10
-37 3 -114 49 -221 59 -320 32 -35 -9 -63 -14 -64 -10 -1 4 -3 27 -5 52 -2 25
-9 59 -15 77 -9 29 -7 37 16 68 15 19 31 35 35 35 4 0 15 11 24 25 13 20 14
29 4 44 -14 24 -47 14 -83 -25 -25 -27 -45 -25 -45 5 0 10 -3 21 -7 25 -4 3
-8 14 -9 23 -2 10 -8 26 -13 38 -6 11 -22 49 -35 85 -13 36 -35 88 -47 115
-13 28 -22 53 -21 58 1 4 -3 7 -8 7 -5 0 -9 3 -8 8 2 9 -6 27 -59 141 -23 51
-43 95 -43 97 0 2 -20 45 -45 96 -25 51 -45 98 -45 105 0 7 -4 13 -9 13 -4 0
-17 21 -27 48 -17 43 -19 55 -15 81 0 5 15 11 31 15 21 4 30 11 30 25 0 34
-12 51 -35 51 -14 0 -25 7 -28 19 -6 25 4 39 25 35 10 -1 20 2 23 6 3 5 6 73
6 152 1 149 -5 178 -48 217 -26 24 -64 45 -88 48 -60 8 -516 10 -521 2 -3 -5
-10 -7 -15 -4 -5 4 -9 1 -9 -5 0 -6 -4 -9 -10 -5 -10 6 -55 -40 -75 -78 -6
-13 -13 -64 -15 -113 -1 -49 -3 -110 -4 -136 -2 -58 4 -73 28 -73 15 0 20 -7
21 -27 2 -21 -3 -28 -16 -28 -32 0 -49 -12 -49 -35 0 -25 24 -50 39 -41 11 7
25 -12 26 -34 0 -8 -15 -43 -32 -78 -96 -184 -163 -320 -163 -330 0 -7 -4 -12
-9 -12 -5 0 -13 -10 -16 -21 -4 -12 -28 -67 -55 -123 -80 -171 -110 -237 -110
-242 0 -3 -9 -24 -19 -47 -25 -56 -70 -182 -83 -232 -10 -41 -12 -109 -23
-760 -4 -209 -8 -456 -10 -550 -2 -93 -4 -195 -4 -225 l-1 -55 -22 30 c-11 17
-45 50 -75 75 -30 25 -60 51 -68 58 -7 6 -21 12 -29 12 -9 0 -16 4 -16 8 0 10
-99 56 -184 86 -55 20 -60 24 -63 54 -7 56 -30 97 -87 153 -63 62 -83 79 -91
79 -4 0 -21 10 -38 23 -18 13 -50 32 -72 43 -67 32 -69 36 -40 96 35 72 87
148 103 148 6 0 12 4 12 9 0 22 169 95 208 90 25 -4 32 3 28 29 -3 15 -8 63
-12 107 -8 92 -12 137 -13 146 -2 11 -67 -3 -131 -28 -8 -4 -17 -7 -20 -7 -3
-1 -32 -15 -65 -31 -87 -42 -192 -150 -239 -246 -20 -41 -39 -84 -41 -95 -2
-10 -4 -20 -5 -21 -2 -2 -3 -6 -5 -10 -1 -5 -5 -20 -9 -34 -6 -22 -13 -52 -15
-70 -1 -3 -45 -5 -98 -4 -166 2 -275 -27 -330 -85 l-28 -30 -58 16 c-141 37
-330 39 -444 5 -81 -24 -171 -80 -248 -155 -43 -42 -136 -170 -139 -191 -1 -7
-9 -23 -17 -36 -33 -53 -97 -232 -113 -319 -3 -14 -8 -36 -11 -50 -8 -32 -32
-171 -34 -190 0 -8 -3 -28 -5 -45 -2 -16 -4 -42 -5 -57 -1 -16 -5 -28 -9 -28
-4 0 -7 24 -5 53 4 60 15 386 17 497 0 45 -3 74 -9 74 -5 -1 -37 -5 -70 -8
-68 -7 -126 -15 -170 -23 -16 -3 -39 -5 -50 -5 -11 1 -38 2 -60 3 -140 7 -308
-46 -451 -143 -54 -36 -196 -174 -236 -228 -40 -55 -105 -182 -119 -231 -15
-57 -19 -146 -8 -200 5 -24 11 -53 13 -64 5 -26 35 -99 61 -150 65 -120 80
-145 87 -145 4 0 8 -5 8 -11 0 -13 122 -188 184 -264 23 -27 48 -58 56 -68
135 -167 383 -417 600 -607 34 -30 68 -60 74 -65 6 -6 40 -35 76 -65 36 -30
67 -57 70 -60 3 -3 30 -25 60 -50 30 -24 66 -54 80 -67 14 -12 63 -53 110 -90
47 -37 87 -71 88 -75 2 -5 10 -8 17 -8 7 0 15 -3 17 -8 1 -4 50 -42 108 -85
58 -43 112 -84 120 -90 8 -7 85 -58 170 -115 85 -56 164 -109 175 -117 11 -9
30 -18 42 -21 12 -3 24 -12 27 -20 3 -8 12 -14 19 -14 8 0 25 -8 38 -18 22
-17 80 -52 148 -88 27 -14 41 -10 41 12 0 17 87 189 110 218 8 10 21 24 28 32
7 8 11 14 8 14 -9 0 43 59 113 128 60 59 183 152 200 152 5 0 14 7 21 15 7 8
21 15 31 15 11 0 19 5 19 10 0 6 6 10 13 10 7 0 32 9 54 20 90 43 250 82 403
96 147 14 312 7 470 -21 147 -26 295 -94 384 -178 20 -19 36 -32 36 -29 0 2
10 -8 22 -24 13 -16 31 -38 41 -49 11 -11 30 -36 43 -57 13 -20 28 -39 34 -43
6 -3 8 -10 5 -15 -3 -4 2 -13 10 -20 8 -7 15 -16 15 -21 0 -4 13 -36 29 -71
43 -93 66 -162 89 -268 19 -87 24 -115 38 -220 3 -19 6 -84 9 -145 2 -60 4
-113 4 -116 2 -10 540 1 741 16 41 3 113 8 160 10 88 6 165 13 165 15 0 0 25
3 55 5 53 3 123 10 212 21 24 3 59 7 78 9 19 2 49 6 65 8 17 3 50 8 75 11 25
3 54 8 65 10 24 4 111 17 145 22 14 1 39 6 55 9 101 20 224 45 250 49 17 3 45
10 63 15 18 5 35 10 37 10 3 1 6 1 8 2 9 3 45 11 62 13 11 2 20 4 20 5 0 3 34
11 60 15 11 2 27 6 35 9 17 7 159 48 175 51 6 1 35 11 65 21 30 11 58 18 63
17 4 -1 7 3 7 10 0 6 3 9 6 5 5 -5 71 16 129 43 11 5 63 27 115 49 124 54 266
135 263 152 -1 8 -9 43 -17 79 -44 196 -37 381 20 565 16 50 94 225 104 235 4
3 17 23 30 44 69 114 198 255 328 358 138 109 361 194 592 224 127 17 325 2
415 -30 88 -32 157 -61 161 -68 3 -4 19 -14 37 -23 18 -8 52 -33 77 -55 25
-22 49 -40 54 -40 5 0 17 10 28 23 11 12 36 40 56 63 20 23 48 54 61 70 13 16
38 45 54 64 73 87 90 108 120 146 18 22 43 56 57 74 14 18 30 38 35 44 6 6 26
34 45 61 19 28 38 52 42 53 4 2 8 10 8 18 0 8 4 14 9 14 5 0 13 9 16 20 3 11
12 26 19 32 28 29 266 399 266 415 0 3 6 14 14 22 7 9 35 57 61 106 27 50 53
93 59 97 6 4 7 8 2 8 -5 0 -4 6 2 13 16 20 189 368 197 397 0 3 12 28 25 55
13 28 25 55 26 61 1 6 13 35 27 65 45 97 190 495 185 509 -1 3 4 15 11 28 7
13 14 31 17 40 2 9 22 80 45 157 22 77 42 149 45 160 2 11 6 29 9 40 37 160
55 234 59 255 3 14 7 35 10 46 5 23 16 87 21 119 2 11 8 47 14 80 6 33 13 82
17 109 3 26 7 65 10 85 3 20 7 124 9 231 4 197 -7 290 -44 384 -17 41 -81 120
-116 142 -85 52 -211 88 -355 101 -36 3 -72 7 -80 8 -8 2 -23 4 -34 4 -12 1
-16 6 -12 16 3 8 2 15 -2 16 -22 3 -339 5 -348 2 -6 -2 -12 -32 -14 -66 -1
-34 -4 -78 -5 -97 -1 -19 -6 -102 -10 -185 -4 -82 -9 -170 -10 -195 -2 -25 -6
-105 -10 -179 -7 -144 -13 -160 -69 -177 -11 -3 -29 -13 -39 -22 -17 -15 -18
-14 -13 14 3 16 7 49 11 74 6 51 12 97 20 156 8 60 21 182 30 289 5 57 14 197
19 283 2 40 6 76 10 79 3 3 1 14 -4 24 -6 10 -7 20 -3 22 13 8 4 322 -13 464
-4 37 -8 75 -9 83 -6 70 -48 213 -85 293 -29 61 -100 140 -146 162 -61 29
-133 33 -217 14z m-8946 -3821 c-1 -29 -1 -62 -1 -73 0 -11 0 -51 0 -90 l-1
-70 -65 -40 c-127 -78 -214 -190 -216 -278 0 -25 3 -51 7 -58 6 -11 5 -11 -4
-3 -7 6 -14 18 -15 25 -2 8 -6 21 -9 29 -11 29 8 124 29 141 8 6 14 17 14 25
0 7 35 48 78 91 66 66 92 90 142 123 4 3 11 37 15 75 5 39 9 75 10 80 1 6 3
25 3 43 3 53 13 36 13 -20z m4519 -233 c0 -2 -9 -9 -19 -15 -14 -7 -22 -7 -27
2 -4 6 -3 8 2 5 6 -3 16 -2 24 4 17 10 20 11 20 4z m-4233 -220 c0 -8 -4 -15
-9 -15 -10 0 -11 14 -1 23 9 10 10 9 10 -8z m-1 -89 c-1 -19 -4 -32 -9 -29 -8
5 -6 63 3 63 4 0 6 -15 6 -34z"/>
<path d="M5234 10417 c-1 -61 -11 -146 -25 -217 -12 -60 -13 -62 -28 -44 -9
11 -34 33 -56 49 -22 17 -44 35 -50 41 -14 15 -111 84 -119 84 -7 0 36 -74 46
-78 4 -2 8 -7 8 -12 0 -9 53 -131 71 -163 12 -21 2 -41 -14 -30 -7 5 -33 9
-59 8 -27 0 -48 2 -48 5 0 3 -8 6 -17 7 -31 1 -105 13 -112 18 -4 2 -23 7 -42
10 -32 5 -30 3 26 -34 33 -22 65 -45 72 -51 7 -5 33 -21 59 -35 l47 -25 -44
-20 c-110 -52 -171 -101 -221 -180 -36 -57 -71 -140 -83 -200 -10 -45 -15
-272 -7 -285 6 -10 10 -23 16 -55 6 -36 58 -150 68 -150 4 0 8 -6 8 -12 0 -15
81 -101 129 -138 18 -14 44 -35 59 -48 67 -56 247 -131 382 -158 46 -9 265
-10 310 -1 19 4 44 9 55 11 79 16 247 85 260 106 4 6 11 8 16 5 5 -4 9 -1 9 4
0 6 7 11 15 11 7 0 19 8 24 18 6 9 11 13 11 7 0 -7 3 -7 8 0 4 6 30 28 57 49
270 212 404 542 361 889 -8 68 -52 225 -68 244 -6 7 -7 13 -2 13 5 0 3 4 -4 8
-7 5 -14 18 -16 29 -5 25 -69 117 -101 147 -56 52 -78 67 -132 95 -244 123
-559 94 -725 -68 -21 -20 -38 -43 -38 -51 -1 -25 -16 7 -56 121 -20 57 -39
107 -43 111 -4 4 -7 -11 -7 -35z"/>
<path d="M3438 10055 c-20 -6 -43 -19 -51 -27 -16 -15 -38 -83 -31 -91 3 -2 6
-17 9 -33 9 -69 27 -134 37 -134 6 0 9 -3 5 -6 -5 -6 21 -60 58 -125 41 -67
114 -125 210 -164 62 -25 83 -29 180 -30 76 0 118 -5 135 -15 14 -8 27 -15 30
-15 3 -1 16 -6 30 -12 82 -36 112 -37 117 -2 3 23 -1 28 -29 34 -40 9 -35 8
-83 28 -59 26 -74 44 -66 75 8 29 7 121 -2 162 -11 55 -31 110 -39 110 -5 0
-7 4 -4 9 4 5 2 11 -2 13 -4 1 -22 23 -39 48 -54 79 -237 168 -360 175 -28 2
-55 5 -60 8 -4 3 -25 -1 -45 -8z"/>
<path d="M4135 8753 c-97 -39 -201 -133 -238 -213 -27 -60 -33 -203 -11 -257
15 -34 15 -55 -1 -123 -7 -33 -9 -89 -4 -95 3 -2 14 -2 26 1 16 5 21 12 19 32
-2 15 2 46 9 69 7 23 10 44 7 47 -3 4 6 7 19 7 110 6 159 28 235 104 47 47 71
92 79 150 1 6 5 18 9 27 8 18 3 165 -8 208 -7 31 -44 60 -76 59 -14 0 -43 -7
-65 -16z"/>
<path d="M4066 6813 c-1 -1 -69 -5 -151 -8 -83 -3 -190 -7 -240 -10 -89 -4
-169 -8 -460 -22 -82 -3 -183 -7 -222 -7 -40 -1 -73 -3 -73 -6 0 -3 -39 -5
-88 -4 -48 0 -95 -4 -104 -8 -10 -5 -19 -4 -23 2 -4 6 -11 8 -17 4 -5 -3 -49
-8 -96 -9 -113 -4 -370 -16 -447 -20 -33 -2 -127 -6 -210 -10 -82 -3 -184 -7
-225 -9 -77 -4 -281 -14 -450 -22 -52 -2 -129 -6 -170 -8 -41 -2 -94 -4 -117
-5 -75 -2 -46 -16 35 -17 158 -3 319 -11 330 -18 6 -3 13 -2 17 4 4 6 12 7 18
3 6 -4 43 -8 82 -9 68 -1 295 -11 465 -19 47 -3 139 -7 205 -10 66 -2 161 -7
210 -9 50 -3 151 -8 225 -11 74 -3 176 -8 225 -10 50 -3 146 -8 215 -11 69 -3
184 -8 255 -11 72 -3 172 -7 222 -7 51 -1 93 -3 93 -6 0 -3 47 -5 105 -5 58 0
105 -2 105 -5 0 -3 43 -5 96 -5 53 0 97 -2 99 -5 2 -3 47 -5 102 -5 l98 0 0
150 0 150 -53 0 c-29 0 -54 -1 -56 -2z"/>
<path d="M15111 6603 c-16 -45 -68 -133 -111 -189 -16 -21 -40 -52 -53 -68
-12 -17 -31 -40 -42 -52 -11 -12 -45 -50 -75 -85 -30 -35 -124 -132 -208 -216
l-154 -153 33 -27 c17 -16 35 -30 39 -33 14 -11 88 -128 117 -185 38 -76 69
-163 103 -290 31 -112 27 -110 116 -69 29 13 58 24 63 24 6 0 11 4 11 8 0 4
12 15 28 24 15 9 40 28 55 42 15 14 33 26 38 26 6 0 8 3 6 8 -3 4 9 18 26 31
105 80 233 294 262 436 5 22 10 47 12 55 8 35 3 235 -7 260 -1 3 -2 8 -1 12 0
3 -9 35 -20 70 -12 35 -22 68 -24 73 -9 39 -64 148 -107 213 -15 24 -28 46
-28 49 0 3 -8 13 -18 22 -10 9 -21 24 -25 34 -10 27 -22 20 -36 -20z"/>
<path d="M13547 5844 c-3 -3 -22 -8 -43 -10 -133 -13 -276 -66 -394 -148 -57
-39 -178 -159 -210 -208 -14 -21 -29 -38 -33 -38 -5 0 -6 -4 -3 -9 3 -5 -3
-19 -13 -32 -23 -31 -72 -154 -86 -218 -3 -12 -7 -31 -10 -43 -5 -20 -16 -126
-17 -153 0 -12 12 -155 15 -175 2 -8 5 -19 9 -25 3 -5 9 -26 13 -45 7 -37 72
-191 83 -200 4 -3 14 -17 22 -31 43 -76 144 -181 235 -243 33 -22 62 -41 65
-41 3 -1 32 -14 65 -30 91 -42 152 -62 220 -68 17 -2 35 -6 40 -9 13 -7 190
-2 235 6 136 26 283 87 369 154 19 15 44 32 55 39 12 7 17 12 13 13 -4 0 9 14
29 32 115 101 229 320 250 483 8 56 11 238 5 250 -3 6 -6 17 -6 25 -1 28 -28
125 -42 153 -7 15 -12 27 -9 27 7 0 -71 148 -84 160 -3 3 -17 21 -30 40 -60
85 -187 192 -290 243 -62 30 -135 61 -135 57 0 0 -24 7 -54 15 -29 9 -80 17
-112 18 -32 1 -59 4 -59 7 0 8 -48 5 -57 -3 -3 -4 -11 -2 -18 3 -7 5 -15 7
-18 4z m73 -588 c39 -6 122 -53 166 -94 95 -87 140 -234 110 -361 -10 -44 -39
-111 -47 -111 -5 0 -9 -6 -9 -12 -1 -27 -136 -140 -165 -138 -3 0 -20 -6 -39
-14 -51 -21 -176 -18 -238 6 -112 42 -186 119 -228 235 -12 34 -20 69 -17 78
4 8 3 15 -2 15 -4 0 -4 30 1 68 10 77 47 162 92 210 32 34 112 93 131 96 5 1
20 7 31 14 12 6 24 9 27 6 3 -3 13 -1 23 4 16 9 105 8 164 -2z"/>
<path d="M5108 5575 c-3 -3 -113 -7 -583 -20 -178 -5 -489 -14 -670 -20 -71
-3 -224 -7 -339 -10 -115 -3 -211 -7 -214 -10 -3 -3 -11 0 -19 6 -7 6 -13 8
-13 3 0 -5 -46 -10 -103 -11 -123 -2 -502 -12 -502 -13 0 -1 -76 -3 -170 -5
-317 -8 -413 -13 -424 -19 -6 -4 -11 -2 -11 5 0 8 -4 8 -13 1 -8 -7 -18 -7
-27 -2 -8 5 -18 6 -24 3 -5 -3 -79 -7 -165 -9 -86 -1 -235 -5 -331 -9 -96 -3
-254 -8 -350 -11 -346 -10 -388 -12 -399 -18 -6 -4 -11 -2 -11 4 0 6 -4 9 -8
6 -8 -5 -194 -12 -420 -17 -50 -1 -92 -5 -92 -9 0 -4 46 -9 103 -10 112 -2
239 -6 512 -15 99 -3 254 -7 345 -10 91 -2 165 -4 165 -5 0 -1 430 -12 537
-14 54 0 98 -3 98 -6 0 -3 13 -5 29 -5 16 0 27 3 24 7 -2 5 6 4 19 0 13 -4 83
-7 155 -7 73 0 133 -2 133 -5 0 -3 64 -6 143 -6 144 -2 508 -11 737 -20 69 -2
206 -6 305 -9 232 -6 443 -13 675 -20 298 -10 504 -16 518 -15 22 0 36 0 137
-4 55 -2 125 -5 155 -6 30 -1 71 -1 90 -1 l35 1 0 150 c0 104 -4 151 -12 154
-6 3 -13 3 -15 1z"/>
<path d="M125 5420 c-2 -3 17 -6 41 -8 24 -1 44 1 44 6 0 8 -80 11 -85 2z"/>
<path d="M7945 4963 c-94 -20 -98 -21 -140 -36 -207 -75 -382 -229 -479 -424
-37 -72 -50 -106 -60 -151 -3 -13 -8 -32 -11 -42 -12 -39 -18 -100 -19 -195 0
-157 15 -229 81 -372 26 -58 94 -163 104 -163 5 0 9 -5 9 -11 0 -18 150 -159
170 -159 6 0 10 -4 10 -10 0 -5 6 -10 14 -10 8 0 16 -3 18 -8 5 -11 155 -83
185 -88 15 -3 31 -8 36 -11 10 -6 40 -12 83 -17 11 -1 25 -5 30 -9 19 -11 259
0 315 16 179 49 293 112 411 230 125 124 211 288 243 462 20 107 6 337 -23
392 -6 10 -10 20 -9 23 2 15 -36 110 -44 110 -5 0 -9 7 -9 16 0 54 -239 324
-287 324 -6 0 -16 6 -20 13 -10 14 -113 71 -113 61 0 -3 -6 -2 -12 3 -14 11
-99 41 -137 48 -12 2 -32 7 -44 11 -38 12 -241 10 -302 -3z m132 -567 c53 -7
106 -27 148 -56 51 -35 105 -90 105 -107 0 -7 4 -13 9 -13 21 0 54 -113 55
-189 1 -74 -27 -191 -46 -191 -4 0 -8 -6 -8 -13 0 -12 -65 -85 -102 -113 -19
-15 -60 -37 -73 -40 -5 -1 -28 -8 -50 -16 -56 -19 -159 -14 -227 11 -156 60
-250 202 -243 372 4 102 40 185 115 259 55 54 177 106 231 98 16 -3 29 -1 29
3 0 5 6 6 13 4 6 -2 26 -6 44 -9z"/>
<path d="M5707 4553 c-1 -1 -103 -4 -227 -7 -124 -4 -286 -8 -360 -11 -132 -4
-369 -12 -660 -20 -80 -2 -230 -7 -335 -10 -104 -3 -255 -8 -335 -10 -80 -3
-228 -7 -330 -11 -102 -3 -194 -5 -205 -4 -11 1 -24 1 -30 1 -5 -1 -64 -3
-130 -6 -115 -4 -208 -7 -655 -20 -113 -3 -263 -8 -335 -10 -323 -11 -577 -18
-657 -19 -49 0 -88 -5 -88 -10 0 -5 -6 -3 -13 3 -8 6 -16 9 -19 6 -4 -4 -393
-19 -442 -17 -10 1 -16 -2 -12 -5 3 -3 57 -7 118 -9 105 -2 281 -7 673 -20 88
-2 236 -6 328 -8 93 -3 171 -6 174 -9 2 -3 18 -1 34 3 16 5 29 6 29 2 0 -4 46
-8 103 -9 56 -1 190 -4 297 -7 400 -11 598 -17 720 -21 69 -2 213 -6 320 -10
107 -3 263 -7 345 -10 83 -3 236 -7 340 -10 105 -3 253 -7 330 -10 316 -10
489 -16 645 -20 91 -3 245 -7 343 -10 l177 -6 0 154 0 153 -71 0 c-39 -1 -71
-2 -72 -3z"/>
</g>
</svg>
