<svg xmlns="http://www.w3.org/2000/svg" width="180.428" height="106.796" viewBox="0 0 180.428 106.796">
  <g id="Group_432" data-name="Group 432" transform="translate(-89.769 -286.83)">
    <path id="Path_28" data-name="Path 28" d="M601.657,232.118c.7-2.066,1.986-3.452,4.3-3.506l-.313-3.3a6.939,6.939,0,0,0-6.014,6.3c-2.66-.156-4.76.112-5.174,1.516-.488,1.635,2.331,1.313,5.415,2.234s5.267,2.736,5.756,1.1c.45-1.5-1.35-3.144-3.965-4.349Z" transform="translate(-427.863 103.48)" fill="#9fe05a"/>
    <path id="Path_29" data-name="Path 29" d="M660.418,216.237c6.093-4.514,12.736,1.618,12.4,7.718-.241,4.359-3.811,10.873-8.211,12.941-1.754.826-3.19-.162-5.3-.269s-3.642.73-5.3-.268c-4.147-2.5-7.017-9.336-6.776-13.7.338-6.1,7.617-11.527,13.178-6.422Z" transform="translate(-440.949 106.23)" fill="#f9d408"/>
    <path id="Path_30" data-name="Path 30" d="M664.763,214.538l3.281-6.31-2.425-.874Z" transform="translate(-445.294 107.929)" fill="#664031"/>
    <path id="Path_31" data-name="Path 31" d="M655.827,207.907s7.492.39,6.661,6.722C657.825,215.2,655.827,207.907,655.827,207.907Z" transform="translate(-443.08 107.792)" fill="#0d9d59"/>
    <path id="Path_32" data-name="Path 32" d="M660.418,216.237c6.093-4.514,12.736,1.618,12.4,7.718-.241,4.359-3.811,10.873-8.211,12.941-1.754.826-3.19-.162-5.3-.269s-3.642.73-5.3-.268c-4.147-2.5-7.017-9.336-6.776-13.7.338-6.1,7.617-11.527,13.178-6.422Z" transform="translate(-440.949 106.23)" fill="#ffdb70"/>
    <path id="Path_33" data-name="Path 33" d="M664.763,214.538l3.281-6.31-2.425-.874Z" transform="translate(-445.294 107.929)" fill="#a5a5a5"/>
    <path id="Path_34" data-name="Path 34" d="M655.827,207.907s7.492.39,6.661,6.722C657.825,215.2,655.827,207.907,655.827,207.907Z" transform="translate(-443.08 107.792)" fill="#acc64e"/>
    <path id="Path_35" data-name="Path 35" d="M704.439,187.03c5,.93,4.353,14.122,1.4,30s-7.077,28.422-12.082,27.491-11.517-15.452-8.567-31.328,14.24-27.092,19.246-26.161" transform="translate(-450.172 112.977)" fill="#ffcd50"/>
    <path id="Path_36" data-name="Path 36" d="M687.622,231.473l-2.249-.417c.02-.208.043-.417.066-.627,2.091-1.28,5.062-2.532,7.269-2.123a3.454,3.454,0,0,1,1.307.516l-.919,1.192c-1.208.225-2.449.36-3.632.691a9.455,9.455,0,0,0-1.838.767m7.095-1.863-.062-.209c.049.059.1.12.143.184l-.081.027" transform="translate(-450.399 102.758)" fill="#fee884"/>
    <path id="Path_37" data-name="Path 37" d="M686.612,215.429q.439-1.564.971-3.048c2.258-.563,5.519-1.306,7.411-.955.951.176,1.557.632,1.519,1.529-3.691-.1-6.664,1.148-9.9,2.474" transform="translate(-450.706 106.943)" fill="#ffdb70"/>
    <path id="Path_38" data-name="Path 38" d="M691.876,203.19q.668-1.2,1.38-2.311c.2-.023.4-.046.6-.059a6.425,6.425,0,0,1,1.509.113c1.559.289,3.336,1.082,3.545,2.386.06.378-1.264.187-2.427-.031-.251-.046-.493-.094-.712-.137l-.577-.113a3,3,0,0,0-.375-.055,17.333,17.333,0,0,0-2.941.2" transform="translate(-452.01 109.549)" fill="#ffdb70"/>
    <path id="Path_39" data-name="Path 39" d="M710.2,219.764l-1.14-3.837-.12.156a16.983,16.983,0,0,0,.754-2.114c1.317-4.509.969-9.37,1.342-14.013.318-3.931,1.729-7.874-.961-11.453a5.675,5.675,0,0,0-1.438-1.36,4.232,4.232,0,0,1,1.777-.113h.013c2.882.536,3.888,5.14,3.66,11.981a3.4,3.4,0,0,0-1.2,2l1.04.867a143.442,143.442,0,0,1-2.1,15.147c-.127.69-.257,1.375-.39,2.05l-1.237.686" transform="translate(-456.163 112.975)" fill="#ffdb70"/>
    <path id="Path_40" data-name="Path 40" d="M676.912,219.279c-4.386-4.4-10.518-.247-10.993,4.737-.338,3.562,1.76,9.278,5.071,11.492,1.322.883,2.6.26,4.325.43s2.863,1.037,4.326.431c3.667-1.523,6.826-6.713,7.166-10.276.474-4.983-4.763-10.272-9.9-6.814Z" transform="translate(-445.571 105.436)" fill="#ff61a1"/>
    <path id="Path_41" data-name="Path 41" d="M680.544,218.031l1.43-5.651,1.96.787-3.391,4.866Z" transform="translate(-449.203 106.684)" fill="#a5a5a5"/>
    <path id="Path_42" data-name="Path 42" d="M673.988,211.837s-.32,6.139,4.914,6C679.761,214.086,673.988,211.837,673.988,211.837Z" transform="translate(-447.578 106.819)" fill="#0d9d59"/>
    <path id="Path_43" data-name="Path 43" d="M679.86,186.008a9.032,9.032,0,1,1-7.062-10.643h0A9.032,9.032,0,0,1,679.86,186.008Z" transform="translate(-444.603 115.899)" fill="#fc8d7c"/>
    <path id="Path_44" data-name="Path 44" d="M673.361,173.841l.459,1.508-.855.45,1.462.3-.154.761,1.335-.634,1.079.727.143-.706.979-.084-.676-.551.945-.808-1.718.1-.329-.8-1.109.809-1.575-1.068Z" transform="translate(-447.325 116.231)" fill="#acc64e"/>
    <path id="Path_46" data-name="Path 46" d="M629.879,203.65l.035-2.137-7.757-.125-.035,2.137s-5.58,10.393-5.625,12.88l-.009.542-.068,4.336-.441,27.478a1.349,1.349,0,0,0,1.326,1.373h0l15.876.256a1.35,1.35,0,0,0,1.373-1.326v0L635,221.581l.069-4.336.009-.541c.039-2.489-5.2-13.056-5.2-13.056Z" transform="translate(-433.208 109.407)" fill="#e6e7e8"/>
    <path id="Path_47" data-name="Path 47" d="M631.107,195.218l-.056,3.515-.9-.014.059-3.622-.9-.015-.058,3.622-.9-.014.057-3.622-.9-.014-.059,3.621-.9-.014.057-3.622-.9-.014-.057,3.622-.9-.015.056-3.5a1.945,1.945,0,0,0-1.293,1.8l-.027,1.7,8.9.143.028-1.7a1.947,1.947,0,0,0-1.283-1.86Z" transform="translate(-435.068 110.984)" fill="#a9c0ef"/>
    <path id="Path_48" data-name="Path 48" d="M626.041,198.646l.057-3.622h-.225a1.9,1.9,0,0,0-.684.112l-.056,3.5.9.015Z" transform="translate(-435.476 110.984)" fill="#a9c0ef"/>
    <path id="Path_49" data-name="Path 49" d="M628.444,198.681l.059-3.622-.9-.014-.058,3.622Z" transform="translate(-436.073 110.978)" fill="#a9c0ef"/>
    <path id="Path_50" data-name="Path 50" d="M630.845,198.72l.059-3.622-.9-.014-.059,3.621Z" transform="translate(-436.668 110.969)" fill="#a9c0ef"/>
    <path id="Path_51" data-name="Path 51" d="M633.244,198.76l.056-3.515a1.948,1.948,0,0,0-.632-.112H632.4l-.059,3.622.9.014Z" transform="translate(-437.262 110.957)" fill="#a9c0ef"/>
    <path id="Path_52" data-name="Path 52" d="M632.332,201.034l-8.9-.143.023-1.474,8.9.143Z" transform="translate(-435.056 109.895)" fill="#a9c0ef"/>
    <path id="Path_53" data-name="Path 53" d="M620.393,217.211l.009-.509c.035-2.234,4.819-11.241,5.255-12.06l.029-1.774-1.565-.025-.017,1.049s-5.537,10.309-5.576,12.777l-.008.538-.069,4.3-.414,25.872,1.9.032a1.347,1.347,0,0,1-.023-.263l.414-25.855.065-4.079Z" transform="translate(-433.718 109.047)" fill="#e6e7e8"/>
    <path id="Path_54" data-name="Path 54" d="M632.393,202.8a.449.449,0,0,1-.45.437l-8.316-.132a.45.45,0,0,1-.111-.893.445.445,0,0,1,.126,0l8.316.134a.45.45,0,0,1,.439.45Z" transform="translate(-434.978 109.205)" fill="#bcbec0"/>
    <path id="Path_55" data-name="Path 55" d="M695.142,228.654c-.354,1.179.025,2.335.849,2.587s1.781-.506,2.137-1.687-.025-2.335-.849-2.587S695.5,227.472,695.142,228.654Z" transform="translate(-452.786 103.082)" fill="#67387f"/>
    <path id="Path_56" data-name="Path 56" d="M634.567,246.48l-18.391-.295.308-19.235,18.391.295Z" transform="translate(-433.257 103.075)" fill="#e6e7e8"/>
    <path id="Path_57" data-name="Path 57" d="M581.239,206.894a10.9,10.9,0,0,1-3.218,13.836h-.007a10.6,10.6,0,0,1-14.189-.843c-2.838-2.713-2.157-8.27.44-10.124.824-.591,2.355-1.156,3.406-1.769l.025-.014c1.505-.846,2.194-2.5,3.3-3.321,2.443-1.825,8.281-1.723,10.245,2.234Z" transform="translate(-419.833 108.88)" fill="#ff61a1"/>
    <path id="Path_58" data-name="Path 58" d="M568.1,209.089a4.068,4.068,0,0,1-.407.271l-.025.015c-1.052.612-2.587,1.177-3.406,1.768-2.6,1.857-3.278,7.417-.439,10.124a10.588,10.588,0,0,0,14.061.929l-9.786-13.11Z" transform="translate(-419.833 107.5)" fill="#ff599b"/>
    <path id="Path_59" data-name="Path 59" d="M569.353,202.767a19.8,19.8,0,0,1-.281,2.812,6.067,6.067,0,0,0-.156.964,2.071,2.071,0,0,0-.7-.752c-.062-.047-2.066-1.62-2.118-1.582-.1.071.684.985,1.222,2.391.141.369.312.656.433.934a5.963,5.963,0,0,0-1.1-.151,20.15,20.15,0,0,1-2.78-.53,17.6,17.6,0,0,0,3.724,2.213c.629.047,3.27-1.453,2.983-2.829-.01-.046-1.177-3.487-1.229-3.475Z" transform="translate(-420.301 109.066)" fill="#acc64e"/>
    <path id="Path_60" data-name="Path 60" d="M577.444,207.67c.426-.091,3.57-1.462,4.377-.594-.967-1.044-3.1-2.2-4.79-1.434-1.245.562-1.285,2.385.413,2.024Z" transform="translate(-423.337 108.415)" fill="#ff599b"/>
    <path id="Path_61" data-name="Path 61" d="M596.347,246.888c-2.092,7.008-6.895,15.265-13.327,13.345-5.014-1.5-5.921-11.458-3.825-18.466s6.561-7.967,11.3-6.552,7.949,4.667,5.856,11.675Z" transform="translate(-423.835 101.166)" fill="#ffdb70"/>
    <path id="Path_62" data-name="Path 62" d="M593.924,246.2c-2.092,7.008-2.605,16.545,3.825,18.466,5.23,1.561,11.234-6.336,13.327-13.343s-1.119-10.262-5.856-11.675-9.207-.45-11.3,6.552Z" transform="translate(-427.396 100.067)" fill="#ffdb70"/>
    <path id="Path_63" data-name="Path 63" d="M603.26,249.77c-2.242,7.51-7.234,16.406-13.669,14.485-7.147-2.137-5.73-12.1-3.487-19.607s6.757-8.621,11.495-7.206,7.9,4.819,5.661,12.33Z" transform="translate(-425.356 100.607)" fill="#ffdb70"/>
    <g id="Group_20" data-name="Group 20" transform="translate(127.752 316.403)">
      <path id="Path_65" data-name="Path 65" d="M553.825,218.486a5.315,5.315,0,0,1-3.421-1.947l.506-.436a4.733,4.733,0,0,0,2.987,1.72l-.072.664Z" transform="translate(-544.715 -210.641)" fill="#acc64e"/>
      <g id="Group_19" data-name="Group 19">
        <path id="Path_66" data-name="Path 66" d="M549.805,215.537l.013-.015A4.98,4.98,0,0,0,548.6,210.4a7.425,7.425,0,0,0-4.529-1.553A1.193,1.193,0,0,0,542.844,210a1.255,1.255,0,0,0,.005.16,7.3,7.3,0,0,0,1.817,4.241c1.948,1.851,4.709,1.595,5.14,1.14Z" transform="translate(-542.842 -208.842)" fill="#acc64e"/>
        <path id="Path_67" data-name="Path 67" d="M549.805,215.652l.013-.015c-2.952-1.18-5.693-4.949-6.624-6.333a1.154,1.154,0,0,0-.344.967,7.292,7.292,0,0,0,1.817,4.241c1.948,1.851,4.708,1.595,5.14,1.14Z" transform="translate(-542.842 -208.957)" fill="#acc64e"/>
      </g>
    </g>
    <g id="Group_22" data-name="Group 22" transform="translate(136.734 298.435)">
      <path id="Path_68" data-name="Path 68" d="M554.782,190.478a4.964,4.964,0,0,0,3.652-.415l-.273-.562a4.427,4.427,0,0,1-3.195.379l-.184.6Z" transform="translate(-554.782 -186.083)" fill="#acc64e"/>
      <g id="Group_21" data-name="Group 21" transform="translate(2.267 0)">
        <path id="Path_69" data-name="Path 69" d="M557.795,189.151v-.017a4.652,4.652,0,0,1,2.925-3.954,6.934,6.934,0,0,1,4.456.331,1.114,1.114,0,0,1,.63,1.444,1.036,1.036,0,0,1-.062.131,6.816,6.816,0,0,1-3.116,2.974c-2.351.871-4.627-.36-4.829-.91Z" transform="translate(-557.795 -184.958)" fill="#acc64e"/>
        <path id="Path_70" data-name="Path 70" d="M557.795,189.538v-.017c2.968.071,6.7-2.158,8.01-3a1.076,1.076,0,0,1-.058.956,6.823,6.823,0,0,1-3.116,2.974c-2.352.871-4.627-.36-4.83-.91Z" transform="translate(-557.795 -185.344)" fill="#acc64e"/>
      </g>
    </g>
    <g id="Group_24" data-name="Group 24" transform="translate(193.209 286.83)">
      <path id="Path_71" data-name="Path 71" d="M639.621,183.876a6.3,6.3,0,0,0-1.687-4.353l-.6.515a5.626,5.626,0,0,1,1.494,3.806l.788.032Z" transform="translate(-631.707 -172.007)" fill="#acc64e"/>
      <g id="Group_23" data-name="Group 23" transform="translate(0)">
        <path id="Path_72" data-name="Path 72" d="M636.8,178.682l-.02.013a5.908,5.908,0,0,1-5.8-2.325,8.8,8.8,0,0,1-1.03-5.583,1.415,1.415,0,0,1,1.569-1.241,1.453,1.453,0,0,1,.188.035,8.654,8.654,0,0,1,4.657,2.873c1.829,2.607,1.047,5.8.436,6.227Z" transform="translate(-629.854 -169.533)" fill="#acc64e"/>
        <path id="Path_73" data-name="Path 73" d="M637.01,178.68l-.02.013c-.866-3.67-4.809-7.544-6.267-8.878a1.366,1.366,0,0,1,1.195-.235,8.653,8.653,0,0,1,4.657,2.873c1.83,2.607,1.047,5.8.436,6.227Z" transform="translate(-630.07 -169.532)" fill="#acc64e"/>
      </g>
    </g>
    <g id="Group_25" data-name="Group 25" transform="translate(133.524 331.047)">
      <path id="Path_74" data-name="Path 74" d="M550.68,238.019a4.106,4.106,0,0,1,.867-2.911l.415.3a3.66,3.66,0,0,0-.772,2.544l-.512.062Z" transform="translate(-550.552 -229.993)" fill="#acc64e"/>
      <path id="Path_75" data-name="Path 75" d="M551.136,234.523l.013.007a3.84,3.84,0,0,0,3.64-1.806,5.713,5.713,0,0,0,.379-3.673.918.918,0,0,0-1.079-.724.819.819,0,0,0-.121.032,5.632,5.632,0,0,0-2.871,2.1,3.733,3.733,0,0,0,.039,4.061Z" transform="translate(-550.515 -228.309)" fill="#acc64e"/>
      <path id="Path_76" data-name="Path 76" d="M551.136,234.523l.013.007c.373-2.424,2.728-5.14,3.606-6.075a.891.891,0,0,0-.788-.091,5.635,5.635,0,0,0-2.871,2.1,3.732,3.732,0,0,0,.039,4.061Z" transform="translate(-550.515 -228.309)" fill="#acc64e"/>
    </g>
    <path id="Path_77" data-name="Path 77" d="M629.363,224.16a10.224,10.224,0,0,1,4.5-2.278c1.745-.225,3.919.461,3.746,1-.225.682-2.488,1.978-4.282,2.137a9.563,9.563,0,0,1-3.961-.852Z" transform="translate(-436.524 104.341)" fill="#acc64e"/>
    <path id="Path_78" data-name="Path 78" d="M640.209,222.173h0a.383.383,0,0,1-.536-.07l-.013-.018c-.016-.023-1.444-2.256,1.356-4.59a.388.388,0,0,1,.547.027l.016.019a.423.423,0,0,1-.077.578c-2.188,1.824-1.21,3.411-1.165,3.477a.434.434,0,0,1-.12.572Z" transform="translate(-438.981 105.442)" fill="#a5a5a5"/>
    <path id="Path_79" data-name="Path 79" d="M648.228,226.117a7.351,7.351,0,0,0-.691-1.334c-1.981-2.994-5.666-3.906-8.226-2.035s-3.038,5.814-1.052,8.809a7.25,7.25,0,0,0,.947,1.148,9.14,9.14,0,0,0,.916,8.028A8.549,8.549,0,0,0,652,242.965c.157-.108.311-.22.46-.338a9.56,9.56,0,0,0,2.607-12.81,8.219,8.219,0,0,0-6.843-3.7Z" transform="translate(-438.424 104.356)" fill="#c8e967"/>
    <path id="Path_80" data-name="Path 80" d="M643.775,239.316a9.079,9.079,0,0,1-.854-8.064,7.087,7.087,0,0,1-1.739-7.411,5.933,5.933,0,0,0-.579,7.536,6.359,6.359,0,0,0,.846,1.02,8.1,8.1,0,0,0,.759,7.19,7.32,7.32,0,0,0,6.828,3.216,8.072,8.072,0,0,1-5.26-3.5Z" transform="translate(-439.04 103.845)" fill="#c8e967"/>
    <path id="Path_81" data-name="Path 81" d="M694.045,272.441a9.793,9.793,0,1,0,9.795,9.795,9.793,9.793,0,0,0-9.795-9.795Zm-.857,15.118a4.3,4.3,0,1,1,4.3-4.3v0a4.3,4.3,0,0,1-4.3,4.3Z" transform="translate(-450.122 91.805)" fill="#92c023"/>
    <path id="Path_82" data-name="Path 82" d="M611.008,285.459a9.793,9.793,0,1,0,9.795,9.793,9.793,9.793,0,0,0-9.795-9.793Zm-.858,15.118a4.3,4.3,0,1,1,4.3-4.3h0a4.3,4.3,0,0,1-4.3,4.3h0Z" transform="translate(-429.551 88.58)" fill="#92c023"/>
    <path id="Path_83" data-name="Path 83" d="M710.287,269.425s7.117-6.5,7.448-9.157c0,0,7.815,8.571-1.994,15.675l-1.83.788S712.946,271.232,710.287,269.425Z" transform="translate(-456.571 94.821)" fill="#92c023"/>
    <path id="Path_84" data-name="Path 84" d="M542.633,257.735v3.475l-37.988-1.733Z" transform="translate(-405.628 95.448)" fill="#c7e865"/>
    <path id="Path_85" data-name="Path 85" d="M550.471,276.486v3.475l-58.119-1.737Z" transform="translate(-402.583 90.803)" fill="#c7e865"/>
    <path id="Path_86" data-name="Path 86" d="M561.256,291.813v3.475l-58.118-1.737Z" transform="translate(-405.255 87.006)" fill="#c7e865"/>
    <path id="Path_87" data-name="Path 87" d="M570.23,236.454s-6.992,4.415,0,6.991c0,0,39,.368,67.339-11.407,0,0,38.27-12.511,44.893-18.031,0,0,5.519-6.991-4.049-6.255l.323-4.144a17.513,17.513,0,0,1,7.769.361c3.109,1.036,3.375,3.64,3.067,8.5a73.822,73.822,0,0,1-19.044,41.043s-4.433-5.358-13.955-.873c0,0-9.358,5.633-6.4,15.484,0,0-8.879,6.782-36.078,6.782,0,0,.77-13.087-8.981-14.369,0,0-12.317-2.566-16.423,8.212a86.243,86.243,0,0,1-12.854-8.946c-4.767-3.93-9.68-8.3-13.1-13.483-1.4-2.125-2.876-4.688-1.879-7.253,1.445-3.718,5.764-7.029,9.8-6.335Z" transform="translate(-419.471 108.925)" fill="#92c023"/>
    <path id="Path_88" data-name="Path 88" d="M572.861,232.541l-.016,4.47s-5.318,2.5-2.25,5.859c0,0,16.187,5.644,68.492-10.1,0,0,42.243-15.222,43.083-16.337,0,0,8.674-3.6,7.01-7.241a11.084,11.084,0,0,0-6.139-2.258l1.626-4.168h-4.147l-.529,9.834s-25.066,14.141-81.5,26.837a214.99,214.99,0,0,1-22.559,1.533l.3-8.86Z" transform="translate(-421.73 109.066)" fill="#fff"/>
  </g>
</svg>
