<svg xmlns="http://www.w3.org/2000/svg" width="198.53" height="117.511" viewBox="0 0 198.53 117.511">
  <g id="Group_441" data-name="Group 441" transform="translate(5519.001 -1366.903)">
    <path id="Path_238" data-name="Path 238" d="M563.151,230.885c.768-2.274,2.185-3.8,4.733-3.857l-.345-3.629c-3.55.71-5.909,2.68-6.618,6.932-2.928-.169-5.237.119-5.7,1.669-.537,1.8,2.565,1.445,5.959,2.458s5.795,3.011,6.333,1.212c.492-1.65-1.489-3.459-4.363-4.785Z" transform="translate(-5989.699 1189.68)" fill="#92c023"/>
    <path id="Path_239" data-name="Path 239" d="M613.409,216.438c6.7-4.967,14.014,1.78,13.644,8.491-.264,4.8-4.193,11.964-9.034,14.24-1.93.908-3.509-.178-5.827-.3s-4.007.8-5.827-.3c-4.564-2.752-7.721-10.278-7.456-15.075.369-6.711,8.381-12.682,14.5-7.065Z" transform="translate(-5989.699 1189.68)" fill="#f9d408"/>
    <path id="Path_240" data-name="Path 240" d="M613.409,216.438l3.611-6.943-2.667-.962-.944,7.906Z" transform="translate(-5989.699 1189.68)" fill="#664031"/>
    <path id="Path_241" data-name="Path 241" d="M606.013,208.989s8.242.429,7.329,7.4c-5.132.629-7.329-7.4-7.329-7.4Z" transform="translate(-5989.699 1189.68)" fill="#0d9d59"/>
    <path id="Path_242" data-name="Path 242" d="M613.409,216.438c6.7-4.967,14.014,1.78,13.644,8.491-.264,4.8-4.193,11.964-9.034,14.24-1.93.908-3.509-.178-5.827-.3s-4.007.8-5.827-.3c-4.564-2.752-7.721-10.278-7.456-15.075.369-6.711,8.381-12.682,14.5-7.065Z" transform="translate(-5989.699 1189.68)" fill="#e3ff69"/>
    <path id="Path_243" data-name="Path 243" d="M613.409,216.438l3.611-6.943-2.667-.962-.944,7.906Z" transform="translate(-5989.699 1189.68)" fill="#a5a5a5"/>
    <path id="Path_244" data-name="Path 244" d="M606.013,208.989s8.242.429,7.329,7.4c-5.132.629-7.329-7.4-7.329-7.4Z" transform="translate(-5989.699 1189.68)" fill="#92c023"/>
    <path id="Path_245" data-name="Path 245" d="M651.7,191.724c5.507,1.023,4.79,15.539,1.545,33.007s-7.788,31.273-13.295,30.25-12.672-17-9.427-34.471S646.19,190.7,651.7,191.724" transform="translate(-5989.699 1189.68)" fill="#f2b200"/>
    <path id="Path_246" data-name="Path 246" d="M632.944,229.383l-2.479-.461q.033-.344.074-.689c2.3-1.406,5.57-2.785,8-2.335a3.813,3.813,0,0,1,1.439.568l-1.011,1.312c-1.329.252-2.7.4-4,.761a10.188,10.188,0,0,0-2.023.844m7.806-2.05-.068-.231c.054.064.106.131.157.2l-.089.03" transform="translate(-5989.699 1189.68)" fill="#fee884"/>
    <path id="Path_247" data-name="Path 247" d="M631.5,216.332q.482-1.719,1.068-3.353c2.485-.613,6.072-1.439,8.154-1.052,1.047.195,1.714.695,1.671,1.683-4.061-.114-7.332,1.263-10.893,2.722" transform="translate(-5989.699 1189.68)" fill="#fac642"/>
    <path id="Path_248" data-name="Path 248" d="M635.852,205.734q.735-1.323,1.518-2.543c.217-.025.436-.051.657-.065a7.13,7.13,0,0,1,1.662.129c1.714.319,3.67,1.191,3.9,2.626.066.415-1.391.205-2.672-.033-.275-.051-.542-.1-.784-.151s-.459-.091-.635-.124a3.345,3.345,0,0,0-.412-.061,19,19,0,0,0-3.235.222" transform="translate(-5989.699 1189.68)" fill="#fac642"/>
    <path id="Path_249" data-name="Path 249" d="M651.447,227.742l-1.253-4.221-.132.171a18.7,18.7,0,0,0,.829-2.325c1.449-4.962,1.066-10.311,1.477-15.42.349-4.324,1.9-8.66-1.057-12.6a6.277,6.277,0,0,0-1.583-1.5,4.664,4.664,0,0,1,1.956-.126h0l.013,0c3.172.589,4.279,5.656,4.027,13.184a3.749,3.749,0,0,0-1.318,2.2l1.145.954a157.67,157.67,0,0,1-2.309,16.667q-.211,1.139-.431,2.257l-1.365.754" transform="translate(-5989.699 1189.68)" fill="#fac642"/>
    <path id="Path_250" data-name="Path 250" d="M626.473,218.91c-4.824-4.845-11.573-.271-12.1,5.213-.373,3.92,1.935,10.208,5.579,12.644,1.454.972,2.866.285,4.759.473s3.149,1.142,4.759.474c4.034-1.673,7.512-7.385,7.885-11.306.522-5.484-5.24-11.3-10.887-7.5Z" transform="translate(-5989.699 1189.68)" fill="#f4626c"/>
    <path id="Path_251" data-name="Path 251" d="M626.473,218.91l1.573-6.219,2.158.865-3.731,5.354Z" transform="translate(-5989.699 1189.68)" fill="#a5a5a5"/>
    <path id="Path_252" data-name="Path 252" d="M621.045,212.243s-.352,6.755,5.407,6.6c.948-4.129-5.407-6.6-5.407-6.6Z" transform="translate(-5989.699 1189.68)" fill="#92c023"/>
    <path id="Path_253" data-name="Path 253" d="M630.781,193.814a9.937,9.937,0,1,1-7.769-11.711,9.936,9.936,0,0,1,7.769,11.711Z" transform="translate(-5989.699 1189.68)" fill="#f2b200"/>
    <path id="Path_254" data-name="Path 254" d="M621.411,180.787l.505,1.658-.941.495,1.615.327-.169.838,1.469-.7,1.187.8.157-.777,1.077-.093-.738-.607,1.04-.888-1.891.115-.361-.882-1.22.891-1.731-1.176Z" transform="translate(-5989.699 1189.68)" fill="#92c023"/>
    <path id="Path_255" data-name="Path 255" d="M629.111,187.117c.442.63.476,1.368.076,1.649s-1.083,0-1.525-.634-.476-1.369-.076-1.649,1.083,0,1.525.634Z" transform="translate(-5989.699 1189.68)" fill="#ef8690"/>
    <path id="Path_256" data-name="Path 256" d="M588.323,206.082l.037-2.348-8.531-.137-.037,2.349s-6.141,11.435-6.185,14.172l-.01.6-.076,4.771-.485,30.234a1.488,1.488,0,0,0,1.463,1.511l17.468.28a1.488,1.488,0,0,0,1.511-1.463l.485-30.234.077-4.771.009-.6c.044-2.738-5.726-14.365-5.726-14.365Z" transform="translate(-5989.699 1189.68)" fill="#e2e2e2"/>
    <path id="Path_257" data-name="Path 257" d="M587.628,198.541l-.063,3.868-.993-.016.064-3.986-.993-.016-.064,3.986-.993-.016.064-3.986-.994-.016-.064,3.986-.993-.016.064-3.986-.994-.016-.064,3.986-.993-.016.062-3.848a2.14,2.14,0,0,0-1.423,1.98l-.03,1.874,9.788.157.031-1.874a2.14,2.14,0,0,0-1.412-2.045Z" transform="translate(-5989.699 1189.68)" fill="#58c9be"/>
    <path id="Path_258" data-name="Path 258" d="M581.6,202.313l.064-3.986-.243,0a2.133,2.133,0,0,0-.752.126l-.062,3.848.993.016Z" transform="translate(-5989.699 1189.68)" fill="#5bc7e6"/>
    <path id="Path_259" data-name="Path 259" d="M583.592,202.345l.064-3.986-.993-.016-.064,3.986.993.016Z" transform="translate(-5989.699 1189.68)" fill="#5bc7e6"/>
    <path id="Path_260" data-name="Path 260" d="M585.579,202.377l.064-3.986-.993-.016-.064,3.986.993.016Z" transform="translate(-5989.699 1189.68)" fill="#5bc7e6"/>
    <path id="Path_261" data-name="Path 261" d="M587.565,202.409l.063-3.868a2.137,2.137,0,0,0-.7-.13l-.3,0-.064,3.986.993.016Z" transform="translate(-5989.699 1189.68)" fill="#5bc7e6"/>
    <path id="Path_262" data-name="Path 262" d="M588.989,203.744l-9.788-.157.026-1.621,9.788.157-.026,1.621Z" transform="translate(-5989.699 1189.68)" fill="#4ab4a9"/>
    <path id="Path_263" data-name="Path 263" d="M589.142,204.921a.49.49,0,0,1-.5.482l-9.152-.147a.49.49,0,1,1,.016-.979l9.151.146a.492.492,0,0,1,.483.5Z" transform="translate(-5989.699 1189.68)" fill="#bcbec0"/>
    <path id="Path_264" data-name="Path 264" d="M638.592,226.636c-.39,1.3.027,2.569.933,2.843s1.96-.556,2.351-1.852-.027-2.57-.934-2.843-1.96.556-2.35,1.852Z" transform="translate(-5989.699 1189.68)" fill="#67387f"/>
    <path id="Path_265" data-name="Path 265" d="M593.428,246.241l-20.235-.325.34-21.161,20.235.325-.34,21.161Z" transform="translate(-5989.699 1189.68)" fill="#e6e7e8"/>
    <path id="Path_266" data-name="Path 266" d="M549.521,209.071a11.992,11.992,0,0,1-3.54,15.224l-.008.006a11.658,11.658,0,0,1-15.61-.928c-3.124-2.984-2.375-9.1.484-11.143.907-.65,2.591-1.273,3.747-1.947l.027-.016c1.657-.93,2.414-2.747,3.628-3.654,2.689-2.007,9.111-1.894,11.272,2.458Z" transform="translate(-5989.699 1189.68)" fill="#f4626c"/>
    <path id="Path_267" data-name="Path 267" d="M535.928,204.736a21.711,21.711,0,0,1-.31,3.1,6.863,6.863,0,0,0-.171,1.06,2.3,2.3,0,0,0-.769-.826c-.069-.052-2.273-1.783-2.33-1.741-.106.079.751,1.084,1.344,2.633.155.4.343.72.476,1.027a6.5,6.5,0,0,0-1.21-.166,22.114,22.114,0,0,1-3.058-.584c-.023.049,3.413,2.419,4.1,2.435.69.052,3.6-1.6,3.281-3.112-.01-.051-1.294-3.832-1.352-3.823Z" transform="translate(-5989.699 1189.68)" fill="#92c023"/>
    <path id="Path_268" data-name="Path 268" d="M567.589,235.415a14.035,14.035,0,0,0-3.221-.588,14.124,14.124,0,0,0-6.054-1.808,14.046,14.046,0,0,0-3.016-1.274c-5.213-1.557-10.13-.5-12.433,7.21s-1.3,18.671,4.213,20.318a7.393,7.393,0,0,0,1.077.232,7.275,7.275,0,0,0,4.478,3.579,6.808,6.808,0,0,0,5.434-.672,7.389,7.389,0,0,0,1.3.532c5.754,1.718,12.362-6.971,14.664-14.683S572.8,236.972,567.589,235.415Z" transform="translate(-5989.699 1189.68)" fill="#cde64c"/>
    <g id="Group_433" data-name="Group 433" transform="translate(-5989.699 1189.68)">
      <path id="Path_269" data-name="Path 269" d="M522.514,218.4a5.852,5.852,0,0,1-3.764-2.142l.556-.481a5.213,5.213,0,0,0,3.287,1.892l-.079.731Z" fill="#92c023"/>
      <g id="Group_432" data-name="Group 432">
        <path id="Path_270" data-name="Path 270" d="M520.151,217.13l.014-.016a5.48,5.48,0,0,0-1.338-5.64,8.154,8.154,0,0,0-4.983-1.709,1.312,1.312,0,0,0-1.347,1.445,8.046,8.046,0,0,0,2,4.667c2.143,2.035,5.181,1.755,5.655,1.253Z" fill="#92c023"/>
        <path id="Path_271" data-name="Path 271" d="M520.151,217.13l.014-.016c-3.249-1.3-6.264-5.446-7.288-6.968a1.273,1.273,0,0,0-.38,1.064,8.046,8.046,0,0,0,2,4.667c2.143,2.035,5.181,1.755,5.655,1.253Z" fill="#92c023"/>
      </g>
    </g>
    <g id="Group_435" data-name="Group 435" transform="translate(-5989.699 1189.68)">
      <path id="Path_272" data-name="Path 272" d="M522.374,194.828a5.462,5.462,0,0,0,4.018-.456l-.3-.617a4.866,4.866,0,0,1-3.516.416l-.2.657Z" fill="#92c023"/>
      <g id="Group_434" data-name="Group 434">
        <path id="Path_273" data-name="Path 273" d="M524.868,194.608l-.006-.019a5.115,5.115,0,0,1,3.219-4.349,7.612,7.612,0,0,1,4.9.363,1.222,1.222,0,0,1,.625,1.735,7.506,7.506,0,0,1-3.429,3.271c-2.586.96-5.09-.4-5.313-1Z" fill="#92c023"/>
        <path id="Path_274" data-name="Path 274" d="M524.868,194.608l-.006-.019c3.265.079,7.376-2.374,8.814-3.3a1.183,1.183,0,0,1-.066,1.053,7.506,7.506,0,0,1-3.429,3.271c-2.586.96-5.09-.4-5.313-1Z" fill="#92c023"/>
      </g>
    </g>
    <g id="Group_437" data-name="Group 437" transform="translate(-5989.699 1189.68)">
      <path id="Path_275" data-name="Path 275" d="M593.224,190.286a6.946,6.946,0,0,0-1.854-4.791l-.661.568a6.181,6.181,0,0,1,1.643,4.187l.872.036Z" fill="#92c023"/>
      <g id="Group_436" data-name="Group 436">
        <path id="Path_276" data-name="Path 276" d="M592.151,187.292l-.021.013c-.6.355-4.394.279-6.381-2.557-1.263-1.8-1.289-4.433-1.132-6.143a1.555,1.555,0,0,1,1.931-1.326,9.524,9.524,0,0,1,5.123,3.161c2.013,2.87,1.152,6.384.48,6.852Z" fill="#92c023"/>
        <path id="Path_277" data-name="Path 277" d="M592.151,187.292l-.021.013c-.954-4.037-5.291-8.3-6.9-9.767a1.5,1.5,0,0,1,1.315-.259,9.524,9.524,0,0,1,5.123,3.161c2.013,2.87,1.152,6.384.48,6.852Z" fill="#92c023"/>
      </g>
    </g>
    <g id="Group_438" data-name="Group 438" transform="translate(-5989.699 1189.68)">
      <path id="Path_278" data-name="Path 278" d="M518.984,234.708a4.506,4.506,0,0,1,.954-3.2l.458.334a4.02,4.02,0,0,0-.849,2.8l-.563.068Z" fill="#92c023"/>
      <path id="Path_279" data-name="Path 279" d="M519.524,232.712l.015.007a4.225,4.225,0,0,0,4.005-1.987,6.3,6.3,0,0,0,.417-4.042,1.012,1.012,0,0,0-1.321-.76,6.2,6.2,0,0,0-3.159,2.314c-1.156,1.965-.416,4.2.043,4.468Z" fill="#92c023"/>
      <path id="Path_280" data-name="Path 280" d="M519.524,232.712l.015.007c.41-2.667,3-5.655,3.967-6.689a.98.98,0,0,0-.866-.1,6.2,6.2,0,0,0-3.159,2.314c-1.156,1.965-.416,4.2.043,4.468Z" fill="#92c023"/>
    </g>
    <path id="Path_281" data-name="Path 281" d="M584.107,223.077a11.249,11.249,0,0,1,4.948-2.507c1.919-.246,4.313.507,4.121,1.1-.245.751-2.737,2.179-4.711,2.346a10.505,10.505,0,0,1-4.358-.936Z" transform="translate(-5989.699 1189.68)" fill="#92c023"/>
    <path id="Path_282" data-name="Path 282" d="M593.336,222.1l0,0a.421.421,0,0,1-.6-.1c-.017-.025-1.589-2.483,1.493-5.052a.426.426,0,0,1,.617.051.464.464,0,0,1-.086.637c-2.406,2-1.331,3.753-1.283,3.826a.477.477,0,0,1-.133.631Z" transform="translate(-5989.699 1189.68)" fill="#a5a5a5"/>
    <path id="Path_283" data-name="Path 283" d="M602.775,225.245a7.967,7.967,0,0,0-.76-1.468c-2.18-3.295-6.234-4.3-9.052-2.239s-3.336,6.4-1.156,9.693a7.979,7.979,0,0,0,1.042,1.262,10.055,10.055,0,0,0,1.007,8.833,9.413,9.413,0,0,0,13.579,2.086,10.521,10.521,0,0,0,2.87-14.1,9.045,9.045,0,0,0-7.53-4.071Z" transform="translate(-5989.699 1189.68)" fill="#7ca810"/>
    <path id="Path_284" data-name="Path 284" d="M640.316,262.407a10.776,10.776,0,1,0,10.776,10.776A10.777,10.777,0,0,0,640.316,262.407Zm-.944,16.635a4.731,4.731,0,1,1,4.731-4.732A4.732,4.732,0,0,1,639.372,279.042Z" transform="translate(-5989.699 1189.68)" fill="#92c023"/>
    <path id="Path_285" data-name="Path 285" d="M571.583,273.183a10.776,10.776,0,1,0,10.776,10.776A10.776,10.776,0,0,0,571.583,273.183Zm-.945,16.635a4.731,4.731,0,1,1,4.732-4.732A4.732,4.732,0,0,1,570.638,289.818Z" transform="translate(-5989.699 1189.68)" fill="#92c023"/>
    <path id="Path_286" data-name="Path 286" d="M651.092,262.407s7.83-7.149,8.2-10.076c0,0,8.6,9.431-2.2,17.248l-2.013.864S654.019,264.395,651.092,262.407Z" transform="translate(-5989.699 1189.68)" fill="#92c023"/>
    <path id="Path_287" data-name="Path 287" d="M522.669,250.235v3.823l-41.8-1.911Z" transform="translate(-5989.699 1189.68)" fill="#92c023"/>
    <path id="Path_288" data-name="Path 288" d="M534.647,265.756v3.823L470.7,267.667Z" transform="translate(-5989.699 1189.68)" fill="#92c023"/>
    <path id="Path_289" data-name="Path 289" d="M543.575,278.443v3.823l-63.95-1.911Z" transform="translate(-5989.699 1189.68)" fill="#92c023"/>
    <path id="Path_290" data-name="Path 290" d="M537.806,241.647s-7.693,4.858,0,7.692c0,0,42.918.4,74.094-12.551,0,0,42.109-13.766,49.4-19.839,0,0,6.073-7.693-4.454-6.884l.355-4.56a19.273,19.273,0,0,1,8.547.4c3.421,1.141,3.714,4.006,3.375,9.358,0,0-1.625,24.206-20.954,45.16,0,0-4.877-5.9-15.354-.961,0,0-10.3,6.2-7.045,17.038,0,0-9.769,7.462-39.7,7.462,0,0,.847-14.4-9.882-15.811,0,0-13.553-2.823-18.07,9.035a94.714,94.714,0,0,1-14.143-9.844c-5.246-4.324-10.652-9.129-14.419-14.835-1.543-2.338-3.165-5.159-2.068-7.981,1.59-4.09,6.342-7.733,10.788-6.971Z" transform="translate(-5989.699 1189.68)" fill="#92c023"/>
    <path id="Path_291" data-name="Path 291" d="M538.216,237.5l-.017,4.919s-5.851,2.747-2.481,6.448c0,0,17.81,6.21,75.362-11.117,0,0,46.482-16.751,47.409-17.978,0,0,9.544-3.964,7.713-7.967a12.2,12.2,0,0,0-6.755-2.482l1.789-4.586h-4.562l-.583,10.82s-27.58,15.559-89.671,29.528a236.592,236.592,0,0,1-24.823,1.688l.329-9.749Z" transform="translate(-5989.699 1189.68)" fill="#fff"/>
  </g>
</svg>
