<svg xmlns="http://www.w3.org/2000/svg" width="103.772" height="91.159" viewBox="0 0 103.772 91.159">
  <g id="Group_443" data-name="Group 443" transform="translate(-206.907 -114.286)">
    <g id="Group_428" data-name="Group 428" transform="translate(273.234 114.286)">
      <g id="Group_413" data-name="Group 413" transform="translate(3.832 10.737)">
        <rect id="Rectangle_222" data-name="Rectangle 222" width="25.082" height="2.936" transform="translate(0 22.436) rotate(-63.447)" fill="#92c023"/>
      </g>
      <g id="Group_414" data-name="Group 414" transform="translate(3.291 14.218)">
        <path id="Path_208" data-name="Path 208" d="M562.32,248.692l-2.589-1.388c3.256-6.073,6.687-15.613,4.12-17.806l1.907-2.232C571.015,231.757,563.815,245.9,562.32,248.692Z" transform="translate(-559.731 -227.266)" fill="#92c023"/>
      </g>
      <g id="Group_415" data-name="Group 415" transform="translate(0 4.531)">
        <path id="Path_209" data-name="Path 209" d="M557.922,225.751c2.217,2.909,5.713,3.972,7.809,2.374s2-5.25-.221-8.159-5.714-3.972-7.809-2.374S555.7,222.842,557.922,225.751Z" transform="translate(-556.192 -216.849)" fill="#92c023"/>
      </g>
      <g id="Group_416" data-name="Group 416" transform="translate(3.273 18.618)">
        <path id="Path_210" data-name="Path 210" d="M559.712,247.721c1.333-2.872,8.323-17.12,15.071-15.612l-.64,2.865c-3.3-.737-8.867,7.733-11.767,13.984Z" transform="translate(-559.712 -231.997)" fill="#92c023"/>
      </g>
      <g id="Group_417" data-name="Group 417" transform="translate(16.94 14.784)">
        <path id="Path_211" data-name="Path 211" d="M581,237.417c-3.658-.028-6.607-2.185-6.587-4.821s3-4.749,6.658-4.722,6.607,2.186,6.586,4.821S584.653,237.444,581,237.417Z" transform="translate(-574.409 -227.874)" fill="#92c023"/>
      </g>
      <g id="Group_418" data-name="Group 418" transform="translate(13.709)">
        <path id="Path_212" data-name="Path 212" d="M580.4,220.406c-1.635,3.272-4.872,4.969-7.228,3.792s-2.942-4.785-1.307-8.058,4.871-4.969,7.228-3.791S582.031,217.135,580.4,220.406Z" transform="translate(-570.934 -211.976)" fill="#92c023"/>
      </g>
    </g>
    <g id="Group_429" data-name="Group 429" transform="translate(264.232 142.779)">
      <path id="Path_213" data-name="Path 213" d="M590.647,264.86c-.009.009-.019.009-.028.018a2.829,2.829,0,0,1-1.628.531,2.172,2.172,0,0,1-.072.22,2.9,2.9,0,0,1-3.886,4.278c-.146.064-.292.127-.448.183a2.857,2.857,0,0,1-1.17,2,2.9,2.9,0,0,1-4.051-.64,2.934,2.934,0,0,1-.549-1.719c-.046-.027-.1-.046-.146-.073-.064.064-.137.128-.21.192a.632.632,0,0,1-.128.091,2.889,2.889,0,0,1-3.8-.284.98.98,0,0,1-.1-.11,2.939,2.939,0,0,1-.731-1.892,3,3,0,0,1,.036-.485,2.877,2.877,0,0,1,1.024-1.773,2.9,2.9,0,1,1,0-5.769,2.893,2.893,0,0,1,2.3-5.092,2.93,2.93,0,0,1,1.783,1.015,2.889,2.889,0,0,1,3.868-2.99.46.46,0,0,1,.091.046,2.814,2.814,0,0,1,1.262.969,2.85,2.85,0,0,1,.539,1.975,2.9,2.9,0,0,1,5.092,2.3,2.863,2.863,0,0,1-1.015,1.773,2.864,2.864,0,0,1,1.947.53,2.623,2.623,0,0,1,.667.649A2.9,2.9,0,0,1,590.647,264.86Z" transform="translate(-548.27 -243.302)" fill="#58c9be"/>
      <path id="Path_214" data-name="Path 214" d="M578.029,268.808l-.018.073L577.617,271l-.018.091-2.551,12.645H564.114l-2.477-12.261-.357-1.865V269.6l-.146-.8Z" transform="translate(-547.537 -244.453)" fill="#58c9be"/>
      <path id="Path_215" data-name="Path 215" d="M579.357,259.357c5.1,1.371,1.005,8.466-2.725,4.735a2.936,2.936,0,0,1,.987,2.88.208.208,0,0,1-.027.073,3.133,3.133,0,0,1-4.1,1.929c-.074-.036-.138-.072-.211-.11a3.123,3.123,0,0,1-1.335-1.892.689.689,0,0,1-.045-.146c.009.055.027.1.036.146a2.731,2.731,0,0,1-2.578,3.667H569.3a2.281,2.281,0,0,1-.439-.019h-.019a2.727,2.727,0,0,1-2.441-3.648.932.932,0,0,1,.036-.146.672.672,0,0,1-.045.146,2.868,2.868,0,0,1-2.048,2.176,3.244,3.244,0,0,1-3.264-1.38,2.817,2.817,0,0,1-.356-.8,2.922,2.922,0,0,1,.987-2.88c-3.739,3.731-7.826-3.364-2.733-4.735-5.093,1.371-5.093-6.821,0-5.459a2.9,2.9,0,0,1-2.323-2.112c-.521-2.359,2.359-5.3,5.056-2.615-3.739-3.73,3.365-7.835,4.727-2.734-.64-2.377.805-3.656,2.4-3.794h.019a2.343,2.343,0,0,1,.439-.027h.055c1.645.091,3.209,1.362,2.541,3.821,1.371-5.1,8.466-1,4.736,2.734,2.725-2.725,5.65.329,5.028,2.706,0,.019-.009.028-.019.046a2.923,2.923,0,0,1-2.285,1.975C584.457,252.536,584.457,260.728,579.357,259.357Z" transform="translate(-547.118 -242.617)" fill="#58c9be"/>
      <path id="Path_216" data-name="Path 216" d="M566.218,260.814a2.893,2.893,0,0,0-2.617-1.179,7.664,7.664,0,0,1-4.614-6.052,4.586,4.586,0,0,1-7,.959,2.9,2.9,0,0,0-2.3,5.093,2.9,2.9,0,1,0,0,5.765,2.9,2.9,0,1,0,3.913,4.259c.049.026.1.049.151.074a2.9,2.9,0,0,0,5.771.356c.151-.056.3-.114.449-.18a2.9,2.9,0,0,0,3.884-4.277c.024-.074.05-.145.072-.219a2.9,2.9,0,0,0,2.3-4.6Z" transform="translate(-546.512 -243.302)" fill="#58c9be"/>
    </g>
    <g id="Group_430" data-name="Group 430" transform="translate(229.782 128.893)">
      <path id="Path_217" data-name="Path 217" d="M513.007,248.343h-3.542V233.39a5.712,5.712,0,0,1,5.706-5.706h2.754a5.712,5.712,0,0,1,5.706,5.706h-3.542a2.167,2.167,0,0,0-2.164-2.164h-2.754a2.166,2.166,0,0,0-2.164,2.164Z" transform="translate(-509.465 -227.684)" fill="#92c023"/>
    </g>
    <path id="Path_232" data-name="Path 232" d="M516.077,269.815h0c-2.614-.473-4.579-2.444-4.356-4.48l2.529-20.843a6.1,6.1,0,0,1,7.341-5.087h0a6.1,6.1,0,0,1,5.088,7.342l-4.951,20.4C521.222,269.135,518.69,270.29,516.077,269.815Z" transform="translate(-279.84 -99.605)" fill="#ffd453"/>
    <path id="Path_233" data-name="Path 233" d="M505.03,269.815h0c2.614-.473,4.579-2.444,4.356-4.48l-2.527-20.843a6.1,6.1,0,0,0-7.342-5.087h0a6.1,6.1,0,0,0-5.088,7.342l4.951,20.4C499.886,269.135,502.417,270.29,505.03,269.815Z" transform="translate(-278.617 -99.605)" fill="#ffd453"/>
    <path id="Path_234" data-name="Path 234" d="M510.648,269.9h0c-2.657,0-4.942-1.587-5.086-3.632l-1.231-20.958a6.1,6.1,0,0,1,6.317-6.316h0a6.1,6.1,0,0,1,6.316,6.316l-1.231,20.958C515.588,268.313,513.3,269.9,510.648,269.9Z" transform="translate(-279.322 -99.584)" fill="#ffd453"/>
    <rect id="Rectangle_230" data-name="Rectangle 230" width="7.892" height="55.224" rx="3.946" transform="translate(254.847 121.551)" fill="#f4626c"/>
    <path id="Path_235" data-name="Path 235" d="M585.258,262.067l-9.124,42.814a2.229,2.229,0,0,1-2.18,1.765H500.117a2.227,2.227,0,0,1-2.183-1.785L488.795,262.8Z" transform="translate(-278.234 -101.201)" fill="#ef8690"/>
    <rect id="Rectangle_231" data-name="Rectangle 231" width="103.772" height="11.693" rx="3.536" transform="translate(310.678 165.251) rotate(180)" fill="#f4626c"/>
    <ellipse id="Ellipse_66" data-name="Ellipse 66" cx="9.866" cy="9.866" rx="9.866" ry="9.866" transform="translate(248.927 149.904)" fill="#f0707d"/>
    <path id="Path_236" data-name="Path 236" d="M537.519,260.275a2.923,2.923,0,1,0,2.924-2.923A2.924,2.924,0,0,0,537.519,260.275Z" transform="translate(-281.65 -100.871)" fill="#8ae3da"/>
  </g>
</svg>
