<svg xmlns="http://www.w3.org/2000/svg" width="160" height="224.607" viewBox="0 0 160 224.607">
  <g id="Group_412" data-name="Group 412" transform="translate(-142 -51.533)">
    <ellipse id="Ellipse_60" data-name="Ellipse 60" cx="47" cy="13" rx="47" ry="13" transform="translate(155 250.141)" fill="#f2f2f2"/>
    <g id="Group_108" data-name="Group 108" transform="translate(210.519 217.348)">
      <g id="Group_107" data-name="Group 107">
        <g id="Group_106" data-name="Group 106">
          <g id="Group_105" data-name="Group 105">
            <g id="Group_104" data-name="Group 104">
              <g id="Group_103" data-name="Group 103">
                <g id="Group_102" data-name="Group 102">
                  <g id="Group_101" data-name="Group 101">
                    <g id="Group_100" data-name="Group 100">
                      <g id="Group_99" data-name="Group 99">
                        <g id="Group_98" data-name="Group 98">
                          <g id="Group_97" data-name="Group 97">
                            <g id="Group_96" data-name="Group 96">
                              <g id="Group_95" data-name="Group 95">
                                <g id="Group_94" data-name="Group 94">
                                  <g id="Group_93" data-name="Group 93">
                                    <g id="Group_92" data-name="Group 92">
                                      <path id="Path_189" data-name="Path 189" d="M668.01,528a1.811,1.811,0,0,0-.272.192,1.835,1.835,0,0,1,.272-.19,2.565,2.565,0,0,0,.387-.3,2.314,2.314,0,0,0,.572-.843,2.288,2.288,0,0,1-.577.841A1.863,1.863,0,0,1,668.01,528Z" transform="translate(-667.738 -526.864)" fill="#ffbb0d"/>
                                    </g>
                                  </g>
                                </g>
                              </g>
                            </g>
                          </g>
                        </g>
                      </g>
                    </g>
                  </g>
                </g>
              </g>
            </g>
          </g>
        </g>
      </g>
    </g>
    <g id="Group_57" data-name="Group 57" transform="translate(205.692 170.119)">
      <g id="Group_56" data-name="Group 56">
        <g id="Group_55" data-name="Group 55">
          <g id="Group_54" data-name="Group 54">
            <g id="Group_53" data-name="Group 53">
              <g id="Group_52" data-name="Group 52">
                <g id="Group_51" data-name="Group 51">
                  <g id="Group_50" data-name="Group 50">
                    <g id="Group_49" data-name="Group 49">
                      <g id="Group_48" data-name="Group 48">
                        <g id="Group_47" data-name="Group 47">
                          <g id="Group_46" data-name="Group 46">
                            <g id="Group_45" data-name="Group 45">
                              <g id="Group_44" data-name="Group 44">
                                <g id="Group_43" data-name="Group 43">
                                  <g id="Group_42" data-name="Group 42">
                                    <g id="Group_41" data-name="Group 41">
                                      <path id="Path_186" data-name="Path 186" d="M661.836,491.561c.056,2.771.1,5.539.157,8.31v0C661.937,497.1,661.892,494.332,661.836,491.561Z" transform="translate(-661.836 -491.561)" fill="#ffbb0d"/>
                                    </g>
                                  </g>
                                </g>
                              </g>
                            </g>
                          </g>
                        </g>
                      </g>
                    </g>
                  </g>
                </g>
              </g>
            </g>
          </g>
        </g>
      </g>
    </g>
    <g id="Group_74" data-name="Group 74" transform="translate(215.892 259.887)">
      <g id="Group_73" data-name="Group 73">
        <g id="Group_72" data-name="Group 72">
          <g id="Group_71" data-name="Group 71">
            <g id="Group_70" data-name="Group 70">
              <g id="Group_69" data-name="Group 69">
                <g id="Group_68" data-name="Group 68">
                  <g id="Group_67" data-name="Group 67">
                    <g id="Group_66" data-name="Group 66">
                      <g id="Group_65" data-name="Group 65">
                        <g id="Group_64" data-name="Group 64">
                          <g id="Group_63" data-name="Group 63">
                            <g id="Group_62" data-name="Group 62">
                              <g id="Group_61" data-name="Group 61">
                                <g id="Group_60" data-name="Group 60">
                                  <g id="Group_59" data-name="Group 59">
                                    <g id="Group_58" data-name="Group 58">
                                      <path id="Path_187" data-name="Path 187" d="M672.189,527.177a2.215,2.215,0,0,1,.226.389,2.415,2.415,0,0,1,.216,1,2.41,2.41,0,0,0-.213-1,3.125,3.125,0,0,0-.226-.394l-6.524-1.887v0Z" transform="translate(-665.668 -525.287)" fill="#ffbb0d"/>
                                    </g>
                                  </g>
                                </g>
                              </g>
                            </g>
                          </g>
                        </g>
                      </g>
                    </g>
                  </g>
                </g>
              </g>
            </g>
          </g>
        </g>
      </g>
    </g>
    <g id="Group_91" data-name="Group 91" transform="translate(225.104 153.656)">
      <g id="Group_90" data-name="Group 90">
        <g id="Group_89" data-name="Group 89">
          <g id="Group_88" data-name="Group 88">
            <g id="Group_87" data-name="Group 87">
              <g id="Group_86" data-name="Group 86">
                <g id="Group_85" data-name="Group 85">
                  <g id="Group_84" data-name="Group 84">
                    <g id="Group_83" data-name="Group 83">
                      <g id="Group_82" data-name="Group 82">
                        <g id="Group_81" data-name="Group 81">
                          <g id="Group_80" data-name="Group 80">
                            <g id="Group_79" data-name="Group 79">
                              <g id="Group_78" data-name="Group 78">
                                <g id="Group_77" data-name="Group 77">
                                  <g id="Group_76" data-name="Group 76">
                                    <g id="Group_75" data-name="Group 75">
                                      <path id="Path_188" data-name="Path 188" d="M669.129,485.376c2.8.3,5.624.692,8.4,1.256C674.753,486.068,671.929,485.679,669.129,485.376Z" transform="translate(-669.129 -485.376)" fill="#ffbb0d"/>
                                    </g>
                                  </g>
                                </g>
                              </g>
                            </g>
                          </g>
                        </g>
                      </g>
                    </g>
                  </g>
                </g>
              </g>
            </g>
          </g>
        </g>
      </g>
    </g>
    <g id="Group_125" data-name="Group 125" transform="translate(204.497 248.561)">
      <g id="Group_124" data-name="Group 124">
        <g id="Group_123" data-name="Group 123">
          <g id="Group_122" data-name="Group 122">
            <g id="Group_121" data-name="Group 121">
              <g id="Group_120" data-name="Group 120">
                <g id="Group_119" data-name="Group 119">
                  <g id="Group_118" data-name="Group 118">
                    <g id="Group_117" data-name="Group 117">
                      <g id="Group_116" data-name="Group 116">
                        <g id="Group_115" data-name="Group 115">
                          <g id="Group_114" data-name="Group 114">
                            <g id="Group_113" data-name="Group 113">
                              <g id="Group_112" data-name="Group 112">
                                <g id="Group_111" data-name="Group 111">
                                  <g id="Group_110" data-name="Group 110">
                                    <g id="Group_109" data-name="Group 109">
                                      <path id="Path_190" data-name="Path 190" d="M661.7,530.8c-.173,3.068-.085,3.207-.311,6.255h0c.226-3.045.133-3.186.311-6.255,3.652.567,7.86-1.77,11.61-1.211v0q.81-4.28,1.647-8.555H662.334C662.23,523.316,661.826,528.527,661.7,530.8Z" transform="translate(-661.387 -521.032)" fill="#fff"/>
                                    </g>
                                  </g>
                                </g>
                              </g>
                            </g>
                          </g>
                        </g>
                      </g>
                    </g>
                  </g>
                </g>
              </g>
            </g>
          </g>
        </g>
      </g>
    </g>
    <g id="Group_142" data-name="Group 142" transform="translate(204.606 152.754)">
      <g id="Group_141" data-name="Group 141">
        <g id="Group_140" data-name="Group 140">
          <g id="Group_139" data-name="Group 139">
            <g id="Group_138" data-name="Group 138">
              <g id="Group_137" data-name="Group 137">
                <g id="Group_136" data-name="Group 136">
                  <g id="Group_135" data-name="Group 135">
                    <g id="Group_134" data-name="Group 134">
                      <g id="Group_133" data-name="Group 133">
                        <g id="Group_132" data-name="Group 132">
                          <g id="Group_131" data-name="Group 131">
                            <g id="Group_130" data-name="Group 130">
                              <g id="Group_129" data-name="Group 129">
                                <g id="Group_128" data-name="Group 128">
                                  <g id="Group_127" data-name="Group 127">
                                    <g id="Group_126" data-name="Group 126">
                                      <path id="Path_191" data-name="Path 191" d="M690.321,487.2c-2.771-.564-5.595-.953-8.395-1.256-.147-.016-.293-.032-.439-.045-.878-.093-1.757-.181-2.63-.261-5.534-.506-11.091-.612-16.649-.594q.139,8.66.306,17.362c.056,2.771.1,5.539.157,8.331l.149,22.989h.157q.084,10.744-.021,21.421c-.056,5.438-1.363,20.3-1.528,25.7h14.094C676.791,574.3,691.38,487.411,690.321,487.2Z" transform="translate(-661.428 -485.037)" fill="#fc8d7c"/>
                                    </g>
                                  </g>
                                </g>
                              </g>
                            </g>
                          </g>
                        </g>
                      </g>
                    </g>
                  </g>
                </g>
              </g>
            </g>
          </g>
        </g>
      </g>
    </g>
    <g id="Group_159" data-name="Group 159" transform="translate(191.413 70.012)">
      <g id="Group_158" data-name="Group 158">
        <g id="Group_157" data-name="Group 157">
          <g id="Group_156" data-name="Group 156">
            <g id="Group_155" data-name="Group 155">
              <g id="Group_154" data-name="Group 154">
                <g id="Group_153" data-name="Group 153">
                  <g id="Group_152" data-name="Group 152">
                    <g id="Group_151" data-name="Group 151">
                      <g id="Group_150" data-name="Group 150">
                        <g id="Group_149" data-name="Group 149">
                          <g id="Group_148" data-name="Group 148">
                            <g id="Group_147" data-name="Group 147">
                              <g id="Group_146" data-name="Group 146">
                                <g id="Group_145" data-name="Group 145">
                                  <g id="Group_144" data-name="Group 144">
                                    <g id="Group_143" data-name="Group 143">
                                      <path id="Path_192" data-name="Path 192" d="M656.471,453.951v15.5h12.9v-12.88Z" transform="translate(-656.471 -453.951)" fill="#fff"/>
                                    </g>
                                  </g>
                                </g>
                              </g>
                            </g>
                          </g>
                        </g>
                      </g>
                    </g>
                  </g>
                </g>
              </g>
            </g>
          </g>
        </g>
      </g>
    </g>
    <g id="Group_176" data-name="Group 176" transform="translate(170.14 82.354)">
      <g id="Group_175" data-name="Group 175">
        <g id="Group_174" data-name="Group 174">
          <g id="Group_173" data-name="Group 173">
            <g id="Group_172" data-name="Group 172">
              <g id="Group_171" data-name="Group 171">
                <g id="Group_170" data-name="Group 170">
                  <g id="Group_169" data-name="Group 169">
                    <g id="Group_168" data-name="Group 168">
                      <g id="Group_167" data-name="Group 167">
                        <g id="Group_166" data-name="Group 166">
                          <g id="Group_165" data-name="Group 165">
                            <g id="Group_164" data-name="Group 164">
                              <g id="Group_163" data-name="Group 163">
                                <g id="Group_162" data-name="Group 162">
                                  <g id="Group_161" data-name="Group 161">
                                    <g id="Group_160" data-name="Group 160">
                                      <path id="Path_193" data-name="Path 193" d="M750.611,513.789,731.558,505.7a11.551,11.551,0,0,1-5.7-5.254c-.9-1.693-1.7-3.5-2.465-5.377-4.2-10.237-7.248-22.545-15.549-29.574-10.756-9.1-35.592-8.222-47.956-3.021a31.592,31.592,0,0,0-7.831,4.849,78.574,78.574,0,0,0-3.575,19.593c.383,4.562,2.034-.49,2.688,4.048l2.489-3.734,3.726.764c-.152,12.372-.04,24.956.157,37.647.1,6.878.237,13.788.362,20.713.056,2.771.1,5.539.157,8.31q.2,11.5.306,23.01.084,10.744-.024,21.421-.08,8.157-.322,16.258-.247,8.193-.708,16.281c-.173,3.069-.378,6.138-.607,9.186l16.268.8c.724.33.234.293.921-.117a2.531,2.531,0,0,0,.4-.309,2.443,2.443,0,0,0,.559-2.792,3.153,3.153,0,0,0-.226-.394L668.1,636.12c.181-.921.346-1.842.527-2.771,1.139-6,2.321-12,3.487-18,1.432-7.381,2.848-14.77,4.16-22.167q1.382-7.746,2.558-15.512h.016c.141-.921.285-1.842.418-2.763q.694-4.7,1.291-9.42c.024-.2.048-.407.077-.6.213-1.724.41-3.439.6-5.155.048-.386.088-.772.125-1.147.213-1.975.418-3.953.591-5.927.2-2.172.378-4.352.519-6.524.04-.6.08-1.2.12-1.81.069-1.038.125-2.068.181-3.109.029-.535.053-1.078.077-1.613h3.567c.381-4.722,4.181-8.23,8.877-9.092,6.979-1.28,14.08-1.243,21.152-1.246.112,0,.221.011.33.013-.341-1.214-.679-2.425-1.022-3.636-.913-3.25-1.842-6.5-2.762-9.742-.882-3.093-1.539-6.266-2.646-9.286-2.614-7.131-9.588-32.539,2.96-1.038l2.079,4.991a11.563,11.563,0,0,0,4.549,5.358,11.864,11.864,0,0,0,3.673,1.5l24.025,5.185a4.813,4.813,0,0,0,5.2-2.188A4.664,4.664,0,0,0,750.611,513.789Z" transform="translate(-648.479 -458.588)" fill="#fff"/>
                                    </g>
                                  </g>
                                </g>
                              </g>
                            </g>
                          </g>
                        </g>
                      </g>
                    </g>
                  </g>
                </g>
              </g>
            </g>
          </g>
        </g>
      </g>
    </g>
    <g id="Group_193" data-name="Group 193" transform="translate(179.719 129.757)">
      <g id="Group_192" data-name="Group 192">
        <g id="Group_191" data-name="Group 191">
          <g id="Group_190" data-name="Group 190">
            <g id="Group_189" data-name="Group 189">
              <g id="Group_188" data-name="Group 188">
                <g id="Group_187" data-name="Group 187">
                  <g id="Group_186" data-name="Group 186">
                    <g id="Group_185" data-name="Group 185">
                      <g id="Group_184" data-name="Group 184">
                        <g id="Group_183" data-name="Group 183">
                          <g id="Group_182" data-name="Group 182">
                            <g id="Group_181" data-name="Group 181">
                              <g id="Group_180" data-name="Group 180">
                                <g id="Group_179" data-name="Group 179">
                                  <g id="Group_178" data-name="Group 178">
                                    <g id="Group_177" data-name="Group 177">
                                      <path id="Path_194" data-name="Path 194" d="M675.418,476.4l-16.707,19.648-2.925,3.442-3.708,25.581.149,23.01h20.641c.144-.921.285-1.842.418-2.763q.695-4.695,1.291-9.42c.024-.2.048-.407.077-.6.213-1.725.41-3.439.6-5.156.048-.386.088-.772.128-1.147.01-.125.024-.248.037-.37Z" transform="translate(-652.078 -476.397)" fill="#577de8"/>
                                    </g>
                                  </g>
                                </g>
                              </g>
                            </g>
                          </g>
                        </g>
                      </g>
                    </g>
                  </g>
                </g>
              </g>
            </g>
          </g>
        </g>
      </g>
    </g>
    <g id="Group_210" data-name="Group 210" transform="translate(178.476 149.405)">
      <g id="Group_209" data-name="Group 209">
        <g id="Group_208" data-name="Group 208">
          <g id="Group_207" data-name="Group 207">
            <g id="Group_206" data-name="Group 206">
              <g id="Group_205" data-name="Group 205">
                <g id="Group_204" data-name="Group 204">
                  <g id="Group_203" data-name="Group 203">
                    <g id="Group_202" data-name="Group 202">
                      <g id="Group_201" data-name="Group 201">
                        <g id="Group_200" data-name="Group 200">
                          <g id="Group_199" data-name="Group 199">
                            <g id="Group_198" data-name="Group 198">
                              <g id="Group_197" data-name="Group 197">
                                <g id="Group_196" data-name="Group 196">
                                  <g id="Group_195" data-name="Group 195">
                                    <g id="Group_194" data-name="Group 194">
                                      <path id="Path_195" data-name="Path 195" d="M678.449,497.739a99.654,99.654,0,0,0,3.021-13.961H652.335c.1,6.878.237,13.788.362,20.713.056,2.771.1,5.539.157,8.31l.149,23.01h.157q.084,10.744-.024,21.421c-.053,5.438-1.36,20.3-1.525,25.7H665.7c1.432-7.381,4.054-24.213,5.366-31.61q1.382-7.745,2.558-15.512h.016c.144-.921.285-1.842.418-2.763q.695-4.7,1.291-9.42c.024-.2.048-.407.077-.6.213-1.725.41-3.439.6-5.156.048-.386.088-.772.128-1.147.21-1.975.415-3.953.588-5.928.2-2.172.378-4.352.519-6.524.04-.6.08-1.2.12-1.81.069-1.038.125-2.068.181-3.109.029-.535.053-1.078.077-1.613Z" transform="translate(-651.611 -483.779)" fill="#fc8d7c"/>
                                    </g>
                                  </g>
                                </g>
                              </g>
                            </g>
                          </g>
                        </g>
                      </g>
                    </g>
                  </g>
                </g>
              </g>
            </g>
          </g>
        </g>
      </g>
    </g>
    <g id="Group_227" data-name="Group 227" transform="translate(172.064 82.355)">
      <g id="Group_226" data-name="Group 226">
        <g id="Group_225" data-name="Group 225">
          <g id="Group_224" data-name="Group 224">
            <g id="Group_223" data-name="Group 223">
              <g id="Group_222" data-name="Group 222">
                <g id="Group_221" data-name="Group 221">
                  <g id="Group_220" data-name="Group 220">
                    <g id="Group_219" data-name="Group 219">
                      <g id="Group_218" data-name="Group 218">
                        <g id="Group_217" data-name="Group 217">
                          <g id="Group_216" data-name="Group 216">
                            <g id="Group_215" data-name="Group 215">
                              <g id="Group_214" data-name="Group 214">
                                <g id="Group_213" data-name="Group 213">
                                  <g id="Group_212" data-name="Group 212">
                                    <g id="Group_211" data-name="Group 211">
                                      <path id="Path_196" data-name="Path 196" d="M722.186,495.063c-4.2-10.237-7.248-22.542-15.549-29.571-10.756-9.1-35.59-8.219-47.956-3.021a31.693,31.693,0,0,0-7.828,4.847,30.475,30.475,0,0,0-1.3,14.517l1.078,15.659,6.074,48.856,24.865-5.137,7.823-1.61,28.121-5.619-11.994-38.919Z" transform="translate(-649.202 -458.588)" fill="#92c023"/>
                                    </g>
                                  </g>
                                </g>
                              </g>
                            </g>
                          </g>
                        </g>
                      </g>
                    </g>
                  </g>
                </g>
              </g>
            </g>
          </g>
        </g>
      </g>
    </g>
    <g id="Group_244" data-name="Group 244" transform="translate(189.753 53.525)">
      <g id="Group_243" data-name="Group 243">
        <g id="Group_242" data-name="Group 242">
          <g id="Group_241" data-name="Group 241">
            <g id="Group_240" data-name="Group 240">
              <g id="Group_239" data-name="Group 239">
                <g id="Group_238" data-name="Group 238">
                  <g id="Group_237" data-name="Group 237">
                    <g id="Group_236" data-name="Group 236">
                      <g id="Group_235" data-name="Group 235">
                        <g id="Group_234" data-name="Group 234">
                          <g id="Group_233" data-name="Group 233">
                            <g id="Group_232" data-name="Group 232">
                              <g id="Group_231" data-name="Group 231">
                                <g id="Group_230" data-name="Group 230">
                                  <g id="Group_229" data-name="Group 229">
                                    <g id="Group_228" data-name="Group 228">
                                      <path id="Path_197" data-name="Path 197" d="M678.2,459.868a11.2,11.2,0,0,1-18.467,7.567,10.092,10.092,0,0,1-1.267-1.3,11.186,11.186,0,0,1,4.671-17.674,10.628,10.628,0,0,1,2-.543l.027-.008a11.476,11.476,0,0,1,2.795-.114c.237.019.474.048.711.085a11.174,11.174,0,0,1,9.534,11.988Z" transform="translate(-655.848 -447.757)" fill="#fff"/>
                                    </g>
                                  </g>
                                </g>
                              </g>
                            </g>
                          </g>
                        </g>
                      </g>
                    </g>
                  </g>
                </g>
              </g>
            </g>
          </g>
        </g>
      </g>
    </g>
    <g id="Group_261" data-name="Group 261" transform="translate(188.917 53.308)">
      <g id="Group_260" data-name="Group 260">
        <g id="Group_259" data-name="Group 259">
          <g id="Group_258" data-name="Group 258">
            <g id="Group_257" data-name="Group 257">
              <g id="Group_256" data-name="Group 256">
                <g id="Group_255" data-name="Group 255">
                  <g id="Group_254" data-name="Group 254">
                    <g id="Group_253" data-name="Group 253">
                      <g id="Group_252" data-name="Group 252">
                        <g id="Group_251" data-name="Group 251">
                          <g id="Group_250" data-name="Group 250">
                            <g id="Group_249" data-name="Group 249">
                              <g id="Group_248" data-name="Group 248">
                                <g id="Group_247" data-name="Group 247">
                                  <g id="Group_246" data-name="Group 246">
                                    <g id="Group_245" data-name="Group 245">
                                      <path id="Path_198" data-name="Path 198" d="M673.325,451.223l-.117-.091-.109-.048c-.253-.048-.508-.1-.764-.13-.4-.053-.8-.077-1.2-.117l-.274-.027a11.888,11.888,0,0,1-6.713-2.326,8.484,8.484,0,0,1-.929-.809c-.13.043-.266.077-.4.128a11.188,11.188,0,0,0-4.674,17.674,1.394,1.394,0,0,0,.154.17l7.948-7.873.306.791.011.08h.021l.061.157a1.372,1.372,0,0,0,2.651-.551l-.159-3.961.021-.237a2.284,2.284,0,0,1,2.457-2.087l2.616.216A11.542,11.542,0,0,1,673.325,451.223Z" transform="translate(-655.534 -447.675)" fill="#2e2e2e"/>
                                    </g>
                                  </g>
                                </g>
                              </g>
                            </g>
                          </g>
                        </g>
                      </g>
                    </g>
                  </g>
                </g>
              </g>
            </g>
          </g>
        </g>
      </g>
    </g>
    <g id="Group_278" data-name="Group 278" transform="translate(194.407 60.666)">
      <g id="Group_277" data-name="Group 277">
        <g id="Group_276" data-name="Group 276">
          <g id="Group_275" data-name="Group 275">
            <g id="Group_274" data-name="Group 274">
              <g id="Group_273" data-name="Group 273">
                <g id="Group_272" data-name="Group 272">
                  <g id="Group_271" data-name="Group 271">
                    <g id="Group_270" data-name="Group 270">
                      <g id="Group_269" data-name="Group 269">
                        <g id="Group_268" data-name="Group 268">
                          <g id="Group_267" data-name="Group 267">
                            <g id="Group_266" data-name="Group 266">
                              <g id="Group_265" data-name="Group 265">
                                <g id="Group_264" data-name="Group 264">
                                  <g id="Group_263" data-name="Group 263">
                                    <g id="Group_262" data-name="Group 262">
                                      <path id="Path_199" data-name="Path 199" d="M663.328,453.547a2.871,2.871,0,1,1-2.627-3.1A2.872,2.872,0,0,1,663.328,453.547Z" transform="translate(-657.596 -450.439)" fill="#fff"/>
                                    </g>
                                  </g>
                                </g>
                              </g>
                            </g>
                          </g>
                        </g>
                      </g>
                    </g>
                  </g>
                </g>
              </g>
            </g>
          </g>
        </g>
      </g>
    </g>
    <g id="Group_313" data-name="Group 313" transform="translate(189.573 51.533)">
      <g id="Group_295" data-name="Group 295">
        <g id="Group_294" data-name="Group 294">
          <g id="Group_293" data-name="Group 293">
            <g id="Group_292" data-name="Group 292">
              <g id="Group_291" data-name="Group 291">
                <g id="Group_290" data-name="Group 290">
                  <g id="Group_289" data-name="Group 289">
                    <g id="Group_288" data-name="Group 288">
                      <g id="Group_287" data-name="Group 287">
                        <g id="Group_286" data-name="Group 286">
                          <g id="Group_285" data-name="Group 285">
                            <g id="Group_284" data-name="Group 284">
                              <g id="Group_283" data-name="Group 283">
                                <g id="Group_282" data-name="Group 282">
                                  <g id="Group_281" data-name="Group 281">
                                    <g id="Group_280" data-name="Group 280">
                                      <g id="Group_279" data-name="Group 279">
                                        <path id="Path_200" data-name="Path 200" d="M678.351,455.842a11.57,11.57,0,0,0-9.59-8.706c-.247-.037-.492-.067-.74-.088a11.969,11.969,0,0,0-2.9.12l-.029.008a11.093,11.093,0,0,0-2.076.567,11.6,11.6,0,0,0-7.232,8.1Z" transform="translate(-655.78 -447.008)" fill="#7ca810"/>
                                      </g>
                                    </g>
                                  </g>
                                </g>
                              </g>
                            </g>
                          </g>
                        </g>
                      </g>
                    </g>
                  </g>
                </g>
              </g>
            </g>
          </g>
        </g>
      </g>
      <g id="Group_312" data-name="Group 312" transform="translate(12.933 5.93)">
        <g id="Group_311" data-name="Group 311">
          <g id="Group_310" data-name="Group 310">
            <g id="Group_309" data-name="Group 309">
              <g id="Group_308" data-name="Group 308">
                <g id="Group_307" data-name="Group 307">
                  <g id="Group_306" data-name="Group 306">
                    <g id="Group_305" data-name="Group 305">
                      <g id="Group_304" data-name="Group 304">
                        <g id="Group_303" data-name="Group 303">
                          <g id="Group_302" data-name="Group 302">
                            <g id="Group_301" data-name="Group 301">
                              <g id="Group_300" data-name="Group 300">
                                <g id="Group_299" data-name="Group 299">
                                  <g id="Group_298" data-name="Group 298">
                                    <g id="Group_297" data-name="Group 297">
                                      <g id="Group_296" data-name="Group 296">
                                        <path id="Path_201" data-name="Path 201" d="M683.865,451.969H662a1.367,1.367,0,0,1-1.365-1.366h0A1.367,1.367,0,0,1,662,449.236h21.861a1.367,1.367,0,0,1,1.365,1.368h0A1.367,1.367,0,0,1,683.865,451.969Z" transform="translate(-660.639 -449.236)" fill="#7ca810"/>
                                      </g>
                                    </g>
                                  </g>
                                </g>
                              </g>
                            </g>
                          </g>
                        </g>
                      </g>
                    </g>
                  </g>
                </g>
              </g>
            </g>
          </g>
        </g>
      </g>
    </g>
    <g id="Group_330" data-name="Group 330" transform="translate(142 107.013)">
      <g id="Group_329" data-name="Group 329">
        <g id="Group_328" data-name="Group 328">
          <g id="Group_327" data-name="Group 327">
            <g id="Group_326" data-name="Group 326">
              <g id="Group_325" data-name="Group 325">
                <g id="Group_324" data-name="Group 324">
                  <g id="Group_323" data-name="Group 323">
                    <g id="Group_322" data-name="Group 322">
                      <g id="Group_321" data-name="Group 321">
                        <g id="Group_320" data-name="Group 320">
                          <g id="Group_319" data-name="Group 319">
                            <g id="Group_318" data-name="Group 318">
                              <g id="Group_317" data-name="Group 317">
                                <g id="Group_316" data-name="Group 316">
                                  <g id="Group_315" data-name="Group 315">
                                    <g id="Group_314" data-name="Group 314">
                                      <path id="Path_202" data-name="Path 202" d="M649.273,476.172a65.52,65.52,0,0,1,4.844-8.32,65.668,65.668,0,0,0-4.844,8.318,67.815,67.815,0,0,0-5.8,17.91l-1.656,9.353-3.913,22.172a4.179,4.179,0,0,0,8.334.522l16.476-40.862,4.935-5.805.064,1.078Z" transform="translate(-637.907 -467.852)" fill="#fff"/>
                                    </g>
                                  </g>
                                </g>
                              </g>
                            </g>
                          </g>
                        </g>
                      </g>
                    </g>
                  </g>
                </g>
              </g>
            </g>
          </g>
        </g>
      </g>
    </g>
    <g id="Group_347" data-name="Group 347" transform="translate(153.366 85.239)">
      <g id="Group_346" data-name="Group 346">
        <g id="Group_345" data-name="Group 345">
          <g id="Group_344" data-name="Group 344">
            <g id="Group_343" data-name="Group 343">
              <g id="Group_342" data-name="Group 342">
                <g id="Group_341" data-name="Group 341">
                  <g id="Group_340" data-name="Group 340">
                    <g id="Group_339" data-name="Group 339">
                      <g id="Group_338" data-name="Group 338">
                        <g id="Group_337" data-name="Group 337">
                          <g id="Group_336" data-name="Group 336">
                            <g id="Group_335" data-name="Group 335">
                              <g id="Group_334" data-name="Group 334">
                                <g id="Group_333" data-name="Group 333">
                                  <g id="Group_332" data-name="Group 332">
                                    <g id="Group_331" data-name="Group 331">
                                      <path id="Path_203" data-name="Path 203" d="M669.805,482.454a58.117,58.117,0,0,0,7.229-16.111c.114-.413.658-2.816.631-2.515.136-.767.264-1.539.357-2.313l0-.021a1.644,1.644,0,0,0-1.919-1.8c-.5.09-.993.186-1.467.293-5.7,1.286-10.921,4.4-15.72,8.366a63.3,63.3,0,0,0-11.9,13.09,65.474,65.474,0,0,0-4.844,8.32c6.851,1.765,13.673,3.649,20.609,5.047C663.787,495.015,668.477,484.469,669.805,482.454Z" transform="translate(-642.177 -459.671)" fill="#92c023"/>
                                    </g>
                                  </g>
                                </g>
                              </g>
                            </g>
                          </g>
                        </g>
                      </g>
                    </g>
                  </g>
                </g>
              </g>
            </g>
          </g>
        </g>
      </g>
    </g>
    <g id="Group_365" data-name="Group 365" transform="translate(178.367 257.084)">
      <g id="Group_364" data-name="Group 364">
        <g id="Group_363" data-name="Group 363">
          <g id="Group_362" data-name="Group 362">
            <g id="Group_361" data-name="Group 361">
              <g id="Group_360" data-name="Group 360">
                <g id="Group_359" data-name="Group 359">
                  <g id="Group_358" data-name="Group 358">
                    <g id="Group_357" data-name="Group 357">
                      <g id="Group_356" data-name="Group 356">
                        <g id="Group_355" data-name="Group 355">
                          <g id="Group_354" data-name="Group 354">
                            <g id="Group_353" data-name="Group 353">
                              <g id="Group_352" data-name="Group 352">
                                <g id="Group_351" data-name="Group 351">
                                  <g id="Group_350" data-name="Group 350">
                                    <g id="Group_349" data-name="Group 349">
                                      <path id="Path_204" data-name="Path 204" d="M669.486,528.927l-6.521-1.887c.178-.924.348-1.848.527-2.771l-.226-.035h-11.2c-.152,2.507-.309,5.015-.495,7.5l16.263.8c.729.333.234.29.924-.123a2.015,2.015,0,0,0,.4-.308,2.428,2.428,0,0,0,.559-2.792A2.247,2.247,0,0,0,669.486,528.927Z" transform="translate(-651.57 -524.234)" fill="#2e2e2e"/>
                                    </g>
                                  </g>
                                </g>
                              </g>
                            </g>
                          </g>
                        </g>
                      </g>
                    </g>
                  </g>
                </g>
              </g>
            </g>
          </g>
        </g>
      </g>
    </g>
    <g id="Group_382" data-name="Group 382" transform="translate(204.497 257.084)">
      <g id="Group_381" data-name="Group 381">
        <g id="Group_380" data-name="Group 380">
          <g id="Group_379" data-name="Group 379">
            <g id="Group_378" data-name="Group 378">
              <g id="Group_377" data-name="Group 377">
                <g id="Group_376" data-name="Group 376">
                  <g id="Group_375" data-name="Group 375">
                    <g id="Group_374" data-name="Group 374">
                      <g id="Group_373" data-name="Group 373">
                        <g id="Group_372" data-name="Group 372">
                          <g id="Group_371" data-name="Group 371">
                            <g id="Group_370" data-name="Group 370">
                              <g id="Group_369" data-name="Group 369">
                                <g id="Group_368" data-name="Group 368">
                                  <g id="Group_367" data-name="Group 367">
                                    <g id="Group_366" data-name="Group 366">
                                      <path id="Path_205" data-name="Path 205" d="M679.3,528.927l-6.521-1.887v0c.178-.924.349-1.845.527-2.768h0l-.224-.035h-11.2c-.152,2.507-.309,5.015-.495,7.5h0l16.263.8c.583.264.394.287.641.077a1.872,1.872,0,0,1,.282-.2,1.936,1.936,0,0,0,.4-.308,2.379,2.379,0,0,0,.6-.873,2.486,2.486,0,0,0,.176-.921,2.418,2.418,0,0,0-.216-1A2.227,2.227,0,0,0,679.3,528.927Z" transform="translate(-661.387 -524.234)" fill="#2e2e2e"/>
                                    </g>
                                  </g>
                                </g>
                              </g>
                            </g>
                          </g>
                        </g>
                      </g>
                    </g>
                  </g>
                </g>
              </g>
            </g>
          </g>
        </g>
      </g>
    </g>
    <g id="Group_411" data-name="Group 411" transform="translate(242.588 148.439)">
      <g id="Group_386" data-name="Group 386" transform="translate(0 22.321)">
        <g id="Group_385" data-name="Group 385">
          <g id="Group_384" data-name="Group 384">
            <g id="Group_383" data-name="Group 383">
              <path id="Path_206" data-name="Path 206" d="M727.537,526.412h-45.1L675.7,491.8h59.411Zm-43.178-2.329h41.3l6.553-29.952H678.525Z" transform="translate(-675.698 -491.802)" fill="#58c9be"/>
            </g>
          </g>
        </g>
      </g>
      <g id="Group_390" data-name="Group 390" transform="translate(15.945)">
        <g id="Group_389" data-name="Group 389">
          <g id="Group_388" data-name="Group 388">
            <g id="Group_387" data-name="Group 387">
              <path id="Path_207" data-name="Path 207" d="M683.685,507.5l-2-1.2,13.768-22.886,13.083,22.908-2.024,1.156L695.4,488.022Z" transform="translate(-681.689 -483.416)" fill="#58c9be"/>
            </g>
          </g>
        </g>
      </g>
      <g id="Group_394" data-name="Group 394" transform="translate(3.584 33.466)">
        <g id="Group_393" data-name="Group 393">
          <g id="Group_392" data-name="Group 392">
            <g id="Group_391" data-name="Group 391">
              <rect id="Rectangle_217" data-name="Rectangle 217" width="50.848" height="2.329" fill="#58c9be"/>
            </g>
          </g>
        </g>
      </g>
      <g id="Group_398" data-name="Group 398" transform="translate(5.551 43.563)">
        <g id="Group_397" data-name="Group 397">
          <g id="Group_396" data-name="Group 396">
            <g id="Group_395" data-name="Group 395">
              <rect id="Rectangle_218" data-name="Rectangle 218" width="48.881" height="2.329" fill="#58c9be"/>
            </g>
          </g>
        </g>
      </g>
      <g id="Group_402" data-name="Group 402" transform="translate(15.779 23.486)">
        <g id="Group_401" data-name="Group 401">
          <g id="Group_400" data-name="Group 400">
            <g id="Group_399" data-name="Group 399">
              <rect id="Rectangle_219" data-name="Rectangle 219" width="2.329" height="32.28" fill="#58c9be"/>
            </g>
          </g>
        </g>
      </g>
      <g id="Group_406" data-name="Group 406" transform="translate(40.621 23.486)">
        <g id="Group_405" data-name="Group 405">
          <g id="Group_404" data-name="Group 404">
            <g id="Group_403" data-name="Group 403">
              <rect id="Rectangle_220" data-name="Rectangle 220" width="2.329" height="32.28" fill="#58c9be"/>
            </g>
          </g>
        </g>
      </g>
      <g id="Group_410" data-name="Group 410" transform="translate(28.827 23.486)">
        <g id="Group_409" data-name="Group 409">
          <g id="Group_408" data-name="Group 408">
            <g id="Group_407" data-name="Group 407">
              <rect id="Rectangle_221" data-name="Rectangle 221" width="2.329" height="32.28" fill="#58c9be"/>
            </g>
          </g>
        </g>
      </g>
    </g>
    <text id="grocereasy" transform="translate(184.836 117.638) rotate(-8)" fill="#fff" font-size="6" font-family="Lato-Heavy, Lato" font-weight="800"><tspan x="0" y="0">grocereasy</tspan></text>
  </g>
</svg>
